<svg xmlns="http://www.w3.org/2000/svg" viewBox="0 0 421.1 620">
  <defs>
    <style>
      .cls-1, .cls-2 {
        fill: #d1d3d4;
      }

      .cls-1 {
        opacity: 0.86;
      }

      .cls-3 {
        fill: #002dbd;
      }

      .cls-4 {
        fill: none;
      }

      .cls-10, .cls-5, .cls-6 {
        fill: #3f8bff;
      }

      .cls-5 {
        opacity: 0.72;
      }

      .cls-7, .cls-8 {
        fill: #6afff8;
      }

      .cls-7 {
        opacity: 0.71;
      }

      .cls-11, .cls-9 {
        fill: #fff;
      }

      .cls-9 {
        opacity: 0.76;
      }

      .cls-10 {
        opacity: 0.74;
      }
    </style>
  </defs>
  <title>kide_logo</title>
  <g id="Layer_2" data-name="Layer 2">
    <g id="Layer_1-2" data-name="Layer 1">
      <g>
        <g>
          <polygon points="396.9 514 396.9 597.4 2 395.8 0.4 392.9 0.4 392.9 0.3 321.1 0.2 311.1 396.9 514"/>
          <polygon class="cls-1" points="396.9 514 396.9 597.4 2 395.8 0.4 392.9 0.3 321.1 0.2 311.1 396.9 514"/>
          <polygon class="cls-2" points="421 620 9.9 410.1 1.8 396 0.1 393.1 0.1 393.1 0.1 393.1 0 321.3 0 321.3 396.7 524.2 421 536.7 421 620"/>
          <polygon class="cls-3" points="264.5 392.1 0.2 258.5 0.2 321.2 0.3 321.3 264.5 456.2 264.5 392.1"/>
          <line class="cls-4" x1="10.1" y1="409.9" x2="0.4" y2="392.8"/>
        </g>
        <g>
          <polygon points="145.4 0 145.4 618 94.9 591.1 58.3 571.6 45.6 564.9 45.6 53.1 145.4 0"/>
          <polygon class="cls-5" points="145.4 0 145.4 618 94.9 591.1 58.3 571.6 45.6 564.9 45.6 53.1 145.4 0"/>
          <polygon class="cls-6" points="135.4 0 135.4 618 84.9 591.1 48.3 571.6 35.6 564.9 35.6 53.1 135.4 0"/>
          <polygon points="19 88.9 19 589.7 38.1 579.9 50.7 573.3 101.2 547.3 116.5 539.4 116.5 138.1 53.4 105.5 21.3 88.9 19 88.9"/>
          <polygon class="cls-7" points="19 88.9 19 589.7 38.1 579.9 50.7 573.3 101.2 547.3 116.5 539.4 116.5 138.1 53.4 105.5 21.3 88.9 19 88.9"/>
          <polygon class="cls-8" points="10.2 78.9 10.2 579.7 29.3 569.9 42 563.3 92.4 537.3 107.8 529.4 107.8 128.1 44.6 95.5 12.5 78.9 10.2 78.9"/>
        </g>
        <g>
          <polygon points="243.3 204.1 243.3 268.8 0.1 393.1 0.1 329.7 0.2 329.6 243.3 204.1"/>
          <polygon class="cls-9" points="243.3 204.1 243.3 268.8 0.1 393.1 0.1 329.7 0.2 329.6 243.3 204.1"/>
          <polygon points="403.1 37 403.1 111.3 396.9 114.5 396.9 124.5 264.4 193.1 0.1 329.8 0.1 329.9 0.1 319.9 0.2 245 396.9 40.1 403.1 37"/>
          <polygon class="cls-10" points="403.1 37 403.1 111.3 396.9 114.5 396.9 124.5 264.4 193.1 0.1 329.8 0.1 329.9 0.1 319.9 0.2 245 396.9 40.1 403.1 37"/>
          <polygon class="cls-11" points="264.4 248 0.1 383.1 0.1 319.7 0.2 319.6 264.4 183.1 264.4 248"/>
          <polygon class="cls-6" points="421.1 17.7 421.1 102 403.1 111.3 396.9 114.5 185.3 224 0.1 319.8 0.1 319.9 0.1 319.9 0.2 235 396.9 30.1 403.1 27 421.1 17.7"/>
          <polyline class="cls-4" points="403.1 27 403.1 37 403.1 111.3"/>
          <polyline class="cls-4" points="396.9 124.5 396.9 114.5 396.9 40.1 396.9 30.1"/>
        </g>
      </g>
    </g>
  </g>
</svg>
