<svg id="Layer_1" data-name="Layer 1" xmlns="http://www.w3.org/2000/svg" viewBox="0 0 61.81 91"><title>kide_logo_bottom</title><path d="M7226.85,7229.44v12.23l-58-29.59-.24-.42h0l0-10.54v-1.47Zm-58.22-29.79v1.47l0,10.54.24.42,58,29.59v-12.23Zm61.75,33.11-3.56-1.82-58.22-29.78h0l0,10.54h0l.24.43,1.18,2.07,60.35,30.81Zm-23-21.22-38.79-19.6v9.2h0l38.78,19.8Zm-37.34,2.61-1.43-2.5m6.64-49.85v75.1l1.86,1,5.38,2.87,7.4,3.94V7154Zm0,0v75.1l1.86,1,5.38,2.87,7.4,3.94V7154Zm-1.47,0v75.1l1.86,1,5.38,2.87,7.4,3.94V7154Zm-2.43,5.25v73.5l2.79-1.45,1.86-1,7.41-3.82,2.25-1.16v-58.89l-9.26-4.79-4.71-2.43Zm0,0v73.5l2.79-1.45,1.86-1,7.41-3.82,2.25-1.16v-58.89l-9.26-4.79-4.71-2.43Zm-1.29-1.47v73.5l2.79-1.44,1.86-1,7.41-3.83,2.25-1.16V7172.8l-9.26-4.78-4.71-2.44Zm-1.47,36.8h0v9.31l35.68-18.23V7184Zm0,0h0v9.31l35.68-18.23V7184Zm58.22-42.49L7168.63,7190l0,11v1.47h0l38.8-20.07,19.44-10.07v-1.47l.91-.46v-10.91Zm0,0L7168.63,7190l0,11v1.47h0l38.8-20.07,19.44-10.07v-1.47l.91-.46v-10.91Zm-19.44,21-38.78,20h0v9.32l38.79-19.83Zm20.35-22.92-.91.46-58.22,30.08,0,12.44h0l27.19-14.07,31.05-16.07.91-.46,2.64-1.37v-12.38Zm0,0v12.38m-.91,1.93v-13.85" transform="translate(-7168.6 -7154)" fill="#fff"/></svg>