<?xml version="1.0" standalone="no"?>
<!DOCTYPE svg PUBLIC "-//W3C//DTD SVG 20010904//EN"
 "http://www.w3.org/TR/2001/REC-SVG-20010904/DTD/svg10.dtd">
<svg version="1.0" xmlns="http://www.w3.org/2000/svg"
 width="1020.000000pt" height="1280.000000pt" viewBox="0 0 1020.000000 1280.000000"
 preserveAspectRatio="xMidYMid meet">
<metadata>
Created by potrace 1.15, written by Peter Selinger 2001-2017
</metadata>
<g transform="translate(0.000000,1280.000000) scale(0.100000,-0.100000)"
fill="#000000" stroke="none">
<path d="M6474 12786 c-3 -7 -4 -25 -2 -39 3 -21 -189 -231 -1222 -1341 -673
-724 -1227 -1312 -1230 -1308 -4 4 -19 65 -33 136 l-27 129 30 53 31 53 -141
363 c-121 312 -159 397 -271 611 -72 136 -134 247 -139 247 -4 0 -21 -33 -36
-72 -15 -40 -36 -93 -46 -116 l-18 -44 -152 147 c-84 81 -154 142 -156 137 -2
-6 24 -65 58 -132 34 -67 60 -123 58 -125 -2 -1 -122 21 -268 50 -346 68 -340
67 -340 58 0 -5 25 -23 56 -42 31 -18 52 -37 47 -41 -4 -4 -102 -40 -218 -79
-115 -40 -215 -77 -221 -84 -7 -7 -65 -109 -129 -227 l-117 -215 -29 -230
c-16 -126 -29 -242 -29 -258 0 -19 28 -66 90 -151 l89 -123 12 -114 c7 -63 16
-118 21 -124 5 -5 37 -14 71 -20 l62 -10 5 -70 c8 -109 41 -162 147 -238 47
-34 96 -71 109 -82 l23 -20 -33 -65 -32 -65 -289 -37 c-337 -42 -430 -42 -446
-1 -5 13 -9 37 -9 52 0 28 -1 29 -72 35 -40 3 -197 6 -348 7 l-275 2 -310 -57
c-170 -31 -319 -60 -330 -65 -11 -5 -81 -64 -155 -132 -132 -120 -137 -126
-198 -240 l-63 -118 51 -118 c45 -101 63 -130 138 -216 47 -55 96 -105 108
-113 11 -8 270 -128 575 -268 305 -139 572 -262 593 -272 28 -13 42 -28 48
-49 4 -16 31 -253 59 -525 40 -395 49 -513 44 -585 -4 -49 -28 -351 -55 -670
l-48 -580 -66 -273 c-36 -150 -66 -277 -66 -282 0 -6 18 -10 41 -10 37 0 40
-2 33 -22 -3 -13 -12 -30 -19 -38 -7 -8 -58 -211 -113 -450 -100 -433 -100
-436 -117 -660 -37 -504 -40 -523 -89 -680 -24 -80 -84 -282 -131 -450 -86
-300 -89 -311 -241 -652 l-155 -347 91 -218 c77 -185 96 -223 127 -249 l37
-31 -43 -204 c-81 -387 -161 -784 -161 -803 0 -18 13 -18 438 -11 240 4 439 8
440 10 2 2 37 138 79 302 41 164 78 301 82 306 4 4 83 -5 175 -19 92 -14 172
-22 176 -18 18 19 243 471 338 679 l100 220 22 254 c11 140 22 256 24 258 1 2
17 -147 35 -331 l33 -333 -87 -314 -87 -314 -21 -247 c-11 -136 -18 -250 -15
-253 3 -3 50 5 104 19 54 14 99 24 100 23 2 -2 -19 -146 -31 -210 l-5 -27 428
2 427 3 6 180 c4 99 7 192 8 206 1 24 7 27 68 40 l67 15 42 209 c23 116 56
275 73 355 18 80 68 309 112 510 44 201 84 385 90 410 5 25 50 225 99 445 50
220 94 420 100 445 5 25 60 328 121 674 l110 628 -15 249 c-9 137 -16 266 -16
287 l0 39 75 -5 75 -5 0 262 c0 237 4 294 39 618 22 197 55 492 73 655 18 163
35 295 38 292 3 -3 273 -517 601 -1142 564 -1076 597 -1137 622 -1135 22 1
162 90 647 412 313 207 427 302 787 648 481 463 613 614 960 1098 271 379 435
693 493 945 7 30 17 60 21 66 5 6 48 17 97 23 l87 12 45 115 45 116 93 38 c51
21 123 60 161 88 38 28 79 56 91 62 20 11 22 17 17 63 -9 68 -44 137 -117 226
-33 41 -60 75 -60 77 0 1 23 21 52 44 43 34 58 40 83 36 16 -3 96 -6 178 -7
146 -3 147 -3 175 23 l27 27 155 -19 c85 -11 204 -25 264 -33 118 -15 120 -14
114 40 -4 34 3 32 -303 68 -121 14 -242 32 -270 40 -87 23 -177 35 -346 45
-90 5 -234 19 -319 30 -85 11 -158 20 -162 20 -5 0 -8 66 -8 148 -1 159 -3
178 -50 507 -17 121 -40 285 -51 365 -38 274 -85 436 -191 665 -262 564 -663
1199 -1029 1630 -52 61 -139 166 -194 235 -178 223 -426 457 -672 634 -93 67
-119 77 -129 52z m105 -117 c179 -121 511 -436 656 -624 38 -49 106 -133 151
-185 381 -447 743 -1010 1025 -1596 145 -302 177 -424 240 -904 17 -129 37
-271 46 -315 9 -47 17 -165 20 -284 l5 -203 -38 6 c-22 3 -187 24 -369 46
-364 45 -2452 303 -3570 441 -373 46 -420 54 -535 90 -92 30 -152 56 -227 102
-57 34 -103 68 -103 75 0 8 36 53 81 100 l80 87 -5 125 c-3 69 -7 191 -8 272
l-3 147 1239 1331 c681 731 1242 1330 1246 1330 4 0 35 -19 69 -41z m-124
-3935 c2058 -240 2258 -264 2261 -267 2 -2 1 -35 -3 -74 l-6 -71 -76 -7 c-42
-4 -158 -17 -259 -30 l-183 -23 -137 33 c-850 207 -928 225 -1127 255 -777
116 -1308 195 -1485 221 -175 25 -230 38 -372 85 -162 54 -198 69 -140 59 15
-3 702 -84 1527 -181z m2469 -289 c65 -8 120 -16 122 -18 3 -3 -193 -83 -248
-101 -16 -5 -18 2 -18 64 0 50 4 70 13 70 7 0 66 -7 131 -15z m-2012 -805
c122 -16 250 -32 283 -35 33 -3 218 -25 410 -49 193 -24 353 -41 357 -39 4 2
17 35 28 73 l21 70 160 -2 161 -1 30 -61 c24 -48 47 -74 109 -123 57 -46 86
-63 109 -63 40 0 39 -12 -10 -161 -89 -264 -235 -517 -540 -934 -272 -371
-415 -532 -825 -929 -415 -401 -510 -476 -1085 -851 -151 -99 -293 -194 -316
-211 l-41 -32 -602 1148 -601 1147 15 134 c8 74 20 177 25 229 6 52 15 131 20
175 5 44 14 137 21 208 7 70 15 127 19 127 9 0 252 41 495 84 148 26 286 42
535 61 184 14 441 34 570 44 333 26 396 25 652 -9z"/>
</g>
</svg>
