<?xml version="1.0" standalone="no"?>
<!DOCTYPE svg PUBLIC "-//W3C//DTD SVG 20010904//EN"
 "http://www.w3.org/TR/2001/REC-SVG-20010904/DTD/svg10.dtd">
<svg version="1.0" xmlns="http://www.w3.org/2000/svg"
 width="852.000000pt" height="1280.000000pt" viewBox="0 0 852.000000 1280.000000"
 preserveAspectRatio="xMidYMid meet">
<metadata>
Created by potrace 1.15, written by Peter Selinger 2001-2017
</metadata>
<g transform="translate(0.000000,1280.000000) scale(0.100000,-0.100000)"
fill="#000000" stroke="none">
<path d="M3161 12774 c-11 -14 -30 -69 -41 -122 -34 -150 -164 -708 -209 -892
-107 -442 -174 -723 -216 -910 -25 -113 -71 -308 -101 -435 -31 -126 -82 -344
-113 -483 -32 -139 -61 -255 -64 -259 -13 -12 -195 47 -286 93 -18 9 -68 20
-111 25 -42 4 -96 13 -121 19 -24 7 -56 12 -72 12 -20 -1 -31 7 -42 28 -18 35
-52 60 -72 53 -8 -3 -26 6 -41 19 -15 14 -62 49 -105 78 -80 54 -260 204 -332
276 -22 22 -93 99 -159 172 -65 73 -145 153 -177 179 l-60 47 3 80 c3 72 5 81
21 78 24 -4 44 14 124 115 74 93 104 117 139 109 18 -5 44 8 114 56 l91 63
107 3 c73 2 125 -2 162 -12 48 -13 57 -13 70 0 12 12 11 16 -8 34 -12 12 -22
23 -22 27 0 12 157 -10 191 -28 39 -19 81 -68 118 -135 14 -25 37 -48 58 -58
49 -24 55 -10 11 27 -20 18 -45 50 -56 72 -11 22 -42 61 -69 87 -43 42 -55 48
-113 57 -36 6 -79 15 -96 20 -19 5 -37 5 -48 -1 -12 -7 -21 -7 -29 1 -6 6 -15
11 -19 11 -12 0 -10 -38 2 -45 25 -16 2 -20 -107 -21 -131 0 -227 -22 -295
-69 -20 -14 -46 -25 -56 -25 -39 0 -146 -105 -209 -203 -22 -36 -27 -38 -58
-33 -41 8 -50 -4 -64 -94 -6 -34 -13 -65 -15 -68 -3 -3 -38 9 -78 25 -124 52
-360 121 -434 128 -77 8 -99 1 -146 -43 -27 -25 -60 -110 -73 -187 -3 -22 -16
-60 -28 -85 -20 -42 -22 -59 -21 -230 1 -166 4 -195 28 -284 29 -107 65 -189
150 -336 53 -91 166 -354 166 -385 0 -8 -4 -15 -10 -15 -13 0 -13 -61 0 -94 5
-14 20 -36 32 -48 20 -20 23 -34 24 -103 0 -62 7 -100 32 -172 18 -51 32 -109
32 -129 0 -73 32 -251 59 -331 20 -59 49 -111 101 -185 83 -116 119 -158 135
-158 6 0 41 -60 77 -132 36 -73 108 -197 161 -276 88 -130 127 -211 127 -262
0 -8 7 -26 16 -38 8 -12 12 -27 9 -33 -14 -22 -35 -146 -35 -205 0 -62 11 -82
52 -97 16 -6 16 -9 3 -34 -17 -32 -20 -83 -5 -83 13 0 29 31 38 77 8 41 26 50
95 52 45 1 49 -7 39 -74 l-7 -50 -97 -15 c-76 -12 -102 -20 -122 -39 -31 -29
-68 -140 -85 -250 -13 -82 -25 -104 -51 -96 -9 3 -22 0 -27 -7 -18 -24 -113
-349 -142 -486 -24 -115 -13 -235 28 -302 5 -8 14 -27 21 -42 15 -32 10 -46
-123 -308 -46 -91 -92 -196 -103 -233 l-19 -68 -175 -136 c-328 -256 -351
-287 -288 -390 14 -23 31 -36 60 -44 47 -12 30 -22 418 250 300 210 303 212
311 204 4 -5 11 -60 17 -123 8 -85 8 -118 -1 -128 -11 -14 -17 -28 -55 -135
-34 -93 -45 -207 -32 -305 16 -108 7 -186 -31 -270 -80 -177 -89 -208 -124
-451 -19 -130 -48 -315 -65 -411 -38 -227 -66 -434 -79 -590 -6 -69 -16 -183
-23 -255 -29 -314 -6 -850 52 -1200 34 -206 46 -378 42 -596 -2 -90 -5 -108
-22 -127 -25 -27 -25 -52 1 -96 34 -58 89 -57 89 3 1 37 16 8 25 -47 8 -49 27
-62 54 -37 16 13 17 22 10 48 -9 33 1 54 21 42 7 -4 9 -26 4 -67 -6 -56 -5
-61 11 -54 10 3 24 1 32 -5 22 -19 24 -7 11 76 -9 60 -16 79 -30 83 -29 7 -21
30 14 37 18 3 71 19 118 34 279 93 342 112 405 119 82 10 255 4 272 -10 19
-15 20 1 12 127 -11 172 -11 300 1 364 31 169 65 552 75 830 4 127 9 167 21
178 17 17 12 63 -10 98 -9 14 -15 89 -19 233 -5 215 4 280 17 110 4 -51 11
-122 17 -158 5 -36 11 -94 13 -130 5 -95 42 -358 137 -975 14 -95 19 -171 17
-280 -1 -98 2 -157 10 -171 16 -30 -8 -101 -56 -166 -53 -71 -72 -110 -72
-151 0 -18 -6 -42 -14 -52 -13 -18 -18 -18 -48 -7 -50 18 -144 15 -216 -7 -65
-20 -163 -85 -182 -121 -15 -28 -3 -25 38 12 49 42 145 84 225 98 64 11 68 11
118 -16 85 -47 130 -127 77 -139 -13 -2 -80 -14 -149 -25 -130 -21 -200 -24
-279 -12 -39 6 -47 12 -63 45 -9 20 -20 37 -23 37 -4 0 -21 -16 -38 -35 l-32
-34 -34 17 c-25 13 -36 27 -44 56 -6 22 -17 41 -25 44 -11 4 -13 -4 -7 -39 15
-93 25 -115 75 -157 27 -23 52 -42 55 -42 3 0 6 11 6 24 0 14 4 28 10 31 5 3
10 22 10 41 0 56 17 39 23 -24 3 -31 11 -70 17 -87 12 -28 13 -29 22 -9 9 19
14 20 81 11 142 -17 347 5 347 37 0 8 9 16 20 19 11 3 20 10 20 16 0 16 -88
14 -167 -5 -51 -12 -94 -15 -173 -10 -57 3 -108 10 -112 14 -5 5 49 8 119 9
103 0 141 4 193 21 36 12 111 27 168 34 62 7 102 17 102 24 0 13 -28 38 -52
47 -20 7 -36 56 -21 66 5 3 20 27 33 54 22 44 50 68 35 29 -15 -38 -17 -119
-4 -143 12 -21 15 -5 30 151 10 96 15 177 13 179 -6 7 -34 -67 -34 -91 0 -13
-5 -30 -10 -38 -8 -12 -10 -9 -10 13 0 16 -5 27 -14 27 -19 0 -27 -25 -17 -52
6 -17 2 -36 -15 -70 -14 -27 -29 -48 -34 -48 -13 0 -13 1 3 85 16 81 25 101
78 171 22 28 47 75 57 103 10 29 21 52 25 52 4 -1 18 -1 32 -1 16 0 25 -6 25
-15 0 -8 4 -15 9 -15 15 0 43 84 39 116 -3 26 -7 29 -42 32 -21 2 -45 1 -54
-3 -14 -5 -14 -7 -2 -15 8 -6 27 -10 43 -10 21 0 27 -5 27 -22 0 -13 -5 -30
-10 -38 -8 -13 -10 -13 -10 2 0 10 -11 19 -30 23 -16 4 -33 12 -37 18 -12 20
-12 106 0 114 7 4 64 8 127 9 186 2 425 51 592 122 210 89 216 89 255 11 33
-65 30 -73 -34 -102 -122 -54 -203 -79 -219 -66 -8 6 -14 18 -14 26 0 31 -27
4 -70 -71 -41 -70 -47 -76 -72 -71 -19 5 -32 0 -48 -17 l-22 -23 6 38 c4 21
10 45 13 54 4 11 2 14 -8 11 -7 -2 -23 -28 -34 -57 -20 -53 -42 -67 -37 -23 4
26 -6 28 -34 7 -26 -20 -32 -19 -36 7 -4 26 -26 35 -34 14 -17 -45 31 -96 91
-96 14 0 25 -4 25 -10 0 -21 28 -9 34 14 6 25 7 25 36 8 16 -9 30 -23 30 -29
0 -31 20 -7 66 78 61 113 78 129 53 49 -20 -64 -25 -140 -10 -140 5 0 29 12
55 26 25 14 46 22 46 16 0 -5 -12 -14 -27 -21 -40 -18 -10 -33 32 -15 26 10
56 11 146 4 63 -5 115 -10 117 -10 2 0 1 -13 -3 -30 -4 -18 -3 -30 3 -30 12 0
61 102 69 145 6 29 6 30 -14 12 -24 -21 -81 -23 -89 -3 -3 8 10 34 28 59 18
24 41 58 50 76 18 33 25 36 47 22 10 -6 11 -13 2 -29 -6 -11 -11 -30 -11 -42
0 -23 30 -80 42 -80 4 0 12 27 19 60 16 80 23 86 109 71 38 -6 85 -11 105 -11
29 0 45 -8 71 -34 19 -19 34 -39 34 -45 0 -20 -51 -32 -175 -43 -189 -15 -183
-14 -191 -53 -9 -49 0 -65 17 -30 14 29 17 30 119 42 58 6 127 12 153 12 54 1
92 19 121 58 22 29 15 51 -33 105 l-31 35 -179 5 c-148 4 -184 8 -206 22 -30
20 -58 79 -75 159 -9 45 -15 56 -32 59 -19 3 -27 22 -60 143 -75 275 -97 364
-114 474 -16 101 -17 128 -5 294 7 100 23 254 36 342 38 253 86 772 106 1162
10 185 10 395 1 1030 -15 960 -22 1093 -73 1463 -29 215 -117 598 -163 711
-19 48 -23 71 -19 119 6 62 -12 110 -41 110 -10 0 -15 35 -20 148 -4 81 -16
189 -27 242 -63 295 -75 411 -62 605 7 106 10 120 26 120 10 0 22 7 27 15 8
13 10 13 14 0 16 -46 148 -632 227 -1005 16 -77 45 -207 64 -290 19 -82 62
-271 94 -420 33 -148 105 -472 161 -720 56 -247 108 -481 116 -520 13 -61 105
-456 164 -700 10 -44 23 -108 29 -142 13 -80 30 -117 58 -121 27 -4 30 7 37
148 6 123 23 188 107 411 188 502 278 929 325 1539 17 229 15 740 -5 940 -6
52 -15 154 -21 225 -6 72 -25 211 -42 310 -18 99 -32 200 -32 225 -1 42 0 44
34 51 42 9 73 44 66 75 -4 13 0 27 9 34 8 7 15 21 15 31 0 10 14 34 30 52 25
29 30 43 30 88 0 67 8 99 25 99 7 0 34 -9 59 -20 l46 -19 11 20 c7 14 7 25 1
31 -21 21 -278 168 -294 168 -23 0 -23 32 -3 155 8 50 19 182 25 295 19 394
-21 902 -116 1480 -19 113 -106 496 -135 595 -57 189 -225 676 -338 974 -72
191 -101 317 -112 496 -5 83 -11 156 -14 163 -7 19 -22 14 -44 -14z m61 -444
c17 -58 74 -224 126 -370 204 -572 279 -825 353 -1190 65 -314 76 -384 99
-595 11 -110 27 -254 35 -320 22 -185 37 -533 30 -710 -7 -194 -23 -357 -35
-369 -6 -6 -19 -5 -33 1 -22 11 -23 13 -15 99 4 49 12 143 17 209 l10 120 -5
-140 c-5 -158 9 -174 26 -30 18 162 10 575 -11 575 -5 0 -10 -71 -10 -157 l-2
-158 -8 110 c-25 341 -32 418 -54 600 -37 303 -159 947 -224 1185 -39 140 -46
193 -15 100 39 -114 80 -283 129 -525 52 -258 121 -644 131 -730 10 -88 23
-103 24 -25 0 100 -48 405 -121 765 -78 384 -135 578 -339 1150 -80 223 -151
474 -149 525 1 20 2 21 6 5 3 -11 18 -67 35 -125z m-97 53 c10 -86 178 -676
255 -898 58 -167 135 -496 195 -830 13 -77 36 -198 49 -270 26 -136 74 -505
102 -780 13 -128 15 -220 10 -460 -6 -320 -11 -384 -30 -391 -7 -3 -64 26
-127 63 -63 37 -245 142 -405 233 -160 92 -311 181 -336 198 -63 43 -202 193
-254 274 -23 36 -59 79 -78 95 -46 36 -46 54 -2 231 19 75 64 268 101 427 168
739 200 876 255 1105 65 269 198 848 226 978 10 45 21 82 25 82 3 0 10 -26 14
-57z m-2696 -1584 c47 -16 113 -37 145 -45 109 -28 201 -80 311 -175 118 -102
198 -187 225 -240 11 -20 39 -52 62 -70 24 -19 80 -69 126 -111 46 -43 122
-106 169 -140 47 -35 104 -77 126 -93 85 -62 128 -186 98 -278 -13 -38 -91
-117 -116 -117 -9 0 -38 11 -65 25 -27 14 -84 39 -127 56 -43 17 -82 34 -88
39 -5 4 -57 33 -114 65 -112 61 -194 94 -288 119 -84 21 -229 85 -316 140 -41
25 -105 78 -143 117 -38 39 -93 94 -121 122 -29 27 -69 74 -90 104 -39 56 -53
65 -53 33 0 -40 41 -106 88 -142 51 -39 100 -88 88 -88 -4 0 -30 16 -59 35
-28 19 -56 35 -61 35 -20 0 57 -68 102 -90 26 -13 73 -47 105 -76 110 -102
162 -132 332 -195 l100 -37 0 -123 c0 -104 -4 -136 -24 -197 -32 -98 -83 -168
-146 -201 -43 -23 -50 -31 -53 -59 -3 -24 -10 -35 -28 -43 -80 -30 -213 12
-240 77 -22 53 -11 51 31 -6 29 -40 42 -50 66 -50 16 0 29 4 29 8 0 5 -23 47
-51 93 -29 46 -74 133 -101 193 -26 60 -71 148 -98 195 -72 125 -155 313 -181
411 -18 70 -22 113 -23 245 -1 145 1 163 20 195 13 22 23 60 26 97 6 83 50
171 98 196 45 23 122 15 239 -24z m1315 -1065 c1 -71 -3 -87 -29 -140 -25 -49
-41 -65 -90 -95 -33 -20 -66 -34 -74 -31 -9 3 1 11 24 19 49 17 76 42 108 101
37 68 52 157 38 221 -15 70 -13 83 6 41 10 -21 16 -66 17 -116z m216 26 c152
-32 159 -39 50 -39 -101 -1 -160 10 -185 35 -22 22 -18 37 8 32 12 -3 69 -15
127 -28z m-1023 -11 c-3 -11 7 -36 24 -59 27 -37 28 -42 14 -56 -19 -19 -19
-26 0 -97 8 -32 15 -77 15 -100 0 -23 4 -49 10 -57 7 -11 11 -8 21 15 9 23 9
46 -1 100 -7 39 -15 82 -17 98 -7 34 14 36 23 2 6 -25 18 -32 28 -17 10 16
-14 79 -45 122 -17 23 -28 44 -26 47 6 6 62 -21 162 -80 44 -26 133 -71 199
-101 81 -37 122 -62 130 -78 6 -13 27 -31 47 -41 30 -14 44 -15 90 -7 52 10
54 10 77 -20 30 -38 129 -93 207 -115 33 -10 107 -38 165 -63 l105 -45 65 12
c79 15 88 15 123 2 24 -9 27 -16 27 -56 0 -40 81 -450 160 -805 32 -145 35
-170 21 -170 -24 0 -41 47 -41 110 0 58 -12 103 -23 90 -2 -3 -9 -129 -16
-280 -13 -319 -8 -387 45 -640 37 -182 59 -440 37 -453 -23 -15 -252 -20 -317
-7 -46 9 -71 9 -78 2 -11 -11 1 -16 63 -26 49 -9 57 -20 60 -91 l2 -60 -64 3
c-35 1 -70 5 -76 7 -9 3 -13 28 -13 79 0 41 -4 77 -9 80 -13 8 -19 -12 -26
-91 -11 -104 -5 -111 102 -116 89 -5 190 -21 202 -32 3 -4 6 -53 7 -111 0 -57
3 -106 6 -110 22 -22 39 114 24 194 -8 41 -7 42 21 43 15 1 43 1 61 0 30 -2
32 -1 31 31 0 18 -4 59 -8 92 -9 69 9 104 47 92 27 -9 36 -42 29 -102 -3 -29
2 -66 15 -107 32 -104 106 -416 127 -543 26 -155 57 -452 71 -684 6 -102 13
-198 16 -215 2 -16 8 -325 13 -685 9 -600 7 -756 -14 -1270 -10 -264 -56 -791
-85 -980 -30 -198 -52 -484 -45 -580 14 -182 35 -280 99 -473 36 -106 61 -195
57 -200 -4 -4 -43 -21 -87 -37 -43 -16 -117 -43 -163 -60 -133 -49 -306 -81
-471 -87 -118 -5 -148 -3 -157 9 -7 7 -24 112 -38 231 -14 120 -34 264 -45
320 -10 56 -34 219 -54 362 -38 272 -45 323 -70 470 -8 50 -20 176 -27 280
l-11 190 31 185 c16 102 35 217 41 255 6 39 28 135 50 215 21 80 51 210 65
290 15 80 49 236 76 348 27 112 49 212 49 224 0 12 3 18 6 15 18 -17 35 -273
40 -567 5 -380 9 -430 31 -430 14 0 15 41 10 392 -6 387 -19 603 -38 623 -6 6
-15 10 -22 10 -14 0 -14 18 1 155 32 278 93 594 157 805 66 219 91 323 115
483 21 139 21 167 0 146 -10 -10 -21 -63 -50 -244 -7 -41 -32 -136 -55 -210
-105 -331 -155 -568 -205 -965 -27 -213 -34 -248 -85 -470 -25 -104 -61 -264
-81 -355 -19 -91 -51 -210 -69 -265 -33 -99 -48 -182 -60 -325 -4 -41 -22
-157 -41 -257 l-34 -182 0 -518 c0 -370 -4 -570 -15 -698 -14 -178 -48 -458
-60 -508 -4 -14 -10 -68 -13 -119 l-7 -93 -35 5 c-77 11 -307 3 -381 -13 -70
-15 -215 -58 -366 -108 -81 -27 -114 -23 -125 16 -4 16 -12 101 -18 189 -9
152 -23 272 -55 476 -46 293 -54 475 -35 821 19 336 62 760 94 934 9 44 22
136 31 205 9 69 22 154 30 190 7 36 16 97 20 135 12 120 33 193 121 413 47
117 84 221 81 230 -2 12 -9 6 -22 -21 -16 -32 -20 -35 -26 -20 -14 33 -10 227
5 279 8 27 20 75 26 107 6 31 15 57 19 57 4 0 23 -142 43 -315 39 -348 44
-365 102 -365 54 0 185 38 217 62 28 22 29 26 23 83 -3 33 -16 132 -29 220
-13 88 -26 232 -29 320 -4 88 -15 210 -25 270 -19 106 -29 240 -20 250 3 2 19
-69 37 -158 27 -135 32 -184 32 -296 0 -111 3 -138 17 -153 22 -24 42 -23 47
5 3 12 7 67 10 122 3 55 13 136 23 180 13 56 18 123 18 225 0 138 -2 150 -33
242 -19 54 -38 100 -43 103 -15 10 -10 -39 11 -100 23 -68 26 -97 7 -89 -11 4
-13 -13 -10 -83 l3 -88 -14 50 c-8 28 -17 63 -20 79 -5 19 -10 26 -17 19 -7
-7 -5 -44 5 -109 21 -142 23 -164 16 -164 -10 0 -58 211 -72 317 -12 98 -3
159 30 196 36 40 96 7 130 -70 17 -41 50 -162 67 -253 l5 -25 -15 25 c-18 31
-17 52 -16 -265 0 -237 -8 -324 -25 -267 -11 36 -21 25 -27 -30 -8 -61 -4 -67
22 -44 14 13 28 16 50 11 26 -5 32 -3 45 23 8 16 22 32 31 35 18 8 20 40 3 70
-9 15 -13 86 -13 232 -1 194 -3 217 -27 301 -21 78 -23 93 -12 109 8 10 15 17
15 14 1 -2 6 -38 13 -79 10 -66 14 -75 33 -78 17 -3 24 3 29 23 9 37 -2 123
-21 151 -14 22 -13 24 5 34 17 9 20 8 20 -14 0 -13 15 -44 33 -68 26 -34 39
-43 63 -43 27 0 29 2 28 37 -1 23 -13 56 -34 88 -26 41 -31 56 -26 85 6 31 24
46 189 161 100 70 189 128 197 130 59 11 69 16 77 37 4 12 8 32 8 44 0 36 177
157 319 218 209 91 236 104 236 114 0 5 -11 23 -25 40 -20 23 -23 32 -13 40 7
6 26 21 42 34 17 14 26 29 22 35 -9 15 -35 3 -96 -47 -50 -41 -150 -104 -156
-99 -3 4 83 77 131 111 19 13 24 24 19 41 -4 17 2 29 25 49 17 14 31 28 31 31
0 13 -55 5 -72 -10 -17 -16 -19 -15 -43 8 l-26 26 31 25 c16 14 30 32 30 41 0
30 -23 27 -59 -8 -20 -20 -40 -36 -44 -36 -4 0 -7 14 -7 30 0 17 -4 30 -8 30
-4 0 -46 -46 -92 -101 -110 -132 -113 -136 -102 -143 5 -3 21 11 36 32 14 20
46 58 72 82 46 45 46 45 29 12 -22 -44 -12 -52 23 -19 28 27 52 35 52 18 0
-15 -120 -125 -165 -151 -39 -22 -125 -91 -237 -189 -39 -34 -48 -51 -25 -51
18 0 273 197 347 268 76 74 100 90 100 68 0 -25 -60 -85 -141 -142 -42 -30
-79 -61 -82 -68 -6 -15 -214 -176 -228 -176 -4 0 -17 16 -30 36 -19 32 -20 38
-8 48 8 6 53 40 99 75 127 96 162 131 129 131 -12 0 -123 -78 -200 -142 -26
-21 -53 -38 -61 -38 -7 0 -22 13 -31 29 -10 17 -27 33 -38 36 -22 7 -69 -18
-70 -38 0 -16 -99 -79 -114 -73 -7 2 -27 31 -45 63 -18 32 -54 83 -80 113 -26
31 -75 103 -110 160 -34 58 -77 123 -95 145 -24 30 -31 45 -24 57 5 8 13 74
18 145 6 71 13 137 17 146 8 22 52 22 82 1 12 -8 27 -12 32 -9 15 9 13 222 -2
228 -7 3 25 5 72 6 47 0 94 -4 105 -9 14 -6 3 -9 -41 -9 -33 -1 -68 -7 -78
-14 -19 -14 -39 -132 -29 -179 5 -26 9 -28 52 -28 48 0 224 -21 351 -41 41 -7
83 -19 93 -27 32 -28 39 -3 29 112 -6 69 -14 112 -23 122 -15 14 -82 29 -180
39 -44 5 -58 10 -62 24 -6 24 -39 29 -217 37 -116 5 -164 3 -240 -11 -145 -27
-174 -29 -189 -11 -16 19 -10 121 13 216 33 137 66 296 66 319 0 43 -18 10
-40 -74 -12 -44 -25 -91 -29 -105 -8 -29 -26 -25 -25 5 0 11 4 62 8 113 6 64
5 92 -3 92 -6 0 -13 -11 -17 -25 -3 -14 -9 -25 -13 -24 -7 0 -140 188 -200
284 -25 38 -73 131 -107 205 -35 74 -75 150 -90 168 -34 44 -52 30 -30 -23 9
-21 14 -40 12 -42 -2 -3 -31 35 -64 84 -82 122 -129 267 -152 470 -6 51 -19
112 -30 137 -40 94 -51 146 -38 188 l11 38 72 0 c117 0 234 52 298 134 45 57
31 62 -26 9 -59 -56 -93 -78 -101 -64 -9 14 4 41 20 41 29 0 95 74 129 144 41
85 65 197 65 304 0 43 3 81 6 85 12 12 36 -6 31 -24z m1094 -95 c-18 -8 -47
-17 -65 -20 -26 -4 -24 -2 14 15 25 10 54 19 65 19 14 0 9 -4 -14 -14z m183
10 c9 -3 14 -10 11 -14 -2 -4 28 -6 68 -4 39 1 62 1 50 -2 -32 -7 -29 -24 4
-24 21 0 24 -3 15 -12 -9 -9 -8 -16 4 -29 14 -15 12 -16 -28 -8 -61 12 -208
11 -208 -1 0 -5 10 -12 23 -14 301 -60 292 -57 291 -86 -1 -37 -14 -70 -27
-70 -7 0 -37 7 -67 15 -30 8 -70 15 -87 15 -18 0 -33 3 -33 6 0 10 44 43 58
44 17 0 15 20 -2 20 -7 0 -32 -7 -55 -15 -46 -16 -56 -5 -13 15 57 28 -8 22
-106 -10 -53 -17 -103 -33 -110 -36 -7 -2 -11 0 -8 5 3 4 39 20 81 36 41 15
75 29 75 32 0 2 -38 1 -85 -3 -47 -4 -85 -4 -85 -2 0 3 27 15 60 27 33 12 60
26 60 32 0 13 -8 12 -91 -16 -68 -23 -75 -17 -19 15 8 5 11 12 7 16 -4 4 -28
-2 -53 -14 -25 -12 -50 -20 -55 -16 -5 3 -21 -2 -35 -11 -25 -16 -25 -16 -15
4 6 11 8 26 5 34 -6 17 34 30 69 22 12 -3 74 8 137 24 122 32 139 35 164 25z
m301 -164 c12 -19 -12 -10 -31 11 -19 22 -19 22 3 10 12 -6 25 -16 28 -21z
m-724 -42 c30 -12 72 -34 94 -48 69 -46 147 -86 233 -120 48 -19 82 -38 82
-46 0 -8 -7 -14 -15 -14 -24 0 -108 31 -135 50 -14 9 -59 30 -100 45 -100 37
-166 71 -212 108 -64 52 -40 63 53 25z m878 -81 c19 -21 32 -40 29 -42 -5 -5
-93 38 -114 56 -8 6 -14 27 -14 46 l0 35 33 -29 c17 -15 47 -45 66 -66z m-582
57 c-3 -3 -12 -4 -19 -1 -8 3 -5 6 6 6 11 1 17 -2 13 -5z m78 -43 c-12 -12
-65 -25 -65 -17 0 8 39 24 60 25 9 1 10 -2 5 -8z m75 -11 c0 -5 -8 -10 -17
-10 -15 0 -16 2 -3 10 19 12 20 12 20 0z m80 -20 c0 -10 -52 -40 -70 -40 -18
0 -11 15 18 32 30 20 52 23 52 8z m500 -145 c96 -56 202 -117 235 -135 107
-59 315 -182 315 -186 0 -8 -120 57 -590 321 -221 123 -222 124 -214 136 3 6
20 1 42 -12 21 -12 116 -67 212 -124z m-432 113 c-3 -7 -20 -14 -39 -16 -32
-2 -33 -1 -15 13 24 18 59 20 54 3z m159 -24 c-3 -3 -12 -4 -19 -1 -8 3 -5 6
6 6 11 1 17 -2 13 -5z m43 -70 c0 -2 -9 -4 -20 -4 -11 0 -20 4 -20 9 0 5 9 7
20 4 11 -3 20 -7 20 -9z m86 -55 c60 -11 119 -22 130 -24 12 -2 129 -63 260
-135 303 -168 504 -279 572 -315 28 -16 52 -31 52 -35 0 -4 -28 -11 -61 -14
-77 -9 -97 -21 -109 -68 -6 -20 -26 -55 -45 -78 -19 -23 -35 -50 -35 -60 0
-29 -12 -31 -104 -21 -102 12 -151 36 -266 129 -34 27 -62 42 -80 42 -38 0
-47 -18 -16 -30 14 -5 26 -14 26 -20 0 -14 -32 -12 -55 4 -28 18 -136 58 -143
51 -10 -10 27 -41 65 -54 60 -21 162 -81 178 -104 30 -43 47 -125 40 -192 -8
-76 -54 -160 -102 -188 -51 -29 -152 -31 -253 -5 l-85 23 -17 70 c-27 106
-128 574 -128 591 0 7 6 14 14 14 8 0 27 17 44 37 l29 36 61 -76 c36 -46 70
-101 83 -137 23 -63 44 -89 59 -74 12 12 -21 110 -53 160 -14 22 -48 66 -76
98 -37 44 -49 65 -45 81 4 15 -7 39 -34 79 -22 31 -52 86 -68 122 l-28 65 30
24 c16 14 34 24 40 25 6 0 60 -9 120 -21z m-233 2 c20 -8 25 -18 30 -57 3 -27
25 -87 52 -141 43 -87 46 -97 35 -124 -16 -37 -68 -77 -75 -57 -4 13 -85 376
-85 384 0 7 17 5 43 -5z m1251 -468 c-10 -3 -194 95 -194 103 0 3 46 -19 102
-47 56 -29 97 -54 92 -56z m88 -31 c-2 -12 1 -22 7 -22 5 0 3 -13 -5 -30 -28
-55 -43 -28 -28 49 7 35 31 37 26 3z m-102 -80 c0 -5 -16 -16 -35 -25 -35 -17
-47 -37 -21 -37 7 0 31 6 52 14 32 11 45 11 74 0 19 -7 76 -13 126 -13 96 -1
119 -11 112 -47 -5 -30 -28 -27 -39 5 -15 44 -37 40 -35 -6 1 -36 -1 -39 -41
-51 -32 -10 -51 -26 -77 -63 -23 -32 -53 -57 -86 -74 -28 -14 -53 -34 -57 -43
-3 -9 -11 -31 -19 -49 -8 -17 -14 -36 -14 -42 0 -14 17 -14 25 -1 12 19 25 -1
25 -39 0 -48 -35 -84 -76 -79 -25 2 -28 7 -25 28 2 14 4 77 5 140 1 136 -10
174 -60 195 -39 16 -43 34 -14 60 11 10 31 42 45 71 17 36 32 54 47 57 41 8
88 7 88 -1z m340 -166 c0 -16 -21 -26 -56 -26 -32 0 -30 14 4 27 38 15 52 15
52 -1z m-815 -56 c25 -55 40 -63 32 -16 -8 51 10 36 24 -20 15 -59 34 -58 25
2 -7 57 7 50 40 -20 l25 -51 -5 52 c-4 42 -2 51 9 46 8 -3 20 -23 25 -44 13
-46 30 -51 30 -9 0 34 15 40 25 10 8 -25 25 -26 25 -2 0 14 4 12 20 -8 16 -20
20 -22 20 -7 0 44 36 2 50 -60 14 -60 -17 -176 -53 -195 -20 -10 -20 -9 1 25
28 45 29 87 2 87 -10 0 -23 -7 -28 -16 -8 -14 -10 -14 -22 1 -12 14 -18 12
-57 -27 -42 -41 -58 -43 -28 -4 16 22 20 56 6 56 -5 0 -17 -12 -26 -27 -24
-38 -66 -83 -90 -95 -19 -10 -19 -10 -5 8 8 10 27 34 42 52 16 18 28 37 28 42
0 17 -22 11 -46 -11 l-21 -20 4 25 c7 33 -12 34 -44 4 l-23 -21 0 28 0 28 -26
-24 c-24 -22 -26 -22 -21 -4 24 85 30 119 29 183 0 39 4 72 8 72 4 0 15 -18
25 -40z m818 -36 c-2 -21 -9 -45 -17 -53 -13 -12 -21 -11 -62 9 -27 12 -59 26
-71 31 -52 20 -17 47 67 51 87 5 85 6 83 -38z m-143 -49 c27 -14 56 -25 63
-25 34 0 38 -26 11 -66 -16 -23 -22 -40 -15 -42 8 -3 8 -10 -1 -25 -26 -51
-53 -49 -117 9 -74 66 -69 94 9 54 45 -23 50 -24 50 -10 0 5 -18 21 -40 35
-50 31 -58 50 -35 75 10 11 20 20 22 20 2 0 26 -11 53 -25z m-130 -59 c0 -3
-4 -8 -10 -11 -5 -3 -10 -1 -10 4 0 6 5 11 10 11 6 0 10 -2 10 -4z m-635 -66
c-4 -12 -9 -19 -12 -17 -3 3 -2 15 2 27 4 12 9 19 12 17 3 -3 2 -15 -2 -27z
m-370 -156 c28 -7 66 -16 86 -19 24 -4 38 -12 42 -24 6 -24 50 -32 112 -19 58
11 49 11 140 2 56 -5 86 -2 148 15 42 11 105 21 140 21 44 0 70 6 91 19 23 15
35 17 63 9 19 -5 51 -8 71 -6 l37 3 8 -60 c5 -33 19 -136 33 -230 24 -165 58
-647 71 -995 6 -184 -9 -540 -32 -730 -8 -69 -20 -168 -26 -220 -29 -267 -77
-490 -209 -965 -21 -77 -46 -177 -56 -223 -9 -46 -20 -79 -24 -75 -4 4 -23 82
-43 173 -20 91 -64 284 -97 430 -82 357 -355 1581 -390 1750 -16 74 -78 358
-139 630 -61 272 -111 506 -111 519 0 18 4 22 18 16 9 -4 40 -14 67 -21z
m1079 -155 c68 -357 116 -941 102 -1229 -4 -69 -9 -168 -12 -220 -10 -194 -35
-444 -59 -573 -13 -72 -33 -184 -45 -247 -29 -158 -76 -334 -164 -605 -85
-266 -134 -434 -146 -502 l-8 -48 -1 40 c-1 50 45 245 116 490 151 517 221
1011 230 1630 7 435 -15 777 -73 1160 -24 161 -27 192 -15 174 19 -29 81 -435
102 -674 6 -66 14 -237 18 -379 4 -186 9 -260 18 -263 22 -8 26 91 14 385 -12
305 -37 543 -86 798 -28 147 -30 163 -15 148 6 -6 17 -44 24 -85z m-2419 -806
c-3 -16 -13 -66 -20 -112 -8 -46 -17 -86 -21 -90 -12 -11 2 183 14 207 18 32
36 28 27 -5z m89 1 c12 -4 16 -20 16 -56 0 -70 -11 -85 -54 -80 -35 4 -36 6
-36 44 0 40 14 77 34 90 14 9 20 10 40 2z m361 -34 c50 -6 111 -15 138 -21
l47 -11 0 -74 c0 -83 4 -80 -81 -64 -30 6 -116 17 -192 26 -77 8 -147 19 -158
24 -20 11 -23 36 -13 88 5 27 11 31 43 35 72 7 128 7 216 -3z m661 -104 c14
-76 -23 -116 -108 -116 -58 0 -68 15 -68 94 l0 56 85 0 84 0 7 -34z m-1196
-42 c0 -9 -9 -18 -20 -21 -17 -4 -20 -14 -20 -58 0 -29 -7 -69 -15 -88 -8 -20
-15 -48 -15 -62 0 -16 6 -25 15 -25 8 0 15 9 15 20 0 11 7 37 16 58 9 20 17
60 18 87 1 29 5 48 11 45 13 -7 11 -77 -5 -177 -14 -80 -24 -95 -47 -72 -15
15 -43 4 -43 -16 0 -8 16 -25 35 -37 19 -13 35 -27 35 -32 0 -5 -8 -2 -17 7
-17 14 -42 21 -70 18 -11 -1 -63 -100 -63 -121 0 -11 -133 -385 -155 -435 -7
-16 -32 -73 -54 -125 -44 -101 -58 -127 -63 -120 -2 3 -14 37 -26 75 -27 86
-28 154 -2 248 11 39 28 110 39 157 31 131 57 220 67 229 5 5 26 14 47 21 47
15 49 34 2 28 -47 -5 -40 15 8 23 21 3 40 8 43 11 3 3 10 36 15 73 15 111 37
205 56 244 15 29 26 38 63 48 69 18 130 16 130 -3z m37 -231 c-3 -10 -5 -2 -5
17 0 19 2 27 5 18 2 -10 2 -26 0 -35z m-41 -246 c16 -23 41 -56 53 -74 l24
-31 -28 -76 c-15 -42 -33 -80 -40 -86 -9 -7 -24 0 -55 28 l-44 38 18 65 c10
35 24 83 33 106 13 35 13 46 3 58 -7 8 -9 15 -4 15 5 -1 23 -20 40 -43z m125
-84 c100 -139 122 -173 117 -179 -10 -10 -133 156 -192 260 -45 77 -16 46 75
-81z m1089 -9 c-91 -93 -181 -167 -191 -157 -6 6 22 35 83 84 51 41 97 83 103
94 21 42 27 47 38 36 8 -8 -1 -24 -33 -57z m-1338 -59 c13 -29 -45 -157 -70
-153 -20 3 -52 -58 -103 -192 -33 -88 -128 -275 -135 -267 -4 4 42 116 94 227
52 112 101 232 127 310 15 47 35 98 43 115 l15 30 10 -25 c5 -14 14 -34 19
-45z m1458 -39 c0 -4 -184 -95 -250 -123 -48 -21 -34 -8 73 64 75 50 100 62
135 62 23 1 42 -1 42 -3z m-1099 -128 c46 -56 87 -107 92 -114 4 -8 -8 -24
-34 -45 -51 -40 -52 -39 -113 106 -44 106 -56 155 -37 155 4 0 46 -46 92 -102z
m-288 20 c15 -23 27 -51 27 -63 0 -12 5 -26 11 -32 7 -7 13 -31 15 -55 3 -24
11 -48 19 -54 9 -6 13 -19 9 -27 -4 -12 16 -27 85 -61 55 -28 92 -42 96 -35 4
5 2 15 -3 22 -14 17 -18 61 -7 67 11 6 72 -131 77 -174 3 -27 1 -28 -41 -32
-55 -5 -59 -9 -36 -34 25 -28 9 -25 -27 5 -33 28 -53 33 -44 10 21 -51 21 -49
-14 -29 -31 18 -69 80 -70 114 0 8 -14 50 -30 92 -17 43 -40 117 -51 165 -11
49 -32 107 -45 130 -32 55 -7 47 29 -9z m387 -50 c17 -32 28 -58 23 -58 -4 0
-27 24 -50 54 -32 40 -39 56 -30 65 14 14 17 10 57 -61z m-410 -36 c7 -31 27
-102 45 -157 38 -117 48 -182 32 -195 -21 -18 -116 -80 -122 -80 -10 0 -5 60
10 117 14 52 14 61 -1 91 -12 26 -14 51 -10 110 12 143 17 182 26 177 5 -3 14
-31 20 -63z m1090 53 c0 -2 -15 -12 -32 -20 l-33 -16 24 21 c22 19 41 26 41
15z m-450 -25 c0 -5 -61 -60 -135 -122 -152 -126 -166 -160 -19 -46 124 96
175 129 187 121 12 -8 -20 -35 -165 -145 -98 -73 -123 -98 -100 -98 5 0 71 45
147 100 125 91 159 111 141 81 -4 -6 -65 -54 -136 -107 -72 -53 -130 -103
-130 -111 0 -19 7 -14 152 93 95 69 128 88 113 64 -4 -6 -42 -35 -85 -66 -148
-103 -205 -167 -170 -189 11 -7 57 22 226 143 98 69 124 82 124 63 0 -11 -327
-242 -352 -249 -15 -3 -18 2 -18 29 0 45 -22 124 -49 176 l-21 43 32 35 c45
47 230 194 246 195 6 0 12 -4 12 -10z m-715 -139 c-5 -78 -12 -131 -18 -131
-11 0 -4 221 9 253 13 36 16 5 9 -122z m1035 74 c-31 -23 -50 -31 -50 -21 0 6
64 46 74 46 6 0 -5 -11 -24 -25z m-75 -55 c-3 -5 -10 -10 -16 -10 -5 0 -9 5
-9 10 0 6 7 10 16 10 8 0 12 -4 9 -10z m-1031 -271 l-18 -177 -57 -46 c-31
-25 -58 -46 -60 -46 -2 0 -3 54 -2 120 1 132 1 131 112 315 32 53 36 57 40 35
2 -14 -5 -104 -15 -201z m70 24 c-10 -115 -15 -144 -30 -150 -8 -3 -17 -3 -20
0 -6 6 14 185 22 199 3 4 11 8 19 8 10 0 12 -13 9 -57z m204 -103 c-2 -8 -11
-16 -21 -18 -18 -4 -23 21 -10 54 6 16 7 15 20 -2 7 -10 12 -25 11 -34z m87
-31 c26 -33 45 -62 43 -65 -8 -7 -98 94 -98 111 0 8 2 15 4 15 1 0 24 -27 51
-61z m-250 -55 c-33 -30 -127 -107 -210 -171 -82 -64 -190 -149 -240 -188 -49
-39 -153 -121 -230 -181 -195 -152 -315 -253 -315 -264 0 -6 8 -10 18 -10 13
0 17 -8 17 -32 0 -28 4 -33 22 -32 28 1 21 -12 -19 -32 -28 -15 -31 -14 -52 5
-13 12 -28 37 -33 56 l-11 35 142 113 c77 62 224 179 326 259 102 81 286 228
409 327 123 100 227 178 230 175 3 -3 -21 -30 -54 -60z m-272 -16 c9 -82 -8
-120 -79 -177 -35 -28 -66 -51 -69 -51 -13 0 -1 33 51 139 76 159 88 169 97
89z m633 15 c-7 -7 -26 7 -26 19 0 6 6 6 15 -2 9 -7 13 -15 11 -17z m-96 -84
c0 -6 -4 -7 -10 -4 -5 3 -10 11 -10 16 0 6 5 7 10 4 6 -3 10 -11 10 -16z m179
-39 c1 -13 0 -13 -9 0 -5 8 -9 24 -9 35 l0 20 9 -20 c5 -11 9 -27 9 -35z
m-485 -1 c-31 -34 -299 -237 -644 -487 l-35 -26 25 26 c14 14 126 103 250 197
124 95 266 203 315 241 90 70 125 89 89 49z m396 -54 c0 -8 -2 -15 -4 -15 -2
0 -6 7 -10 15 -3 8 -1 15 4 15 6 0 10 -7 10 -15z m-422 -119 c-21 -18 -116
-85 -210 -148 -95 -64 -251 -171 -347 -237 -95 -67 -175 -120 -178 -118 -5 5
78 66 302 222 94 66 212 151 264 190 127 96 172 125 191 125 9 -1 1 -13 -22
-34z m52 -275 c7 -93 9 -181 3 -225 l-8 -71 -6 95 c-17 258 -21 370 -14 386
10 22 9 34 25 -185z m43 14 c24 -141 29 -244 16 -337 -11 -84 -12 -85 -35 -74
-28 13 -28 18 -10 71 29 83 29 287 0 425 -4 16 -2 21 4 15 5 -5 17 -50 25
-100z m-125 8 c10 -8 11 -13 4 -13 -7 0 -12 -7 -12 -15 0 -8 7 -15 16 -15 10
0 12 -5 7 -12 -4 -7 -8 -44 -9 -83 -1 -81 -34 -170 -66 -181 -29 -9 -33 1 -9
25 25 25 26 31 6 31 -22 0 -18 21 5 27 28 7 25 23 -5 23 -31 0 -32 16 -2 42
l22 19 -32 -5 c-38 -6 -42 3 -13 29 26 24 25 35 -2 35 -21 1 -20 3 12 30 31
27 32 30 12 30 -31 0 -28 14 10 45 24 20 33 24 36 14 2 -8 11 -20 20 -26z m12
-313 c-17 -32 -22 -18 -8 21 8 22 13 28 16 17 2 -9 -2 -27 -8 -38z m-70 -49
c0 -12 -20 -25 -27 -18 -7 7 6 27 18 27 5 0 9 -4 9 -9z m75 -31 c10 -11 23
-20 29 -20 15 0 37 -48 25 -56 -11 -6 0 -56 14 -66 7 -4 7 -11 0 -20 -12 -15
-5 -78 8 -78 5 0 6 -18 3 -40 -5 -31 -3 -41 10 -46 12 -5 13 -10 5 -25 -7 -15
-6 -21 6 -25 44 -17 -10 -47 -88 -48 -59 -1 -69 10 -29 30 39 19 38 26 0 19
-45 -9 -50 4 -12 34 l27 21 -32 0 c-40 0 -40 15 2 41 l32 20 -37 -7 c-51 -9
-50 13 2 50 l25 17 -40 -6 -40 -6 35 30 34 31 -32 0 c-24 0 -30 3 -25 16 3 8
17 20 32 26 l26 11 -30 6 -30 6 22 16 c29 20 19 31 -14 18 -14 -5 -28 -7 -31
-4 -8 7 29 45 43 45 7 0 15 7 19 15 7 20 19 19 41 -5z m1895 -3609 c0 -25 -42
-99 -59 -104 -15 -4 -21 -15 -23 -47 l-3 -42 -85 -2 c-50 -1 -98 3 -117 11
-18 7 -39 10 -47 7 -11 -4 -16 0 -16 11 0 9 10 19 23 23 21 5 55 22 217 111
73 39 110 50 110 32z m-1472 -198 c63 -7 67 -14 77 -109 l7 -70 -144 0 -143 1
-170 -57 c-318 -106 -395 -123 -459 -99 -21 8 -27 22 -41 87 -20 86 -16 94 42
94 18 0 36 6 40 13 4 8 31 19 58 25 28 6 95 27 150 47 159 57 242 73 395 74
74 0 159 -2 188 -6z m1441 -39 c2 -2 -32 -4 -77 -4 -47 0 -82 4 -82 10 0 9
148 3 159 -6z m-2319 -370 c0 -8 -4 -14 -10 -14 -5 0 -10 9 -10 21 0 11 5 17
10 14 6 -3 10 -13 10 -21z"/>
<path d="M1104 9615 c-4 -9 13 -58 39 -113 45 -95 69 -188 82 -307 6 -63 -4
-110 -46 -218 -21 -55 -21 -59 -5 -75 16 -16 19 -15 52 20 19 21 34 45 34 53
0 20 -6 19 -30 -7 -26 -29 -26 -7 1 52 28 61 34 142 19 253 -14 107 -49 220
-91 294 -35 60 -47 71 -55 48z"/>
<path d="M927 9503 c-3 -5 -8 -35 -12 -68 -15 -137 -73 -263 -159 -344 -40
-39 -46 -61 -17 -61 49 0 166 192 195 320 13 59 20 114 17 148 -1 13 -17 16
-24 5z"/>
<path d="M1295 9450 c-7 -12 1 -78 16 -127 13 -41 40 -43 67 -6 10 14 23 23
29 20 5 -3 33 -52 61 -109 68 -133 87 -221 112 -525 11 -130 22 -239 25 -242
3 -2 11 1 17 7 9 9 7 58 -6 204 -31 336 -65 506 -115 576 -15 20 -40 60 -55
89 -36 65 -51 72 -76 31 -21 -36 -25 -31 -38 41 -7 44 -24 62 -37 41z"/>
<path d="M1113 9258 c-5 -7 -18 -37 -27 -67 -45 -142 -141 -268 -239 -314 -39
-19 -114 -22 -165 -8 -37 11 -65 5 -59 -13 2 -6 26 -19 53 -29 57 -22 104 -18
168 12 50 25 152 121 193 182 16 23 36 53 46 68 l19 26 -7 -39 c-3 -21 -17
-75 -30 -120 -23 -78 -24 -96 -5 -96 21 0 93 298 88 364 -3 41 -18 56 -35 34z"/>
<path d="M1416 9198 c-3 -18 -8 -64 -12 -103 -10 -119 -81 -359 -180 -615 -17
-45 -18 -80 -1 -80 28 0 169 423 207 623 22 114 23 198 3 204 -7 3 -14 -9 -17
-29z"/>
<path d="M1321 9048 c-27 -90 -83 -209 -170 -363 -95 -166 -117 -216 -107
-240 10 -26 25 -16 36 23 10 37 38 90 142 277 97 172 159 345 126 345 -9 0
-20 -18 -27 -42z"/>
<path d="M460 9070 c0 -24 31 -68 75 -109 45 -41 50 -43 96 -39 51 5 137 50
192 101 49 45 23 43 -61 -7 -126 -74 -154 -71 -242 18 -44 46 -60 55 -60 36z"/>
<path d="M530 8871 c0 -15 103 -133 155 -179 56 -49 159 -92 221 -92 66 0 52
21 -25 36 -84 17 -146 59 -238 160 -67 74 -113 104 -113 75z"/>
<path d="M1239 8293 c-27 -70 -61 -226 -66 -303 -5 -77 -3 -87 16 -104 17 -16
25 -17 49 -7 16 7 46 30 68 52 21 21 42 39 46 39 19 0 -9 -247 -52 -454 -42
-204 -17 -242 29 -43 40 171 62 325 64 445 2 121 -8 127 -89 53 -31 -28 -64
-51 -75 -51 -17 0 -19 7 -19 58 0 52 17 164 39 252 20 78 21 90 11 90 -6 0
-15 -12 -21 -27z"/>
<path d="M2630 6078 c0 -22 17 -41 29 -34 19 12 13 46 -9 46 -11 0 -20 -6 -20
-12z"/>
<path d="M2630 5996 c0 -8 7 -57 14 -108 8 -51 25 -194 38 -318 21 -211 22
-271 22 -950 1 -670 -15 -1541 -32 -1755 -9 -117 -4 -485 7 -485 11 0 19 99
31 370 6 118 14 296 20 395 13 248 33 1392 26 1490 -4 44 -11 224 -16 400 -14
440 -44 835 -71 938 -9 36 -39 53 -39 23z"/>
<path d="M2017 5200 c-3 -8 -15 -62 -27 -120 -81 -401 -332 -1379 -374 -1460
-13 -25 -40 -76 -60 -114 -56 -107 -45 -139 33 -100 30 15 31 17 16 34 -15 16
-15 21 -1 55 9 20 25 49 36 65 30 42 62 142 131 405 33 127 73 280 89 340 16
61 41 164 55 230 13 66 35 172 49 235 45 212 81 498 53 430z"/>
<path d="M1619 3256 c-101 -36 -382 -219 -377 -245 8 -43 90 -2 236 116 30 24
58 43 62 43 23 0 161 73 157 83 -5 17 -37 18 -78 3z"/>
<path d="M1179 3072 c-92 -76 -266 -244 -349 -337 -46 -52 -90 -95 -97 -95 -9
0 -11 10 -7 33 l6 32 -26 -28 c-31 -34 -34 -73 -6 -82 34 -11 57 4 115 75 31
38 139 150 241 249 101 99 184 183 184 186 0 12 -18 3 -61 -33z"/>
<path d="M1828 3007 c-11 -27 15 -182 58 -357 53 -216 123 -403 194 -515 78
-124 90 -163 94 -328 4 -121 9 -162 39 -277 35 -137 110 -344 129 -356 5 -3
14 -2 20 4 7 7 -1 39 -25 98 -88 227 -128 413 -125 576 l3 113 -48 99 c-26 54
-55 110 -66 125 -26 37 -118 250 -141 324 -46 153 -109 424 -110 469 0 29 -15
46 -22 25z"/>
<path d="M1426 2948 c-24 -78 -62 -273 -85 -434 -28 -188 -28 -562 -1 -994 11
-173 20 -323 20 -332 0 -10 6 -18 14 -18 21 0 24 117 8 285 -9 91 -15 291 -16
570 -1 470 0 481 71 828 19 90 23 131 16 138 -8 8 -16 -5 -27 -43z"/>
<path d="M791 1711 c-18 -11 -5 -31 20 -31 30 0 90 -34 125 -72 43 -45 141
-198 158 -245 46 -131 173 -323 213 -323 23 0 14 20 -32 77 -25 30 -61 85 -81
122 -100 184 -209 369 -233 394 -50 55 -141 97 -170 78z"/>
<path d="M2355 1500 c-7 -11 12 -50 25 -50 4 0 10 5 12 12 8 23 73 -30 181
-146 100 -107 175 -166 211 -166 29 0 17 17 -34 50 -28 18 -96 82 -153 142
-121 131 -219 195 -242 158z"/>
<path d="M2075 9620 l-20 -9 20 1 c11 0 31 4 45 8 l25 8 -25 0 c-14 0 -34 -3
-45 -8z"/>
<path d="M2302 9472 c-20 -6 -31 -21 -17 -23 15 -2 66 14 70 22 7 10 -18 10
-53 1z"/>
<path d="M3842 6066 c-1 -5 -16 -103 -32 -217 -17 -115 -39 -252 -50 -305 -11
-54 -18 -99 -15 -102 24 -24 112 480 102 588 -2 25 -4 41 -5 36z"/>
<path d="M1376 5801 c-7 -10 109 -91 130 -91 23 0 16 8 -43 48 -79 53 -81 54
-87 43z"/>
<path d="M1543 11153 c-18 -7 -16 -23 2 -23 8 0 15 -9 15 -20 0 -13 9 -22 25
-26 19 -5 24 -11 20 -25 -5 -14 -1 -19 13 -19 11 0 42 -11 69 -25 51 -27 100
-36 105 -21 2 5 -16 16 -40 24 -29 9 -64 35 -106 78 -60 61 -75 69 -103 57z"/>
<path d="M1851 10984 c7 -9 32 -29 55 -44 54 -38 99 -110 129 -207 28 -90 28
-86 17 -79 -11 7 -72 -31 -72 -44 0 -5 14 -10 31 -10 19 0 41 -9 55 -22 23
-23 33 -58 15 -58 -5 0 -23 8 -40 18 -26 14 -33 15 -40 3 -12 -19 -2 -51 28
-86 19 -22 32 -56 45 -115 16 -78 31 -140 57 -245 6 -22 7 -70 4 -107 -6 -62
-5 -72 20 -114 24 -41 25 -49 15 -75 -16 -38 -7 -46 19 -20 26 26 26 51 1 101
-16 31 -20 59 -20 128 0 49 -5 103 -11 121 -10 29 -9 34 15 56 42 39 32 81
-45 178 -52 66 -52 67 14 81 30 7 28 26 -3 26 -28 0 -32 14 -15 55 13 30 14
42 3 73 -7 20 -20 48 -30 61 -10 13 -18 29 -18 36 0 38 -45 147 -79 192 l-40
52 35 7 c19 3 33 11 31 18 -6 17 -62 19 -76 2 -11 -14 -17 -12 -49 9 -43 29
-72 34 -51 9z m301 -711 c26 -24 23 -41 -7 -35 -18 3 -25 11 -25 28 0 28 7 30
32 7z"/>
<path d="M1360 10934 c-22 -10 -36 -11 -38 -4 -7 19 -67 10 -121 -17 -66 -32
-178 -134 -167 -152 5 -8 25 7 63 45 60 61 146 107 189 102 23 -3 20 -7 -38
-45 -65 -43 -130 -103 -111 -103 7 0 45 22 85 49 72 47 193 100 204 88 3 -3
-26 -22 -64 -41 -39 -20 -74 -41 -78 -47 -9 -15 27 -4 91 29 28 14 68 31 89
37 22 7 41 16 43 21 5 14 -61 54 -88 54 -13 -1 -40 -8 -59 -16z"/>
<path d="M1841 10876 c-9 -11 -3 -15 35 -21 53 -8 68 0 40 21 -25 18 -60 18
-75 0z"/>
<path d="M1837 10824 c-13 -14 6 -24 44 -24 40 0 52 13 23 24 -21 8 -59 8 -67
0z"/>
<path d="M1830 10740 c-19 -17 -43 -37 -53 -46 -10 -8 -16 -21 -13 -29 9 -25
-46 -25 -77 1 -29 24 -47 31 -47 17 0 -5 24 -34 54 -65 39 -43 60 -58 80 -58
29 0 33 9 14 29 -10 11 -10 14 -1 18 7 2 15 21 19 41 9 50 50 91 92 92 34 0
43 14 16 24 -29 11 -49 6 -84 -24z"/>
<path d="M1540 10714 c-45 -15 -90 -38 -90 -47 0 -5 8 -6 18 -2 9 3 30 9 46
12 26 5 27 4 18 -14 -14 -26 -93 -90 -126 -102 -19 -8 -29 -23 -40 -62 -19
-62 -20 -95 -5 -105 15 -9 29 14 29 49 0 15 6 40 14 55 15 28 176 188 211 209
18 10 15 12 -20 12 -22 0 -47 -3 -55 -5z"/>
<path d="M1561 10644 c-11 -8 -21 -23 -21 -32 0 -12 3 -13 12 -4 19 19 42 14
68 -13 23 -24 50 -33 50 -17 0 16 -32 53 -59 67 -25 12 -31 12 -50 -1z"/>
<path d="M1574 10548 c-12 -18 -9 -91 6 -142 15 -53 63 -97 83 -77 9 9 6 13
-11 17 -13 4 -19 11 -15 18 4 6 8 27 8 46 1 19 5 49 9 65 13 51 -55 113 -80
73z m50 -51 c8 -13 7 -20 -4 -27 -20 -12 -30 -3 -30 26 0 28 17 28 34 1z"/>
<path d="M1740 10526 c0 -17 49 -31 63 -17 15 15 -2 31 -34 31 -18 0 -29 -5
-29 -14z"/>
<path d="M1513 10457 c7 -72 32 -154 55 -180 21 -23 8 -33 -20 -15 -34 22 -75
105 -83 166 -4 32 -11 50 -17 46 -16 -10 -3 -115 21 -162 26 -50 83 -96 111
-89 14 3 26 -3 40 -21 12 -14 34 -34 51 -44 27 -17 30 -17 36 -2 8 22 -8 47
-34 54 -21 5 -80 76 -107 129 -13 23 -35 132 -36 174 0 4 -5 7 -11 7 -8 0 -10
-19 -6 -63z"/>
<path d="M1706 9992 c-3 -5 19 -19 48 -31 29 -12 77 -42 105 -66 50 -42 95
-64 107 -52 3 3 -9 13 -28 23 -18 9 -54 37 -81 61 -62 58 -136 89 -151 65z"/>
<path d="M6780 7555 c-487 -83 -891 -395 -1072 -827 -81 -192 -113 -380 -105
-608 9 -227 46 -378 143 -575 95 -194 254 -376 432 -496 45 -30 81 -60 82 -67
0 -7 -6 -23 -14 -35 -13 -21 -149 -369 -338 -867 -48 -129 -86 -240 -83 -248
3 -9 10 -10 22 -4 11 7 21 6 31 -4 12 -12 20 -9 55 20 50 40 132 80 150 73 7
-3 28 3 47 13 26 13 38 15 52 7 13 -9 27 -6 63 11 43 21 45 21 45 2 0 -22 11
-32 26 -22 15 10 57 102 51 109 -4 3 -32 -9 -63 -27 -52 -29 -59 -31 -69 -16
-16 21 -24 20 -52 -6 -20 -19 -27 -20 -44 -10 -16 10 -25 9 -49 -3 -16 -8 -35
-13 -42 -10 -8 3 -27 -8 -43 -25 -38 -40 -61 -41 -41 -1 8 15 63 151 121 302
58 151 112 283 119 294 7 11 30 67 51 125 21 58 52 135 70 172 28 57 31 69 19
79 -13 10 -20 39 -10 39 2 0 33 -13 68 -28 172 -77 313 -110 521 -119 l147 -6
0 -26 c0 -14 7 -120 15 -236 21 -307 27 -275 -50 -313 -37 -18 -63 -37 -60
-42 9 -15 18 -13 68 21 26 17 51 28 57 24 5 -3 10 -32 10 -63 -1 -48 -5 -62
-30 -91 -33 -39 -29 -63 5 -31 16 15 30 20 44 15 29 -9 42 46 30 127 -5 35
-15 149 -23 253 -12 170 -9 222 10 203 5 -6 20 -193 40 -494 l7 -102 -32 -16
c-28 -15 -42 -36 -24 -36 21 0 182 77 218 104 22 17 114 63 203 101 142 60
186 85 152 85 -15 0 -160 -59 -215 -87 -27 -14 -85 -41 -127 -59 -42 -18 -86
-42 -97 -53 -30 -30 -43 -26 -39 11 3 32 5 33 98 62 104 32 106 33 97 43 -4 3
-39 -4 -79 -16 -88 -25 -128 -27 -128 -5 0 9 26 27 68 46 76 34 78 35 69 45
-4 4 -34 -6 -67 -22 -33 -16 -63 -26 -66 -22 -4 3 -10 62 -15 129 -4 68 -13
196 -19 286 -7 90 -10 166 -7 168 3 3 55 18 116 34 92 24 150 44 277 96 6 3
23 -28 39 -73 15 -43 73 -186 130 -318 121 -285 140 -333 132 -342 -4 -3 -38
-9 -77 -12 -61 -6 -103 -22 -89 -35 2 -2 44 2 93 8 l89 12 22 -50 c39 -88 39
-93 8 -99 -36 -8 -60 -24 -50 -33 4 -4 24 0 43 10 20 9 39 15 41 12 3 -3 20
-39 38 -81 38 -86 51 -105 73 -105 22 0 10 53 -33 152 -69 155 -137 313 -165
383 -15 39 -44 108 -65 155 -20 47 -52 125 -70 173 -28 74 -31 89 -18 94 24 9
39 -15 81 -132 21 -60 94 -247 161 -415 67 -168 130 -325 140 -349 21 -54 41
-65 41 -23 0 16 7 35 15 42 8 7 15 19 15 26 0 8 6 14 14 14 8 0 24 9 37 20
l24 21 -45 -6 c-50 -7 -45 1 22 39 55 31 15 29 -56 -3 -65 -29 -66 -29 -77 -9
-13 25 -50 130 -47 134 8 7 185 54 225 59 88 11 93 14 93 40 0 28 -21 33 -40
11 -6 -8 -37 -20 -68 -27 -31 -6 -93 -22 -136 -36 -91 -29 -91 -29 -122 56
-104 281 -270 699 -286 718 -17 21 -3 38 80 97 232 163 413 410 505 687 54
163 62 221 61 444 0 198 -1 202 -37 337 -65 245 -179 447 -355 630 -203 210
-464 346 -757 393 -108 18 -322 18 -425 0z m475 -47 c111 -22 262 -75 345
-121 205 -114 342 -236 475 -422 180 -252 270 -571 244 -870 -30 -353 -134
-587 -380 -852 -163 -175 -435 -321 -709 -380 -107 -23 -399 -25 -505 -4 -101
20 -265 75 -353 119 -289 143 -535 412 -647 707 -65 171 -77 237 -82 440 -4
168 -2 202 17 295 39 193 113 371 221 534 55 83 198 233 290 303 301 230 709
325 1084 251z m-1011 -2747 c3 -5 -35 -107 -85 -227 -50 -121 -118 -283 -150
-361 -54 -133 -137 -313 -123 -268 21 66 282 751 312 818 20 45 35 57 46 38z
m1884 -792 c-2 -3 3 -13 11 -22 11 -15 11 -17 -2 -17 -8 0 -18 7 -21 16 -9 24
-7 36 5 32 6 -2 9 -6 7 -9z"/>
<path d="M6860 7494 c-516 -64 -940 -399 -1109 -877 -211 -599 17 -1240 553
-1556 172 -101 357 -161 562 -181 289 -29 633 68 884 250 36 25 79 55 96 66
63 38 237 267 301 396 94 189 137 375 137 588 0 224 -39 392 -134 585 -184
371 -518 632 -914 711 -72 14 -312 26 -376 18z m100 -64 c14 -26 30 -26 30 2
0 20 3 21 94 15 117 -8 186 -23 202 -45 10 -13 15 -14 27 -4 12 10 27 8 81
-12 91 -35 217 -99 301 -154 85 -56 244 -212 309 -304 95 -135 206 -394 206
-482 0 -16 5 -45 12 -63 9 -25 9 -38 1 -51 -8 -14 -7 -24 3 -43 14 -25 19
-160 7 -173 -5 -4 -6 -34 -5 -67 3 -50 1 -59 -13 -59 -14 0 -15 -7 -9 -47 6
-44 6 -47 -10 -34 -24 20 -31 6 -16 -38 15 -46 6 -88 -16 -70 -19 16 -29 -12
-14 -40 8 -15 8 -27 0 -42 -10 -17 -14 -18 -27 -7 -14 12 -15 8 -10 -32 8 -54
-3 -80 -27 -61 -14 12 -16 8 -16 -36 0 -54 -15 -80 -37 -62 -10 9 -13 6 -13
-15 0 -35 -17 -66 -35 -66 -8 0 -18 -15 -23 -32 -7 -25 -14 -32 -30 -31 -17 2
-22 -4 -28 -33 -5 -28 -10 -34 -27 -32 -15 2 -26 -7 -41 -35 -13 -25 -25 -36
-36 -32 -11 3 -19 -4 -27 -25 -9 -24 -17 -30 -40 -30 -21 0 -33 -8 -46 -30
-22 -36 -34 -38 -39 -7 -3 19 -6 17 -33 -22 -32 -47 -55 -63 -55 -37 0 25 -14
19 -33 -14 -25 -41 -57 -58 -72 -37 -10 14 -14 13 -34 -13 -25 -35 -56 -41
-46 -10 9 30 -11 24 -35 -9 -24 -34 -59 -49 -70 -31 -6 10 -15 8 -38 -9 -35
-25 -52 -27 -52 -6 0 21 -7 19 -42 -10 -28 -24 -63 -26 -39 -2 6 6 11 15 11
19 0 15 -18 8 -48 -17 -34 -28 -65 -34 -56 -10 8 19 -15 19 -40 0 -21 -16 -58
-20 -70 -8 -4 4 -23 6 -42 4 -20 -1 -34 2 -34 9 0 7 -12 9 -35 4 -22 -4 -41
-2 -50 6 -8 6 -23 9 -34 5 -12 -3 -23 0 -28 9 -5 9 -22 13 -47 12 -32 -1 -42
4 -51 21 -9 17 -15 19 -29 11 -23 -13 -66 5 -66 27 0 11 -7 13 -29 9 -23 -5
-35 -1 -56 20 -14 14 -36 26 -49 26 -30 0 -90 45 -96 73 -4 15 -15 24 -36 27
-16 3 -46 18 -67 34 -29 22 -37 35 -35 55 3 23 0 26 -23 23 -22 -2 -36 10 -84
70 -247 310 -333 664 -255 1050 80 389 325 710 675 883 136 67 206 90 343 115
145 25 179 25 192 0z"/>
<path d="M6860 7406 c0 -9 5 -16 10 -16 6 0 10 4 10 9 0 6 -4 13 -10 16 -5 3
-10 -1 -10 -9z"/>
<path d="M7126 7401 c-4 -5 -2 -12 3 -15 5 -4 12 -2 15 3 4 5 2 12 -3 15 -5 4
-12 2 -15 -3z"/>
<path d="M7020 7390 c0 -5 7 -10 15 -10 8 0 15 5 15 10 0 6 -7 10 -15 10 -8 0
-15 -4 -15 -10z"/>
<path d="M6706 7382 c-3 -6 -1 -14 5 -17 15 -10 25 3 12 16 -7 7 -13 7 -17 1z"/>
<path d="M7205 7360 c3 -5 10 -10 16 -10 5 0 9 5 9 10 0 6 -7 10 -16 10 -8 0
-12 -4 -9 -10z"/>
<path d="M6607 7334 c-8 -8 1 -24 14 -24 5 0 9 7 9 15 0 15 -12 20 -23 9z"/>
<path d="M6895 7320 c-3 -5 -1 -10 4 -10 6 0 11 5 11 10 0 6 -2 10 -4 10 -3 0
-8 -4 -11 -10z"/>
<path d="M7475 7290 c-3 -5 -1 -10 4 -10 6 0 11 5 11 10 0 6 -2 10 -4 10 -3 0
-8 -4 -11 -10z"/>
<path d="M6805 7176 c-91 -18 -150 -39 -260 -90 -109 -52 -189 -111 -282 -209
-130 -137 -203 -267 -250 -447 -24 -93 -27 -123 -27 -255 1 -178 25 -287 97
-438 126 -263 382 -466 678 -534 112 -26 349 -23 452 5 428 117 732 477 763
902 19 248 -82 551 -248 751 -62 75 -219 193 -314 237 -168 77 -438 111 -609
78z m392 -52 c105 -21 195 -57 278 -109 77 -49 187 -144 168 -145 -7 0 -30 15
-50 33 -102 90 -259 170 -386 197 -116 25 -306 27 -392 5 -126 -33 -224 -66
-240 -81 -21 -21 -9 -37 17 -23 36 19 161 59 231 74 157 34 385 9 528 -57 98
-46 208 -117 242 -158 43 -51 24 -47 -43 9 -33 28 -116 78 -183 111 -132 66
-231 90 -367 90 -166 -1 -400 -63 -400 -106 0 -12 5 -14 18 -9 185 79 357 102
537 70 144 -25 425 -186 425 -243 0 -21 -5 -19 -57 26 -89 76 -164 120 -265
153 -131 43 -246 56 -361 40 -139 -18 -277 -64 -277 -91 0 -14 13 -12 68 9 77
31 205 51 317 51 114 0 228 -27 340 -79 73 -34 165 -105 165 -128 0 -9 13 -31
29 -48 125 -131 210 -347 211 -535 0 -85 -36 -283 -61 -332 -21 -41 -24 -58
-9 -58 16 0 56 80 87 170 25 76 28 99 28 215 0 81 -5 148 -14 178 -8 26 -11
50 -8 53 3 4 14 -20 24 -52 27 -91 24 -293 -5 -403 -13 -46 -32 -101 -43 -122
-10 -21 -19 -48 -19 -60 0 -18 2 -20 16 -8 23 19 76 125 96 194 33 108 23 392
-17 506 -9 24 -11 39 -6 34 23 -23 71 -239 71 -322 0 -152 -16 -228 -72 -341
-48 -95 -55 -124 -28 -107 6 4 25 31 42 61 45 81 45 58 0 -32 -100 -199 -286
-371 -490 -454 -98 -40 -238 -70 -326 -70 -70 0 -76 2 -76 20 0 11 -6 22 -12
24 -7 2 -57 13 -111 24 -119 26 -292 98 -365 153 -115 87 -222 219 -296 367
-42 82 -76 252 -76 374 0 57 4 118 9 135 10 34 0 52 -16 30 -19 -23 -24 -69
-24 -199 0 -98 5 -150 21 -216 23 -93 89 -243 140 -318 16 -25 25 -42 19 -38
-22 13 -100 144 -129 217 -102 256 -99 498 10 761 116 278 380 491 689 556
111 24 295 26 398 4z m508 -534 c25 -49 45 -94 45 -102 0 -7 -20 23 -43 67
-23 45 -59 104 -79 133 -21 29 -38 55 -38 60 2 20 75 -81 115 -158z m55 59
c43 -82 33 -85 -12 -4 -20 36 -33 65 -29 65 5 0 23 -27 41 -61z m-1460 -1134
c19 -19 32 -35 29 -35 -3 0 -20 16 -39 35 -19 19 -32 35 -29 35 3 0 20 -16 39
-35z m400 -236 c19 -6 58 -17 85 -24 28 -7 42 -13 31 -14 -22 -1 -135 27 -156
40 -21 12 -2 11 40 -2z"/>
<path d="M6423 6931 c-81 -50 -220 -224 -284 -356 -55 -115 -61 -148 -27 -143
18 2 27 18 48 80 35 102 102 201 222 324 54 55 98 104 98 107 0 13 -25 7 -57
-12z"/>
<path d="M6835 6926 c-91 -21 -188 -63 -273 -119 l-76 -49 27 35 c31 41 33 47
11 47 -56 0 -272 -286 -285 -379 -7 -45 16 -31 43 27 15 31 34 66 42 77 9 11
1 -14 -18 -56 -19 -41 -44 -115 -56 -165 -19 -76 -22 -107 -18 -209 5 -113 5
-118 -9 -85 -12 28 -14 63 -10 170 3 74 7 144 9 155 6 36 -24 21 -41 -20 -22
-57 -21 -293 2 -355 19 -51 21 -70 8 -70 -22 0 -43 145 -42 285 1 77 2 148 4
157 5 35 -19 11 -35 -37 -23 -65 -24 -230 -2 -328 21 -89 80 -237 125 -312 19
-31 77 -98 129 -149 74 -72 115 -102 185 -138 186 -95 417 -140 392 -75 -3 9
-31 19 -73 26 -168 30 -318 96 -419 187 -47 42 -44 41 46 -19 188 -126 459
-196 459 -119 0 15 15 19 100 30 180 21 307 82 442 211 160 152 237 346 225
571 -16 324 -223 593 -532 690 -89 28 -272 36 -360 16z m363 -61 c196 -62 380
-244 447 -443 55 -163 53 -324 -5 -485 -39 -107 -96 -191 -185 -276 -129 -122
-289 -183 -480 -183 -137 0 -193 13 -311 72 -136 68 -231 156 -296 271 -182
327 -96 717 207 934 192 137 413 176 623 110z m-738 -138 c0 -2 -14 -16 -32
-33 l-31 -29 22 33 c18 26 41 42 41 29z m-201 -772 l0 -20 -9 20 c-5 11 -9 27
-9 35 -1 13 0 13 9 0 5 -8 9 -24 9 -35z m-39 -88 c0 -5 -4 -5 -10 -2 -5 3 -10
14 -10 23 0 15 2 15 10 2 5 -8 10 -19 10 -23z m63 -119 c20 -29 51 -71 69 -93
l33 -40 -35 29 c-38 31 -60 60 -91 119 -27 52 -18 46 24 -15z"/>
<path d="M6890 6630 c-127 -27 -254 -133 -318 -267 -36 -76 -37 -81 -37 -194
0 -113 1 -116 38 -191 64 -130 194 -226 341 -251 133 -23 283 29 387 132 199
200 162 549 -74 702 -96 62 -234 90 -337 69z m-114 -210 c-40 -38 -74 -82 -93
-122 -29 -60 -30 -67 -23 -139 9 -86 18 -107 85 -197 36 -50 58 -69 103 -89
67 -31 141 -35 222 -10 51 15 137 73 126 84 -3 3 -29 -8 -58 -25 -29 -16 -81
-35 -114 -41 -56 -10 -69 -9 -129 10 -77 26 -117 66 -168 168 -46 95 -49 163
-8 246 29 58 86 123 99 111 2 -3 -12 -24 -33 -47 -54 -60 -69 -101 -62 -179
11 -126 56 -205 145 -257 39 -23 58 -28 108 -27 64 2 138 28 163 57 12 15 11
17 -6 17 -11 0 -34 -7 -52 -16 -17 -8 -37 -14 -44 -11 -6 2 6 12 28 21 22 9
53 29 68 44 24 23 31 25 47 14 17 -10 23 -9 40 8 27 27 31 25 23 -11 -6 -31
-5 -32 21 -25 22 5 27 4 24 -11 -2 -13 3 -17 20 -16 33 4 28 -9 -29 -71 -36
-39 -74 -67 -127 -93 -71 -35 -82 -38 -166 -38 -65 0 -105 5 -139 19 -63 24
-53 33 13 11 101 -34 270 -1 344 66 40 37 24 36 -60 -2 -38 -17 -101 -35 -144
-41 -67 -9 -81 -8 -131 11 -64 24 -127 74 -168 135 -67 98 -91 249 -51 331 22
47 28 54 102 123 79 72 101 66 24 -8z m-132 -49 c-19 -40 -39 -96 -45 -123
-24 -109 13 -235 98 -335 30 -36 53 -66 51 -69 -3 -2 -26 18 -52 44 -120 119
-154 296 -86 449 20 46 62 114 67 110 1 -2 -14 -36 -33 -76z m462 27 c60 -40
114 -125 114 -178 -1 -34 -1 -33 -19 19 -23 66 -46 98 -98 134 -53 38 -143 47
-207 23 -48 -18 -107 -84 -128 -143 -7 -18 -16 -33 -20 -33 -11 0 18 69 37 90
8 9 15 21 15 27 0 19 50 56 102 74 85 29 147 25 204 -13z m164 -118 c5 -19 10
-60 9 -90 l-1 -55 -13 71 c-14 77 -34 124 -74 169 -14 17 -4 10 22 -15 28 -26
51 -59 57 -80z m-215 71 c105 -47 143 -171 82 -262 -64 -95 -192 -114 -278
-42 -101 85 -67 251 61 307 47 20 87 19 135 -3z m267 -273 c-7 -7 -12 -8 -12
-2 0 14 12 26 19 19 2 -3 -1 -11 -7 -17z m-374 -115 c27 -4 40 -9 34 -15 -14
-14 -88 0 -104 20 -11 14 -10 15 7 8 10 -4 39 -10 63 -13z"/>
<path d="M6970 6175 c0 -9 5 -15 11 -13 6 2 11 8 11 13 0 5 -5 11 -11 13 -6 2
-11 -4 -11 -13z"/>
<path d="M6500 6499 c-61 -95 -93 -165 -105 -232 -13 -65 12 -41 35 35 24 80
55 145 107 227 19 29 32 55 29 58 -3 3 -32 -37 -66 -88z"/>
<path d="M6411 6535 c-33 -52 -65 -138 -59 -157 3 -7 14 8 26 32 45 96 72 163
68 168 -3 2 -19 -17 -35 -43z"/>
<path d="M6442 6861 c-108 -86 -272 -334 -272 -413 0 -48 21 -28 55 53 44 104
110 200 204 296 76 78 94 103 72 103 -5 0 -31 -18 -59 -39z"/>
<path d="M7570 5664 c-146 -147 -285 -220 -470 -243 -113 -15 -130 -19 -130
-33 0 -8 27 -9 95 -4 140 10 287 64 411 151 97 69 205 195 166 195 -4 0 -37
-30 -72 -66z"/>
<path d="M7615 5633 c-82 -90 -162 -151 -265 -203 -104 -52 -170 -72 -279 -84
-64 -8 -96 -16 -99 -25 -8 -23 157 -8 258 24 143 45 270 123 383 235 89 89
116 130 85 130 -7 0 -44 -35 -83 -77z"/>
<path d="M7630 5571 c-111 -113 -119 -119 -240 -179 -161 -79 -205 -92 -317
-99 -97 -6 -120 -13 -108 -33 10 -16 145 -7 230 15 33 9 123 46 200 84 125 60
150 77 229 152 84 79 146 152 146 171 0 23 -35 -5 -140 -111z"/>
<path d="M6050 6966 c0 -9 7 -16 16 -16 9 0 14 5 12 12 -6 18 -28 21 -28 4z"/>
<path d="M6060 6880 c0 -5 5 -10 10 -10 6 0 10 5 10 10 0 6 -4 10 -10 10 -5 0
-10 -4 -10 -10z"/>
<path d="M7980 6760 c0 -5 5 -10 11 -10 5 0 7 5 4 10 -3 6 -8 10 -11 10 -2 0
-4 -4 -4 -10z"/>
<path d="M5880 6634 c-48 -111 -106 -432 -83 -455 8 -8 14 14 22 78 23 169 41
262 65 339 29 90 26 110 -4 38z"/>
<path d="M5972 6616 c-22 -48 -82 -294 -93 -376 -10 -84 -5 -145 12 -134 5 3
9 38 9 77 0 72 31 239 69 376 21 77 23 99 3 57z"/>
<path d="M8046 6511 c-3 -5 1 -14 8 -20 16 -13 32 2 21 19 -8 12 -22 13 -29 1z"/>
<path d="M8077 6364 c-8 -8 1 -24 14 -24 5 0 9 7 9 15 0 15 -12 20 -23 9z"/>
<path d="M8160 6305 c0 -8 5 -15 10 -15 6 0 10 7 10 15 0 8 -4 15 -10 15 -5 0
-10 -7 -10 -15z"/>
<path d="M8116 6131 c-4 -7 -5 -15 -2 -18 9 -9 19 4 14 18 -4 11 -6 11 -12 0z"/>
<path d="M8050 6050 c0 -5 5 -10 10 -10 6 0 10 5 10 10 0 6 -4 10 -10 10 -5 0
-10 -4 -10 -10z"/>
<path d="M8020 5885 c0 -9 5 -15 11 -13 6 2 11 8 11 13 0 5 -5 11 -11 13 -6 2
-11 -4 -11 -13z"/>
<path d="M5820 5866 c0 -9 7 -16 16 -16 9 0 14 5 12 12 -6 18 -28 21 -28 4z"/>
<path d="M5950 5870 c0 -5 5 -10 10 -10 6 0 10 5 10 10 0 6 -4 10 -10 10 -5 0
-10 -4 -10 -10z"/>
<path d="M5832 5721 c2 -7 7 -12 11 -12 12 1 9 15 -3 20 -7 2 -11 -2 -8 -8z"/>
<path d="M5950 5710 c0 -5 7 -10 15 -10 8 0 15 5 15 10 0 6 -7 10 -15 10 -8 0
-15 -4 -15 -10z"/>
<path d="M7926 5662 c-3 -6 -1 -14 5 -17 15 -10 25 3 12 16 -7 7 -13 7 -17 1z"/>
<path d="M6000 5566 c0 -9 7 -16 16 -16 17 0 14 22 -4 28 -7 2 -12 -3 -12 -12z"/>
<path d="M6090 5489 c0 -5 5 -7 10 -4 6 3 10 8 10 11 0 2 -4 4 -10 4 -5 0 -10
-5 -10 -11z"/>
<path d="M6030 5446 c0 -9 5 -16 10 -16 6 0 10 4 10 9 0 6 -4 13 -10 16 -5 3
-10 -1 -10 -9z"/>
<path d="M6175 5420 c3 -5 8 -10 11 -10 2 0 4 5 4 10 0 6 -5 10 -11 10 -5 0
-7 -4 -4 -10z"/>
<path d="M7722 5349 c2 -6 8 -10 13 -10 5 0 11 4 13 10 2 6 -4 11 -13 11 -9 0
-15 -5 -13 -11z"/>
<path d="M7656 5271 c-4 -7 -5 -15 -2 -18 9 -9 19 4 14 18 -4 11 -6 11 -12 0z"/>
<path d="M6175 5261 c-7 -12 12 -24 25 -16 11 7 4 25 -10 25 -5 0 -11 -4 -15
-9z"/>
<path d="M7536 5262 c-3 -6 -1 -14 5 -17 15 -10 25 3 12 16 -7 7 -13 7 -17 1z"/>
<path d="M7550 5170 c0 -5 5 -10 10 -10 6 0 10 5 10 10 0 6 -4 10 -10 10 -5 0
-10 -4 -10 -10z"/>
<path d="M7436 5163 c-11 -11 -6 -23 9 -23 8 0 15 4 15 9 0 13 -16 22 -24 14z"/>
<path d="M6304 5149 c-3 -6 -2 -15 2 -19 12 -12 38 5 30 19 -9 14 -23 14 -32
0z"/>
<path d="M6360 5140 c0 -5 4 -10 9 -10 6 0 13 5 16 10 3 6 -1 10 -9 10 -9 0
-16 -4 -16 -10z"/>
<path d="M6650 5140 c0 -5 5 -10 11 -10 5 0 7 5 4 10 -3 6 -8 10 -11 10 -2 0
-4 -4 -4 -10z"/>
<path d="M7295 5101 c-3 -5 -1 -12 5 -16 12 -7 30 2 30 16 0 12 -27 12 -35 0z"/>
<path d="M7136 5082 c-3 -6 1 -15 8 -21 8 -7 17 -8 20 -3 3 6 -1 15 -8 21 -8
7 -17 8 -20 3z"/>
<path d="M4961 4660 c-40 -18 -67 -20 -330 -21 -284 -1 -420 -9 -391 -22 8 -4
222 -9 475 -11 253 -3 596 -6 762 -8 209 -2 305 0 313 8 15 15 -145 24 -437
24 -230 0 -234 0 -228 20 8 24 -3 25 -69 5 -63 -19 -90 -19 -53 1 55 30 23 33
-42 4z"/>
<path d="M5817 4644 c-12 -12 4 -24 32 -24 16 0 34 -7 41 -15 16 -20 40 -19
40 1 0 25 -94 57 -113 38z"/>
<path d="M5944 4629 c-10 -16 17 -30 46 -23 33 8 37 13 20 24 -21 13 -57 12
-66 -1z"/>
<path d="M7299 4629 c-20 -13 6 -29 48 -29 41 0 52 18 16 26 -15 3 -33 7 -39
9 -6 2 -17 -1 -25 -6z"/>
<path d="M7535 4630 c-4 -6 -3 -14 0 -20 9 -15 35 -12 35 4 0 17 -27 29 -35
16z"/>
<path d="M6338 4623 c-21 -2 -38 -8 -38 -14 0 -5 112 -9 280 -9 254 0 322 6
258 24 -24 6 -437 5 -500 -1z"/>
<path d="M7932 4578 c3 -7 13 -15 24 -17 16 -3 17 -1 5 13 -16 19 -34 21 -29
4z"/>
<path d="M6364 4566 c-10 -8 -16 -18 -11 -22 10 -10 59 8 65 24 5 17 -30 15
-54 -2z"/>
<path d="M8005 4550 c-3 -5 1 -10 9 -10 9 0 16 5 16 10 0 6 -4 10 -9 10 -6 0
-13 -4 -16 -10z"/>
<path d="M6249 4489 c-10 -6 -11 -11 -3 -19 7 -7 16 -6 28 3 16 12 16 15 4 19
-8 4 -21 2 -29 -3z"/>
<path d="M8060 4392 c0 -5 9 -17 20 -27 16 -14 20 -15 20 -4 0 16 -19 39 -32
39 -4 0 -8 -4 -8 -8z"/>
<path d="M8107 4336 c-3 -7 -22 -18 -43 -23 -21 -4 -40 -15 -42 -22 -4 -11 7
-12 54 -7 l59 7 -27 -25 c-15 -13 -24 -26 -21 -29 8 -8 76 4 93 17 8 7 33 20
55 30 45 21 32 34 -17 17 -43 -15 -76 -15 -60 1 17 17 15 23 -13 36 -32 15
-32 15 -38 -2z"/>
<path d="M6823 4233 c-48 -20 -83 -41 -83 -49 0 -8 4 -14 9 -14 18 0 181 81
181 90 0 16 -20 11 -107 -27z"/>
<path d="M7413 4249 c-56 -21 -73 -44 -25 -33 35 8 112 41 112 48 0 11 -35 5
-87 -15z"/>
<path d="M6921 4230 c-45 -21 -61 -34 -54 -41 7 -7 32 1 82 25 39 20 71 38 71
41 0 13 -41 2 -99 -25z"/>
<path d="M7697 4233 c-37 -10 -3 -23 58 -23 62 0 91 12 59 24 -17 7 -89 6
-117 -1z"/>
<path d="M5761 4216 c-19 -23 5 -28 30 -6 24 19 24 19 3 20 -12 0 -27 -6 -33
-14z"/>
<path d="M5664 4176 c-17 -13 -17 -15 -2 -21 20 -8 61 12 53 26 -9 13 -28 11
-51 -5z"/>
<path d="M8305 4183 c-58 -13 -220 -55 -223 -58 -2 -2 -1 -8 2 -13 4 -6 29 -4
66 5 48 12 63 13 75 3 18 -15 19 -30 3 -30 -7 -1 -26 -7 -43 -15 -29 -13 -27
-14 35 -11 57 3 158 17 228 32 12 2 22 9 22 14 0 13 -52 13 -125 -1 -48 -9
-60 -8 -73 4 -21 21 -9 33 39 40 22 3 44 8 47 12 6 6 -17 26 -28 24 -3 -1 -14
-3 -25 -6z"/>
<path d="M7585 4150 c-33 -10 -72 -21 -87 -24 -35 -8 -37 -26 -4 -26 26 0 164
47 181 62 14 13 -24 8 -90 -12z"/>
<path d="M6968 4086 c-72 -68 -92 -96 -68 -96 13 0 160 146 160 159 0 20 -15
10 -92 -63z"/>
<path d="M5597 4129 c-20 -12 -23 -29 -3 -29 17 0 40 26 29 33 -5 3 -16 1 -26
-4z"/>
<path d="M6868 4101 c-25 -20 -68 -80 -68 -95 0 -3 6 -6 14 -6 16 0 89 97 84
112 -2 5 -15 0 -30 -11z"/>
<path d="M7665 4089 c-60 -16 -132 -32 -159 -37 -28 -4 -51 -13 -54 -21 -6
-19 69 -9 168 24 41 13 94 29 118 35 23 6 42 15 42 20 0 6 -1 10 -2 9 -2 0
-52 -13 -113 -30z"/>
<path d="M5500 4075 c-11 -13 -9 -15 13 -15 13 0 30 7 37 15 11 13 9 15 -13
15 -13 0 -30 -7 -37 -15z"/>
<path d="M6680 4024 c-70 -66 -82 -84 -57 -84 16 0 137 123 137 139 0 18 -7
13 -80 -55z"/>
<path d="M7780 4059 c-30 -11 -86 -27 -125 -35 -84 -18 -107 -34 -47 -34 41 0
226 60 246 80 15 15 -11 11 -74 -11z"/>
<path d="M7410 4061 c-43 -13 -104 -48 -124 -70 -11 -12 -16 -21 -13 -21 15 0
177 84 177 91 0 10 -5 10 -40 0z"/>
<path d="M6490 4041 c-74 -24 -117 -47 -130 -70 -11 -21 3 -40 16 -20 9 15
104 59 127 59 15 0 13 -5 -10 -24 -34 -29 -23 -47 15 -24 15 9 55 30 90 48 61
31 85 59 40 46 -62 -17 -68 -18 -68 -7 0 15 -15 13 -80 -8z"/>
<path d="M8295 4050 c-3 -6 1 -13 10 -16 19 -8 30 0 20 15 -8 14 -22 14 -30 1z"/>
<path d="M5368 4033 c-22 -5 -23 -22 -4 -29 17 -6 56 12 56 26 0 10 -21 11
-52 3z"/>
<path d="M5250 3965 c0 -11 7 -15 23 -13 12 2 22 8 22 13 0 6 -10 11 -22 13
-16 2 -23 -2 -23 -13z"/>
<path d="M8325 3971 c-3 -5 -1 -12 4 -15 4 -3 11 -28 15 -56 4 -28 9 -57 12
-65 8 -21 24 -8 24 19 0 12 5 27 11 33 8 8 6 19 -5 42 -18 33 -51 57 -61 42z"/>
<path d="M5195 3930 c-8 -12 20 -24 35 -15 6 3 8 11 5 16 -8 12 -32 12 -40 -1z"/>
<path d="M5082 3863 c4 -22 43 -25 43 -3 0 8 -11 16 -23 18 -19 3 -23 0 -20
-15z"/>
<path d="M8404 3855 c-7 -28 2 -75 15 -75 10 0 24 77 16 91 -11 16 -24 9 -31
-16z"/>
<path d="M5288 3781 c-47 -7 -78 -24 -65 -37 3 -3 30 -1 59 5 29 7 63 14 76
17 13 2 20 9 17 14 -7 11 -15 11 -87 1z"/>
<path d="M8432 3768 c-16 -16 -15 -38 1 -38 14 0 47 31 47 43 0 12 -35 8 -48
-5z"/>
<path d="M4395 3752 c-28 -15 -28 -17 -8 -20 20 -3 83 22 83 33 0 11 -47 3
-75 -13z"/>
<path d="M4476 3748 c-9 -12 -16 -29 -16 -36 0 -22 23 -8 43 26 16 27 17 32 3
32 -8 0 -22 -10 -30 -22z"/>
<path d="M5457 3753 c-33 -13 -47 -35 -24 -34 18 0 97 35 97 42 0 13 -30 10
-73 -8z"/>
<path d="M5890 3764 c-14 -3 -44 -7 -67 -10 -68 -8 -50 -22 35 -27 42 -2 87
-7 100 -12 28 -9 30 14 4 38 -18 17 -24 18 -72 11z"/>
<path d="M3383 3734 c-36 -21 -56 -44 -38 -44 13 0 115 55 115 62 0 16 -36 7
-77 -18z"/>
<path d="M3472 3718 c-34 -24 -62 -49 -62 -56 0 -15 2 -14 83 40 32 22 55 43
52 49 -8 12 -3 15 -73 -33z"/>
<path d="M4289 3743 c-13 -15 -11 -16 16 -9 41 10 56 26 23 26 -14 0 -32 -7
-39 -17z"/>
<path d="M4571 3747 c-14 -17 -4 -27 25 -27 31 0 39 17 15 29 -25 14 -26 14
-40 -2z"/>
<path d="M5043 3753 c-21 -8 -15 -23 10 -23 35 0 67 11 61 21 -5 9 -50 11 -71
2z"/>
<path d="M5630 3744 c0 -11 8 -14 32 -12 46 4 49 28 4 28 -26 0 -36 -4 -36
-16z"/>
<path d="M4711 3726 c-7 -9 -8 -17 -2 -20 14 -9 41 4 41 20 0 18 -24 18 -39 0z"/>
<path d="M3744 3705 c-9 -14 -13 -32 -10 -42 6 -15 8 -15 25 3 11 10 22 29 26
42 9 31 -20 29 -41 -3z"/>
<path d="M3850 3700 c-27 -38 -20 -49 27 -41 43 7 56 34 26 56 -25 20 -29 19
-53 -15z"/>
<path d="M3555 3701 c-16 -10 -39 -28 -49 -40 -35 -38 7 -25 55 19 47 42 44
52 -6 21z"/>
<path d="M4053 3703 c-22 -8 -14 -23 12 -23 14 0 25 4 25 9 0 11 -21 19 -37
14z"/>
<path d="M8487 3703 c-13 -12 -7 -32 7 -27 19 7 29 34 12 34 -7 0 -16 -3 -19
-7z"/>
<path d="M3632 3684 c-12 -8 -22 -19 -22 -25 0 -16 24 -10 55 16 26 21 28 24
10 25 -11 0 -31 -7 -43 -16z"/>
<path d="M4146 3691 c-4 -5 -2 -12 3 -15 5 -4 12 -2 15 3 4 5 2 12 -3 15 -5 4
-12 2 -15 -3z"/>
<path d="M4240 3685 c0 -9 5 -15 11 -13 6 2 11 8 11 13 0 5 -5 11 -11 13 -6 2
-11 -4 -11 -13z"/>
<path d="M3957 3683 c-13 -12 -7 -33 8 -33 8 0 15 9 15 20 0 20 -11 26 -23 13z"/>
<path d="M3215 3670 c-10 -16 4 -30 30 -30 13 0 27 -4 30 -10 10 -16 65 -12
65 5 0 10 -10 15 -28 15 -15 0 -32 4 -37 9 -17 15 -53 22 -60 11z"/>
<path d="M3103 3663 c-24 -9 -13 -23 17 -23 32 0 40 14 14 24 -9 3 -16 6 -17
5 -1 0 -8 -3 -14 -6z"/>
<path d="M4697 3634 c-9 -10 2 -24 19 -24 8 0 14 7 14 15 0 15 -21 21 -33 9z"/>
<path d="M4620 3580 c0 -5 7 -10 15 -10 8 0 15 5 15 10 0 6 -7 10 -15 10 -8 0
-15 -4 -15 -10z"/>
<path d="M4552 3548 c7 -19 43 -21 58 -3 11 13 8 15 -25 15 -25 0 -35 -4 -33
-12z"/>
<path d="M4967 3512 c-39 -40 -45 -52 -24 -52 16 0 77 62 77 78 0 21 -15 13
-53 -26z"/>
<path d="M4882 3517 c-23 -24 -29 -47 -13 -47 11 0 51 48 51 61 0 16 -16 10
-38 -14z"/>
<path d="M4658 3495 c-27 -31 -36 -55 -21 -55 15 0 63 55 63 72 0 26 -11 21
-42 -17z"/>
<path d="M4473 3508 c2 -7 14 -13 27 -13 13 0 25 6 28 13 2 8 -7 12 -28 12
-21 0 -30 -4 -27 -12z"/>
<path d="M4592 3496 c-26 -33 -28 -46 -7 -46 17 0 37 35 33 58 -2 13 -8 10
-26 -12z"/>
<path d="M4747 3475 c-17 -48 -7 -68 16 -34 9 13 17 16 22 10 8 -13 45 -15 45
-2 0 5 -11 18 -25 29 -14 11 -25 25 -25 31 0 27 -19 7 -33 -34z"/>
<path d="M5065 3495 c-27 -27 -32 -45 -12 -45 12 0 57 51 57 65 0 13 -23 3
-45 -20z"/>
<path d="M5354 3506 c-8 -22 3 -33 18 -18 9 9 9 15 0 24 -9 9 -13 7 -18 -6z"/>
<path d="M5412 3511 c4 -13 18 -16 19 -4 0 4 -5 9 -11 12 -7 2 -11 -2 -8 -8z"/>
<path d="M5135 3486 c-19 -28 -12 -54 10 -36 17 14 26 48 15 55 -5 3 -16 -6
-25 -19z"/>
<path d="M5217 3503 c-13 -12 -7 -33 8 -33 8 0 15 9 15 20 0 20 -11 26 -23 13z"/>
<path d="M5472 3484 c-22 -15 -31 -54 -12 -54 12 0 59 50 60 63 0 12 -24 8
-48 -9z"/>
<path d="M4286 3474 c-9 -23 3 -81 20 -95 12 -9 14 -5 14 27 0 70 -19 107 -34
68z"/>
<path d="M5265 3481 c-6 -11 9 -23 19 -14 9 9 7 23 -3 23 -6 0 -12 -4 -16 -9z"/>
<path d="M5582 3474 c-24 -17 -30 -44 -9 -44 13 0 36 21 51 48 10 17 -15 15
-42 -4z"/>
<path d="M5700 3470 c0 -11 7 -20 15 -20 8 0 15 9 15 20 0 11 -7 20 -15 20 -8
0 -15 -9 -15 -20z"/>
<path d="M4536 3472 c-3 -6 -1 -14 5 -17 15 -10 25 3 12 16 -7 7 -13 7 -17 1z"/>
<path d="M4370 3461 c0 -11 25 -21 56 -21 27 0 32 15 8 24 -24 9 -64 7 -64 -3z"/>
<path d="M5778 3464 c-11 -10 3 -34 19 -34 8 0 13 7 11 17 -3 18 -20 27 -30
17z"/>
<path d="M5862 3458 c6 -18 28 -21 28 -4 0 9 -7 16 -16 16 -9 0 -14 -5 -12
-12z"/>
<path d="M3642 3443 c-17 -7 -54 -81 -47 -94 9 -14 22 -3 50 42 34 53 33 67
-3 52z"/>
<path d="M3728 3400 c-36 -36 -45 -71 -14 -53 27 16 86 73 86 83 0 22 -34 8
-72 -30z"/>
<path d="M4179 3433 c-18 -4 -35 -66 -24 -83 11 -17 24 -11 31 15 6 26 18 32
29 15 9 -15 55 -12 55 3 0 34 -50 62 -91 50z"/>
<path d="M3870 3422 c-26 -8 -50 -34 -50 -54 0 -25 9 -22 50 12 33 29 33 54 0
42z"/>
<path d="M4640 3414 c-71 -24 -114 -54 -76 -54 24 0 106 39 106 50 0 11 -6 11
-30 4z"/>
<path d="M3934 3395 c-14 -10 -16 -17 -8 -25 13 -13 44 -3 44 15 0 21 -15 26
-36 10z"/>
<path d="M4494 3391 c-42 -26 -55 -46 -23 -36 40 12 79 35 79 45 0 15 -22 12
-56 -9z"/>
<path d="M4704 3400 c-22 -9 -39 -28 -32 -35 7 -7 89 21 91 31 3 12 -33 15
-59 4z"/>
<path d="M4800 3389 c-25 -12 -40 -23 -33 -26 17 -6 106 22 111 35 6 18 -28
14 -78 -9z"/>
<path d="M3997 3394 c-8 -8 1 -24 14 -24 5 0 9 7 9 15 0 15 -12 20 -23 9z"/>
<path d="M6643 3368 c-46 -12 -43 -32 3 -25 42 7 52 14 38 26 -5 4 -24 4 -41
-1z"/>
<path d="M7843 3367 c-39 -15 -58 -33 -23 -23 14 5 55 7 93 6 42 -1 67 3 67 9
0 6 -8 11 -17 11 -10 0 -34 2 -53 5 -19 2 -49 -1 -67 -8z"/>
<path d="M8130 3371 c0 -11 25 -21 51 -21 23 0 25 15 3 24 -23 9 -54 7 -54 -3z"/>
<path d="M8267 3374 c-8 -8 1 -24 14 -24 5 0 9 7 9 15 0 15 -12 20 -23 9z"/>
<path d="M6503 3355 c-18 -8 -33 -18 -33 -24 0 -14 82 11 88 27 5 16 -15 15
-55 -3z"/>
<path d="M6930 3350 c-21 -21 -26 -40 -12 -40 9 0 33 25 46 48 11 19 -12 14
-34 -8z"/>
<path d="M7010 3350 c-20 -20 -27 -50 -12 -50 8 0 52 54 52 65 0 12 -21 4 -40
-15z"/>
<path d="M8032 3359 c2 -6 8 -10 13 -10 5 0 11 4 13 10 2 6 -4 11 -13 11 -9 0
-15 -5 -13 -11z"/>
<path d="M6340 3350 c0 -5 11 -10 25 -10 14 0 25 5 25 10 0 6 -11 10 -25 10
-14 0 -25 -4 -25 -10z"/>
<path d="M6752 3340 c-31 -19 -43 -40 -23 -40 14 0 67 47 61 54 -3 3 -20 -4
-38 -14z"/>
<path d="M7705 3350 c-3 -5 -2 -10 4 -10 5 0 13 5 16 10 3 6 2 10 -4 10 -5 0
-13 -4 -16 -10z"/>
<path d="M4110 3340 c0 -5 5 -10 10 -10 6 0 10 5 10 10 0 6 -4 10 -10 10 -5 0
-10 -4 -10 -10z"/>
<path d="M7127 3343 c-10 -9 -8 -43 2 -43 5 0 16 11 25 25 16 24 15 25 -2 25
-10 0 -22 -3 -25 -7z"/>
<path d="M7220 3335 c0 -10 7 -15 18 -13 21 4 19 22 -2 26 -10 2 -16 -3 -16
-13z"/>
<path d="M7480 3335 c0 -9 9 -15 25 -15 16 0 25 6 25 15 0 9 -9 15 -25 15 -16
0 -25 -6 -25 -15z"/>
<path d="M8395 3340 c-3 -5 1 -10 9 -10 9 0 16 5 16 10 0 6 -4 10 -9 10 -6 0
-13 -4 -16 -10z"/>
<path d="M6830 3325 c-21 -25 -1 -31 23 -7 17 18 18 22 5 22 -8 0 -21 -7 -28
-15z"/>
<path d="M3845 3189 c-4 -6 -4 -13 -1 -16 8 -8 36 5 36 17 0 13 -27 13 -35 -1z"/>
<path d="M3740 3120 c-8 -5 -36 -10 -62 -10 -34 0 -48 -4 -48 -14 0 -28 102
-24 135 5 14 14 -7 30 -25 19z"/>
<path d="M3565 3070 c-8 -13 13 -40 31 -40 21 0 17 28 -5 40 -14 7 -22 7 -26
0z"/>
<path d="M3440 3000 c0 -14 46 -31 65 -23 9 3 14 11 12 17 -5 15 -77 21 -77 6z"/>
<path d="M3180 2866 c0 -10 9 -16 21 -16 24 0 21 23 -4 28 -10 2 -17 -3 -17
-12z"/>
<path d="M3111 2817 c-14 -17 -4 -27 26 -27 26 0 32 25 7 34 -21 8 -20 8 -33
-7z"/>
<path d="M8064 2795 c-7 -38 -2 -51 15 -40 14 8 15 75 1 75 -5 0 -12 -16 -16
-35z"/>
<path d="M7806 2801 c-24 -27 -11 -48 15 -25 19 17 26 44 11 44 -5 0 -17 -9
-26 -19z"/>
<path d="M7976 2798 c-18 -25 -21 -58 -7 -58 9 0 51 61 51 74 0 15 -30 4 -44
-16z"/>
<path d="M8152 2808 c-16 -16 -15 -48 2 -48 12 0 25 28 26 53 0 11 -15 8 -28
-5z"/>
<path d="M7901 2784 c-29 -36 -14 -55 16 -20 12 15 23 31 23 37 0 17 -18 9
-39 -17z"/>
<path d="M3007 2783 c-14 -13 -6 -21 31 -28 20 -3 47 -9 60 -12 31 -7 29 21
-3 35 -28 13 -78 16 -88 5z"/>
<path d="M8227 2772 c-21 -23 -22 -52 -2 -52 14 0 35 37 35 61 0 15 -16 10
-33 -9z"/>
<path d="M8367 2776 c-6 -16 11 -36 30 -36 16 0 17 22 1 38 -16 16 -25 15 -31
-2z"/>
<path d="M8280 2766 c0 -7 6 -19 14 -25 19 -16 32 5 16 24 -16 19 -30 19 -30
1z"/>
<path d="M2930 2730 c0 -15 35 -30 69 -30 40 0 40 15 0 29 -39 14 -69 14 -69
1z"/>
<path d="M3227 2694 c-39 -64 -48 -84 -41 -95 9 -15 34 11 64 65 18 34 21 49
13 57 -8 8 -17 1 -36 -27z"/>
<path d="M3114 2685 c-17 -17 -24 -34 -22 -52 4 -37 25 -40 33 -5 3 17 15 38
26 48 10 9 19 21 19 26 0 17 -32 7 -56 -17z"/>
<path d="M3322 2683 c-31 -30 -41 -53 -24 -53 16 0 64 58 60 72 -3 9 -15 3
-36 -19z"/>
<path d="M3396 2679 c-26 -20 -35 -49 -16 -49 12 0 59 50 60 63 0 13 -17 8
-44 -14z"/>
<path d="M3507 2642 c-43 -44 -59 -72 -39 -72 10 0 112 103 112 113 0 19 -30
2 -73 -41z"/>
<path d="M3737 2664 c-16 -16 -7 -44 14 -44 15 0 20 5 17 22 -3 22 -19 33 -31
22z"/>
<path d="M3823 2654 c-8 -22 15 -43 27 -24 5 8 10 21 10 28 0 17 -30 15 -37
-4z"/>
<path d="M2979 2628 c-29 -32 -38 -58 -20 -58 9 0 71 73 71 84 0 15 -24 3 -51
-26z"/>
<path d="M3612 2648 c-7 -7 -12 -20 -12 -31 0 -24 33 -19 38 7 5 24 -11 39
-26 24z"/>
<path d="M3895 2640 c-10 -16 4 -30 31 -30 29 0 31 15 5 30 -24 12 -28 13 -36
0z"/>
<path d="M7071 2593 c-31 -46 -40 -83 -21 -83 8 0 70 110 70 125 0 17 -22 -1
-49 -42z"/>
<path d="M6982 2617 c-13 -16 -38 -67 -46 -94 -10 -30 19 -32 34 -2 34 63 43
135 12 96z"/>
<path d="M7191 2594 c-21 -27 -29 -74 -11 -74 7 0 50 82 50 96 0 13 -22 0 -39
-22z"/>
<path d="M7263 2609 c-6 -8 -14 -36 -18 -63 -6 -38 -5 -48 6 -44 16 5 31 60
27 96 -2 21 -5 23 -15 11z"/>
<path d="M7340 2573 c-31 -49 -36 -68 -20 -78 9 -5 39 45 60 100 16 42 -8 29
-40 -22z"/>
<path d="M7801 2596 c-25 -27 -21 -46 10 -46 12 0 19 7 19 19 0 11 3 26 6 35
9 24 -9 19 -35 -8z"/>
<path d="M8151 2607 c-19 -24 -42 -105 -30 -112 16 -11 27 4 39 55 14 58 10
80 -9 57z"/>
<path d="M6860 2578 c-11 -18 -20 -39 -20 -47 0 -22 37 15 49 50 14 40 -4 38
-29 -3z"/>
<path d="M7463 2604 c-18 -8 -55 -72 -48 -84 12 -19 23 -10 49 36 33 58 32 61
-1 48z"/>
<path d="M7531 2582 c-15 -29 -15 -95 1 -90 16 6 29 78 18 97 -6 11 -10 10
-19 -7z"/>
<path d="M7684 2576 c-8 -14 -14 -35 -12 -48 3 -22 5 -21 26 12 12 19 22 41
22 48 0 20 -18 14 -36 -12z"/>
<path d="M6245 2550 c-27 -43 -30 -56 -16 -65 10 -6 61 73 61 93 0 24 -20 11
-45 -28z"/>
<path d="M6330 2544 c-31 -34 -39 -49 -31 -57 8 -8 23 2 56 38 24 28 44 53 45
58 1 20 -32 2 -70 -39z"/>
<path d="M6488 2580 c-25 -15 -61 -78 -54 -96 5 -13 9 -14 21 -4 8 7 15 18 15
25 0 7 14 27 30 45 17 18 30 34 30 36 0 7 -25 3 -42 -6z"/>
<path d="M8031 2576 c-18 -22 -19 -71 -1 -71 8 0 16 10 18 22 2 12 10 27 18
33 8 7 14 16 14 21 0 14 -36 10 -49 -5z"/>
<path d="M8206 2556 c-26 -35 -34 -66 -17 -66 8 0 61 81 61 94 0 16 -20 2 -44
-28z"/>
<path d="M6130 2548 c-23 -38 -25 -58 -7 -58 11 0 47 64 47 83 0 18 -22 4 -40
-25z"/>
<path d="M6595 2550 c-17 -34 -20 -60 -4 -60 10 0 39 59 39 80 0 20 -20 9 -35
-20z"/>
<path d="M5910 2534 c-22 -20 -40 -40 -40 -45 0 -21 29 -6 70 36 55 56 30 63
-30 9z"/>
<path d="M7911 2544 c-12 -15 -21 -36 -21 -48 1 -18 6 -15 35 19 19 22 35 43
35 48 0 17 -30 5 -49 -19z"/>
<path d="M8280 2550 c-21 -21 -26 -55 -10 -65 6 -3 14 4 19 17 5 13 16 30 25
37 9 7 16 17 16 22 0 16 -30 9 -50 -11z"/>
<path d="M5650 2540 c-21 -21 -26 -40 -11 -40 16 0 61 41 56 51 -9 14 -23 11
-45 -11z"/>
<path d="M6026 2534 c-26 -27 -33 -44 -18 -44 10 0 62 53 62 63 0 14 -18 6
-44 -19z"/>
<path d="M6685 2540 c-8 -13 4 -32 16 -25 12 8 12 35 0 35 -6 0 -13 -4 -16
-10z"/>
<path d="M6453 2445 c-26 -53 -27 -75 -3 -60 13 8 49 83 50 103 0 28 -22 8
-47 -43z"/>
<path d="M6387 2483 c-4 -3 -7 -24 -7 -45 0 -54 24 -45 28 10 3 39 -5 52 -21
35z"/>
<path d="M6521 2433 c-30 -36 -41 -73 -22 -73 5 0 17 12 26 28 10 15 29 39 43
55 25 26 25 27 5 27 -13 0 -34 -16 -52 -37z"/>
<path d="M6631 2444 c-22 -28 -27 -49 -12 -58 9 -6 51 56 51 75 0 17 -18 9
-39 -17z"/>
<path d="M6730 2451 c-13 -25 -13 -61 0 -61 13 0 41 61 34 72 -9 14 -23 9 -34
-11z"/>
<path d="M7080 2460 c0 -5 7 -10 15 -10 8 0 15 5 15 10 0 6 -7 10 -15 10 -8 0
-15 -4 -15 -10z"/>
<path d="M6821 2441 c-8 -14 -7 -22 4 -31 12 -10 16 -8 24 11 14 39 -9 56 -28
20z"/>
<path d="M6976 2451 c-7 -10 18 -34 27 -25 7 8 -3 34 -13 34 -5 0 -11 -4 -14
-9z"/>
<path d="M6286 2431 c-7 -11 18 -33 27 -24 4 3 7 12 7 20 0 15 -26 18 -34 4z"/>
<path d="M5731 2388 c-32 -43 -38 -58 -22 -58 15 0 61 60 61 81 0 27 -4 24
-39 -23z"/>
<path d="M8365 2404 c-36 -39 -48 -100 -16 -80 17 11 60 96 50 101 -5 4 -20
-6 -34 -21z"/>
<path d="M5801 2394 c-21 -26 -28 -64 -14 -77 4 -4 17 14 30 40 26 54 16 78
-16 37z"/>
<path d="M5641 2391 c-15 -26 -14 -54 1 -49 15 5 29 56 18 63 -5 3 -14 -3 -19
-14z"/>
<path d="M5876 2360 c-27 -49 -29 -69 -7 -55 6 3 21 25 32 47 31 61 8 69 -25
8z"/>
<path d="M5965 2348 c-58 -77 -41 -94 23 -22 59 67 68 84 43 84 -12 0 -37 -23
-66 -62z"/>
<path d="M7427 2368 c-25 -40 -38 -96 -18 -84 9 6 71 111 71 121 0 3 -6 5 -13
5 -7 0 -25 -19 -40 -42z"/>
<path d="M8268 2349 c-28 -63 -28 -90 -1 -67 31 25 59 128 35 128 -4 0 -19
-28 -34 -61z"/>
<path d="M7502 2373 c-19 -48 -24 -81 -13 -87 13 -9 29 22 37 73 8 47 -8 56
-24 14z"/>
<path d="M7259 2351 c-6 -22 -9 -47 -5 -57 11 -28 28 -2 33 50 7 58 -11 62
-28 7z"/>
<path d="M7341 2347 c-25 -52 -26 -57 -5 -57 8 0 22 16 30 35 30 72 8 91 -25
22z"/>
<path d="M7747 2355 c-30 -45 -33 -55 -14 -55 17 0 51 62 45 80 -3 9 -14 0
-31 -25z"/>
<path d="M7836 2374 c-9 -25 -7 -84 3 -84 14 0 19 12 27 58 5 34 4 42 -9 42
-8 0 -18 -7 -21 -16z"/>
<path d="M7910 2371 c-13 -25 -13 -81 -1 -81 14 0 19 12 27 58 7 45 -7 57 -26
23z"/>
<path d="M8011 2362 c-11 -16 -23 -41 -27 -56 -15 -60 41 -3 61 62 9 31 -10
28 -34 -6z"/>
<path d="M8117 2372 c-19 -21 -23 -62 -6 -62 8 0 39 58 39 75 0 11 -18 4 -33
-13z"/>
<path d="M8185 2360 c-17 -33 -20 -80 -5 -80 13 0 27 28 35 73 9 46 -8 50 -30
7z"/>
<path d="M6086 2355 c-17 -26 -21 -55 -7 -55 13 0 29 22 36 53 9 34 -7 36 -29
2z"/>
<path d="M7570 2356 c-14 -38 -13 -79 2 -74 18 6 33 77 20 90 -8 8 -14 4 -22
-16z"/>
<path d="M7171 2344 c-19 -24 -19 -54 -1 -54 9 0 40 56 40 72 0 16 -19 8 -39
-18z"/>
<path d="M6164 2349 c-8 -14 11 -33 25 -25 16 10 13 36 -3 36 -8 0 -18 -5 -22
-11z"/>
<path d="M6245 2350 c-10 -16 16 -43 28 -31 11 11 2 41 -12 41 -5 0 -13 -5
-16 -10z"/>
<path d="M6535 2350 c-3 -5 -1 -10 4 -10 6 0 11 5 11 10 0 6 -2 10 -4 10 -3 0
-8 -4 -11 -10z"/>
<path d="M6896 2326 c-18 -39 -21 -66 -5 -66 11 0 39 60 39 85 0 26 -17 17
-34 -19z"/>
<path d="M6990 2338 c-23 -25 -36 -65 -26 -76 9 -8 42 34 55 71 12 33 -1 35
-29 5z"/>
<path d="M6682 2338 c-15 -15 -16 -58 -2 -58 14 0 33 51 22 62 -4 4 -13 3 -20
-4z"/>
<path d="M6817 2343 c-11 -10 -8 -73 3 -73 13 0 32 49 26 67 -6 14 -19 17 -29
6z"/>
<path d="M7650 2324 c-13 -34 -13 -44 4 -44 15 0 26 21 26 51 0 27 -19 23 -30
-7z"/>
<path d="M6757 2333 c-4 -3 -7 -19 -7 -35 0 -40 24 -31 28 10 3 30 -6 41 -21
25z"/>
<path d="M7044 2315 c-8 -20 3 -48 16 -40 13 8 13 55 0 55 -6 0 -13 -7 -16
-15z"/>
<path d="M6614 2296 c-6 -17 2 -36 17 -36 12 0 12 37 -1 45 -6 3 -13 -1 -16
-9z"/>
<path d="M6490 2275 c0 -8 5 -15 10 -15 6 0 10 7 10 15 0 8 -4 15 -10 15 -5 0
-10 -7 -10 -15z"/>
<path d="M6396 2263 c-12 -12 -5 -23 14 -23 11 0 20 4 20 9 0 11 -26 22 -34
14z"/>
<path d="M5384 2238 c-45 -51 -69 -108 -45 -108 12 0 73 109 69 121 -2 6 -13
0 -24 -13z"/>
<path d="M5079 2203 c-30 -33 -39 -48 -29 -51 13 -5 90 73 90 91 0 17 -20 4
-61 -40z"/>
<path d="M4920 2230 c0 -5 5 -10 10 -10 6 0 10 5 10 10 0 6 -4 10 -10 10 -5 0
-10 -4 -10 -10z"/>
<path d="M5430 2208 c-23 -37 -27 -82 -7 -76 6 3 14 15 15 29 2 13 10 32 18
43 17 24 18 36 4 36 -6 0 -19 -15 -30 -32z"/>
<path d="M5640 2211 c-32 -47 -53 -102 -41 -114 6 -6 21 13 42 59 18 38 35 72
37 77 11 21 -20 3 -38 -22z"/>
<path d="M6190 2225 c-10 -13 -11 -18 -1 -28 10 -9 15 -8 27 7 8 11 14 23 14
28 0 14 -27 9 -40 -7z"/>
<path d="M4963 2206 c-15 -13 -25 -28 -20 -32 8 -9 59 26 65 44 6 19 -15 14
-45 -12z"/>
<path d="M5203 2208 c-40 -44 -57 -98 -30 -98 9 1 37 48 65 112 7 17 -15 7
-35 -14z"/>
<path d="M5516 2214 c-3 -9 -6 -36 -6 -61 0 -68 24 -50 28 20 3 54 -9 76 -22
41z"/>
<path d="M5270 2180 c-11 -21 -20 -47 -20 -55 0 -31 24 -9 47 43 18 42 20 52
8 52 -8 0 -24 -18 -35 -40z"/>
<path d="M5820 2201 c-13 -25 -13 -71 -1 -71 13 0 17 9 25 53 7 40 -6 51 -24
18z"/>
<path d="M5720 2178 c-24 -40 -25 -48 -5 -48 8 0 15 4 15 9 0 5 12 23 26 40
25 30 25 31 5 31 -13 0 -29 -12 -41 -32z"/>
<path d="M5980 2188 c-21 -22 -22 -39 -4 -45 9 -3 17 9 42 60 8 16 -18 6 -38
-15z"/>
<path d="M7120 2191 c-13 -26 -13 -31 4 -31 13 0 26 20 26 41 0 16 -19 10 -30
-10z"/>
<path d="M7197 2193 c-11 -10 -8 -43 3 -43 12 0 31 35 23 44 -8 8 -18 8 -26
-1z"/>
<path d="M6456 2143 c-28 -44 -35 -67 -21 -72 14 -4 43 37 54 77 13 43 -3 41
-33 -5z"/>
<path d="M7235 2171 c-3 -5 -1 -12 5 -16 12 -7 30 2 30 16 0 12 -27 12 -35 0z"/>
<path d="M6360 2135 c-13 -33 -13 -65 0 -65 13 0 30 34 30 59 0 31 -19 35 -30
6z"/>
<path d="M6540 2131 c-12 -30 -6 -71 11 -71 11 0 15 10 24 63 7 46 -16 52 -35
8z"/>
<path d="M6646 2133 c-17 -61 -17 -83 -2 -83 17 0 38 63 29 86 -7 19 -21 18
-27 -3z"/>
<path d="M6731 2116 c-22 -36 -27 -66 -11 -66 14 0 50 60 50 83 0 27 -16 20
-39 -17z"/>
<path d="M6806 2134 c-19 -18 -21 -54 -3 -54 14 0 48 55 39 64 -9 10 -20 7
-36 -10z"/>
<path d="M6990 2136 c0 -9 7 -16 16 -16 17 0 14 22 -4 28 -7 2 -12 -3 -12 -12z"/>
<path d="M6896 2131 c-3 -5 1 -14 8 -20 16 -13 32 2 21 19 -8 12 -22 13 -29 1z"/>
<path d="M6297 2108 c-7 -25 0 -41 14 -33 12 8 12 55 0 55 -5 0 -11 -10 -14
-22z"/>
<path d="M6726 1978 c-27 -55 -33 -88 -15 -88 11 0 43 66 54 113 12 45 -11 31
-39 -25z"/>
<path d="M6142 1988 c-14 -14 -16 -48 -2 -48 10 0 30 32 30 49 0 14 -13 14
-28 -1z"/>
<path d="M6222 1973 c-31 -30 -42 -63 -23 -63 15 0 63 68 59 82 -3 9 -16 2
-36 -19z"/>
<path d="M6377 1965 c-20 -42 -20 -45 -6 -45 17 0 38 32 39 58 0 32 -14 27
-33 -13z"/>
<path d="M6467 1982 c-19 -20 -23 -52 -7 -52 5 0 17 11 26 26 21 32 6 53 -19
26z"/>
<path d="M6302 1978 c-17 -17 -15 -58 2 -58 13 0 26 28 26 58 0 15 -12 16 -28
0z"/>
<path d="M6578 1966 c-9 -20 -9 -29 0 -38 15 -15 29 -2 34 31 4 34 -19 38 -34
7z"/>
<path d="M6841 1972 c-14 -27 -17 -85 -4 -89 9 -3 33 72 33 102 0 12 -20 3
-29 -13z"/>
<path d="M6947 1984 c-4 -4 -7 -23 -7 -41 0 -42 23 -41 28 1 4 29 -9 52 -21
40z"/>
<path d="M7031 1972 c-8 -15 -7 -23 3 -31 11 -10 16 -8 21 9 10 30 -10 48 -24
22z"/>
<path d="M7275 1980 c4 -6 11 -8 16 -5 14 9 11 15 -7 15 -8 0 -12 -5 -9 -10z"/>
<path d="M7090 1965 c0 -9 5 -15 11 -13 6 2 11 8 11 13 0 5 -5 11 -11 13 -6 2
-11 -4 -11 -13z"/>
<path d="M7492 1813 c-5 -10 -13 -42 -17 -72 -6 -42 -4 -52 6 -49 26 9 51 119
30 133 -6 3 -14 -2 -19 -12z"/>
<path d="M7266 1766 c-38 -58 -44 -76 -23 -76 19 0 82 109 70 121 -7 7 -22 -8
-47 -45z"/>
<path d="M7570 1768 c-22 -48 -25 -78 -10 -78 13 0 49 77 50 103 0 31 -21 18
-40 -25z"/>
<path d="M7178 1789 c-21 -12 -44 -77 -31 -90 12 -12 22 0 46 53 17 39 12 52
-15 37z"/>
<path d="M7052 1751 c-36 -45 -38 -51 -18 -51 17 0 66 56 66 76 0 24 -15 16
-48 -25z"/>
<path d="M7393 1768 c-32 -36 -46 -69 -35 -80 10 -10 53 46 69 88 8 21 -11 17
-34 -8z"/>
<path d="M7665 1759 c-25 -31 -31 -63 -10 -62 10 0 54 70 55 86 0 16 -20 5
-45 -24z"/>
<path d="M7755 1766 c-13 -20 -14 -29 -5 -47 14 -26 23 -16 35 39 8 39 -7 43
-30 8z"/>
<path d="M7868 1773 c-20 -22 -28 -60 -13 -65 12 -4 37 47 33 68 -3 14 -5 14
-20 -3z"/>
<path d="M7941 1764 c-33 -42 -41 -87 -12 -69 11 6 51 78 51 90 0 13 -20 3
-39 -21z"/>
<path d="M8006 1728 c-20 -28 -20 -48 -3 -48 13 0 37 40 37 60 0 17 -18 11
-34 -12z"/>
<path d="M8116 1743 c-12 -12 -6 -33 9 -33 8 0 15 6 15 14 0 17 -14 28 -24 19z"/>
<path d="M7526 1614 c-9 -24 -7 -94 3 -94 13 0 21 27 21 71 0 40 -13 52 -24
23z"/>
<path d="M7629 1603 c-18 -49 -22 -83 -10 -83 14 0 41 60 41 90 0 29 -19 25
-31 -7z"/>
<path d="M7810 1611 c-16 -30 -24 -107 -12 -115 11 -6 25 31 36 91 6 38 -8 52
-24 24z"/>
<path d="M7876 1593 c-9 -56 -7 -103 4 -103 12 0 32 74 28 107 -5 41 -25 38
-32 -4z"/>
<path d="M7718 1593 c-38 -43 -59 -117 -28 -98 10 6 60 94 60 106 0 15 -16 10
-32 -8z"/>
<path d="M7957 1573 c-30 -47 -41 -80 -29 -87 13 -8 38 22 57 67 28 68 10 80
-28 20z"/>
<path d="M430 1558 c0 -46 17 -89 38 -96 7 -2 12 6 12 22 0 17 5 26 16 26 11
0 14 5 10 16 -3 9 -6 18 -6 20 0 2 -9 4 -20 4 -15 0 -20 7 -20 25 0 16 -6 25
-15 25 -11 0 -15 -11 -15 -42z"/>
<path d="M8046 1569 c-24 -28 -36 -79 -18 -79 12 0 62 99 53 105 -5 3 -21 -9
-35 -26z"/>
<path d="M8326 1592 c-3 -6 -1 -14 5 -17 15 -10 25 3 12 16 -7 7 -13 7 -17 1z"/>
<path d="M8224 1566 c-4 -10 -2 -22 4 -28 8 -8 13 -7 18 6 4 10 2 22 -4 28 -8
8 -13 7 -18 -6z"/>
<path d="M8137 1563 c-10 -10 -8 -53 2 -53 10 0 21 24 21 46 0 15 -12 19 -23
7z"/>
<path d="M322 1518 c7 -22 101 -79 112 -68 18 18 -58 80 -99 80 -9 0 -15 -6
-13 -12z"/>
<path d="M292 1497 c-14 -16 -8 -54 15 -99 34 -68 43 4 10 84 -11 26 -14 29
-25 15z"/>
<path d="M3910 1315 c-13 -15 -10 -50 4 -50 12 0 27 53 16 60 -4 3 -13 -2 -20
-10z"/>
<path d="M3840 1304 c0 -8 5 -12 10 -9 6 3 10 10 10 16 0 5 -4 9 -10 9 -5 0
-10 -7 -10 -16z"/>
<path d="M6145 1253 c-16 -16 -35 -55 -35 -74 0 -5 6 -9 13 -9 11 0 24 21 55
92 6 14 -16 8 -33 -9z"/>
<path d="M6304 1259 c-16 -20 -34 -77 -34 -107 0 -37 25 -11 40 42 14 52 11
87 -6 65z"/>
<path d="M6382 1233 c-39 -51 -54 -81 -43 -87 10 -7 54 42 76 85 23 43 1 44
-33 2z"/>
<path d="M1730 1239 c-14 -25 -4 -72 13 -66 15 4 22 87 8 87 -6 0 -15 -9 -21
-21z"/>
<path d="M6226 1238 c-23 -36 -32 -82 -15 -76 14 5 48 63 49 86 0 19 -18 14
-34 -10z"/>
<path d="M2977 1228 c-3 -12 -2 -29 3 -37 7 -13 11 -11 19 12 11 28 8 47 -8
47 -5 0 -11 -10 -14 -22z"/>
<path d="M6486 1231 c-23 -25 -35 -96 -15 -89 10 3 49 86 49 106 0 8 -20 -1
-34 -17z"/>
<path d="M1797 1234 c-5 -10 -10 -49 -8 -76 2 -31 20 -20 27 16 6 33 -8 78
-19 60z"/>
<path d="M1840 1194 c0 -32 4 -44 13 -42 15 6 21 32 13 64 -10 40 -26 27 -26
-22z"/>
<path d="M3222 1218 c-18 -23 -52 -97 -52 -114 0 -13 3 -14 15 -4 13 11 65
110 65 124 0 11 -17 6 -28 -6z"/>
<path d="M6586 1212 c-8 -25 2 -52 21 -52 10 0 13 9 11 32 -3 36 -23 48 -32
20z"/>
<path d="M6925 1220 c-4 -6 -3 -16 3 -22 6 -6 12 -6 17 2 4 6 3 16 -3 22 -6 6
-12 6 -17 -2z"/>
<path d="M3059 1215 c-13 -20 -18 -80 -9 -95 8 -12 10 -12 15 2 8 20 2 106 -6
93z"/>
<path d="M3115 1168 c-25 -54 -32 -98 -16 -98 8 0 35 61 55 128 14 44 -15 22
-39 -30z"/>
<path d="M6686 1204 c-9 -24 -7 -34 8 -34 16 0 29 27 20 41 -8 14 -21 11 -28
-7z"/>
<path d="M6771 1207 c-16 -20 -6 -56 10 -40 6 6 9 21 7 33 -3 21 -4 22 -17 7z"/>
<path d="M3274 1184 c-20 -29 -33 -131 -16 -120 6 3 18 31 27 61 8 30 18 61
21 70 10 25 -14 17 -32 -11z"/>
<path d="M6062 1198 c-7 -7 -12 -21 -12 -32 0 -18 1 -19 20 -1 20 18 27 45 12
45 -4 0 -13 -5 -20 -12z"/>
<path d="M7187 1204 c-8 -8 1 -24 14 -24 5 0 9 7 9 15 0 15 -12 20 -23 9z"/>
<path d="M7047 1194 c-8 -8 1 -24 14 -24 5 0 9 7 9 15 0 15 -12 20 -23 9z"/>
<path d="M3444 1172 c-37 -25 -59 -102 -29 -102 8 0 15 7 15 15 0 9 7 30 16
46 16 32 16 53 -2 41z"/>
<path d="M3345 1140 c-16 -32 -20 -80 -6 -80 10 0 41 72 41 95 0 25 -19 17
-35 -15z"/>
<path d="M1700 1150 c0 -5 7 -10 15 -10 8 0 15 5 15 10 0 6 -7 10 -15 10 -8 0
-15 -4 -15 -10z"/>
<path d="M497 1143 c-14 -13 -7 -63 8 -63 10 0 15 11 15 35 0 33 -8 43 -23 28z"/>
<path d="M3520 1073 c-36 -77 -49 -130 -32 -119 12 7 43 72 67 138 24 66 -3
52 -35 -19z"/>
<path d="M544 1116 c-8 -21 -1 -49 14 -54 8 -2 12 7 12 27 0 33 -17 51 -26 27z"/>
<path d="M3826 1056 c-18 -62 -20 -96 -6 -96 9 0 23 43 36 113 10 58 -12 45
-30 -17z"/>
<path d="M3952 1083 c-44 -63 -71 -133 -50 -133 7 0 29 34 49 76 36 76 37 107
1 57z"/>
<path d="M3585 1088 c-14 -44 -30 -160 -23 -164 13 -8 37 57 44 120 5 40 3 56
-5 56 -6 0 -13 -6 -16 -12z"/>
<path d="M3455 1045 c-17 -37 -17 -76 0 -76 8 0 34 77 35 104 0 19 -20 3 -35
-28z"/>
<path d="M4290 1038 c-29 -40 -40 -88 -20 -88 6 0 15 10 20 23 5 12 18 36 29
52 44 63 16 76 -29 13z"/>
<path d="M4403 1058 c-39 -43 -57 -78 -46 -89 8 -8 23 6 52 45 23 30 41 58 41
61 0 13 -28 3 -47 -17z"/>
<path d="M3651 1042 c-16 -38 -18 -84 -5 -89 9 -3 34 77 34 108 0 19 -18 8
-29 -19z"/>
<path d="M4014 1034 c-16 -37 -16 -73 0 -77 7 -2 34 77 36 106 1 21 -23 2 -36
-29z"/>
<path d="M4528 1053 c-21 -25 -29 -55 -19 -72 7 -11 14 -7 30 20 21 35 28 69
13 69 -5 0 -16 -8 -24 -17z"/>
<path d="M3136 1045 c-3 -9 0 -26 6 -38 13 -22 13 -21 16 7 4 33 -12 56 -22
31z"/>
<path d="M3401 1033 c-14 -28 -17 -66 -5 -70 9 -3 34 57 34 81 0 13 -20 5 -29
-11z"/>
<path d="M3730 1031 c-13 -25 -13 -78 0 -86 5 -3 12 7 15 22 3 15 10 40 14 56
7 20 6 27 -5 27 -7 0 -18 -9 -24 -19z"/>
<path d="M4090 1024 c-13 -32 -13 -51 -1 -59 13 -7 18 2 26 48 8 43 -10 52
-25 11z"/>
<path d="M4170 1035 c-13 -16 -7 -45 10 -45 5 0 10 14 10 30 0 34 -3 36 -20
15z"/>
<path d="M4630 1025 c-10 -12 -10 -19 -1 -28 9 -9 14 -9 21 3 22 34 4 54 -20
25z"/>
<path d="M3256 1008 c-18 -26 -20 -44 -6 -53 7 -4 40 53 40 71 0 12 -21 1 -34
-18z"/>
<path d="M3314 1016 c-8 -21 -1 -49 14 -54 8 -2 12 8 12 32 0 36 -16 49 -26
22z"/>
<path d="M3213 1000 c-12 -28 -6 -47 9 -32 5 5 8 20 6 33 l-5 24 -10 -25z"/>
<path d="M1838 890 c-24 -15 -54 -98 -40 -112 8 -8 16 0 30 33 l19 44 7 -39
c10 -54 28 -32 24 29 -3 51 -12 61 -40 45z"/>
<path d="M2126 814 c-3 -9 -6 -49 -6 -90 0 -59 3 -74 15 -74 12 0 15 17 15 90
0 83 -9 112 -24 74z"/>
<path d="M2241 806 c-13 -16 -22 -164 -10 -172 4 -2 15 20 23 50 26 88 18 159
-13 122z"/>
<path d="M1728 763 c-18 -32 -48 -128 -48 -156 0 -44 26 -4 52 79 15 49 28 92
28 97 0 16 -17 5 -32 -20z"/>
<path d="M2176 761 c-3 -4 1 -17 9 -27 14 -18 14 -18 15 9 0 26 -13 36 -24 18z"/>
<path d="M1794 749 c-16 -21 -44 -109 -44 -138 1 -25 1 -26 16 -6 32 42 59
184 28 144z"/>
<path d="M3520 741 c0 -27 -19 -31 -196 -45 -154 -12 -191 -23 -166 -48 9 -9
51 -8 183 5 180 18 209 26 209 57 0 10 5 22 10 25 15 9 2 25 -21 25 -12 0 -19
-7 -19 -19z"/>
<path d="M1861 737 c-15 -18 -11 -99 5 -104 14 -5 25 72 15 99 -6 17 -9 18
-20 5z"/>
<path d="M1991 674 c-24 -30 -28 -64 -8 -64 13 0 43 77 34 87 -3 2 -14 -8 -26
-23z"/>
<path d="M2281 674 c-21 -27 -28 -64 -13 -64 11 0 47 78 40 86 -3 3 -15 -7
-27 -22z"/>
<path d="M2323 659 c-16 -16 -17 -59 -3 -59 14 0 22 23 18 50 -2 17 -5 19 -15
9z"/>
<path d="M1833 618 c-4 -7 -23 -44 -41 -82 -24 -48 -31 -71 -23 -79 7 -7 19
10 41 57 32 72 46 116 37 116 -3 0 -9 -6 -14 -12z"/>
<path d="M2037 527 c-28 -59 -35 -93 -17 -82 20 12 51 87 47 113 -3 24 -6 21
-30 -31z"/>
<path d="M2138 568 c-20 -16 -58 -78 -58 -95 0 -7 7 -13 15 -13 8 0 15 6 15
13 0 7 12 29 26 50 28 41 29 66 2 45z"/>
<path d="M2185 560 c-27 -44 -41 -160 -15 -134 7 8 40 120 40 138 0 10 -18 7
-25 -4z"/>
<path d="M504 549 c-4 -7 -19 -44 -34 -83 -23 -58 -31 -70 -48 -68 -11 2 -22
-4 -27 -15 -12 -32 -19 -183 -7 -183 12 0 22 24 22 56 0 14 7 27 16 31 8 3 20
17 25 31 9 24 10 24 24 6 11 -15 16 -16 26 -7 10 10 10 18 1 38 -6 14 -16 25
-22 25 -16 0 -12 24 19 104 16 42 25 76 21 76 -5 0 -12 -5 -16 -11z"/>
<path d="M1680 504 c-12 -32 -13 -94 -1 -94 5 0 12 17 16 38 3 20 9 47 12 60
7 31 -15 28 -27 -4z"/>
<path d="M567 513 c-32 -57 -53 -241 -29 -265 15 -15 12 -28 27 132 12 131 12
150 2 133z"/>
<path d="M1365 491 c-50 -8 -68 -19 -61 -37 5 -13 -24 -42 -73 -74 -19 -13
-21 -18 -9 -27 20 -17 87 15 147 72 l50 47 53 -17 c99 -33 100 -36 17 -57 -90
-22 -226 -89 -264 -129 -42 -43 -24 -45 32 -3 80 61 225 112 331 115 29 1 55
5 57 9 7 11 -23 34 -93 74 -66 37 -97 42 -187 27z"/>
<path d="M1626 491 c-4 -7 -5 -15 -2 -18 9 -9 19 4 14 18 -4 11 -6 11 -12 0z"/>
<path d="M1721 456 c-22 -23 -26 -64 -6 -58 10 3 38 72 32 79 -2 1 -14 -8 -26
-21z"/>
<path d="M256 415 c-9 -25 -7 -108 4 -125 15 -23 22 -6 23 59 2 61 -14 99 -27
66z"/>
<path d="M326 368 c-29 -71 -36 -102 -21 -106 6 -1 22 28 38 65 39 98 40 103
24 103 -9 0 -26 -26 -41 -62z"/>
<path d="M2000 381 c-5 -11 -10 -32 -10 -47 0 -25 2 -26 14 -14 18 19 31 80
17 80 -6 0 -15 -9 -21 -19z"/>
<path d="M2086 378 c-18 -25 -21 -54 -6 -63 7 -4 50 65 50 82 0 12 -32 -1 -44
-19z"/>
<path d="M942 342 c-10 -7 -10 -14 3 -38 16 -30 20 -68 8 -62 -5 2 -20 10 -36
17 -37 19 -43 9 -19 -36 14 -27 25 -37 38 -35 11 2 31 6 46 9 43 8 75 -4 82
-32 8 -32 36 -33 36 -2 0 12 -6 47 -14 77 -7 30 -17 68 -21 85 -6 29 -7 29
-21 10 -14 -19 -16 -19 -45 -2 -35 19 -39 20 -57 9z m103 -110 c-8 -8 -25 10
-25 26 0 13 2 13 14 -4 8 -10 13 -21 11 -22z"/>
</g>
</svg>
