<?xml version="1.0" standalone="no"?>
<!DOCTYPE svg PUBLIC "-//W3C//DTD SVG 20010904//EN"
 "http://www.w3.org/TR/2001/REC-SVG-20010904/DTD/svg10.dtd">
<svg version="1.0" xmlns="http://www.w3.org/2000/svg"
 width="1280.000000pt" height="658.000000pt" viewBox="0 0 1280.000000 658.000000"
 preserveAspectRatio="xMidYMid meet">
<metadata>
Created by potrace 1.15, written by Peter Selinger 2001-2017
</metadata>
<g transform="translate(0.000000,658.000000) scale(0.100000,-0.100000)"
fill="#000000" stroke="none">
<path d="M11554 6558 c-24 -19 -46 -24 -134 -30 -58 -3 -136 -11 -175 -16 -76
-10 -200 -62 -250 -104 -16 -14 -46 -33 -65 -43 -50 -25 -176 -150 -218 -215
-19 -30 -51 -89 -70 -130 -20 -41 -44 -87 -53 -101 -10 -14 -28 -57 -40 -95
-34 -106 -39 -109 -156 -68 -54 18 -105 34 -115 34 -9 0 -49 11 -90 25 -153
53 -192 58 -381 57 -144 -1 -190 -5 -245 -21 -78 -23 -168 -36 -342 -51 -69
-6 -168 -17 -220 -25 -52 -8 -149 -19 -215 -24 -66 -6 -147 -18 -180 -27 -33
-8 -82 -16 -110 -15 -27 0 -72 -4 -100 -10 -81 -15 -273 -41 -380 -50 -204
-19 -220 -21 -246 -40 -18 -13 -44 -19 -78 -19 -38 0 -66 -8 -108 -30 -31 -16
-69 -30 -85 -30 -15 0 -56 -11 -90 -25 -34 -14 -76 -25 -94 -25 -30 0 -74 -30
-74 -50 0 -8 -269 -70 -365 -85 -22 -4 -78 -19 -125 -34 -47 -16 -107 -33
-135 -39 -109 -23 -279 -81 -328 -113 -60 -38 -182 -110 -259 -154 -36 -20
-64 -47 -88 -83 -20 -29 -58 -69 -84 -90 -52 -40 -110 -125 -175 -257 -21 -45
-46 -87 -55 -94 -9 -7 -16 -19 -16 -26 0 -7 -6 -18 -14 -24 -8 -7 -18 -31 -21
-54 -4 -23 -20 -57 -36 -77 -105 -130 -132 -160 -149 -165 -11 -4 -20 -10 -20
-14 0 -4 -11 -13 -25 -19 -17 -8 -25 -20 -25 -36 0 -16 -7 -27 -20 -31 -11 -3
-55 -36 -97 -72 -86 -73 -203 -151 -303 -203 -36 -18 -70 -36 -76 -39 -6 -3
-38 -24 -70 -46 -33 -22 -72 -47 -88 -55 -16 -8 -35 -25 -44 -37 -8 -13 -24
-23 -38 -23 -13 0 -28 -8 -33 -18 -5 -10 -29 -27 -53 -37 -24 -11 -49 -28 -56
-37 -7 -10 -20 -18 -29 -18 -9 0 -23 -7 -32 -15 -19 -18 -97 -74 -159 -113
-23 -15 -78 -53 -122 -84 -103 -74 -142 -99 -275 -173 -60 -34 -137 -78 -170
-99 -66 -41 -112 -56 -169 -56 -21 0 -64 -6 -95 -14 -31 -8 -85 -17 -121 -21
-91 -9 -411 -61 -495 -80 -105 -24 -364 -111 -483 -162 -135 -58 -273 -131
-392 -208 -52 -34 -138 -82 -190 -107 -52 -25 -152 -73 -221 -107 -69 -33
-130 -61 -134 -61 -5 0 -99 -44 -209 -99 l-201 -98 -145 -11 c-158 -12 -211
-26 -465 -127 -191 -76 -208 -91 -290 -254 l-46 -93 21 -72 c21 -68 71 -164
134 -253 16 -24 73 -79 126 -122 96 -79 98 -81 140 -178 100 -230 177 -362
245 -422 58 -51 110 -80 264 -149 128 -56 154 -65 239 -73 91 -10 97 -9 147
16 57 28 145 100 145 119 0 6 11 28 25 48 33 48 39 84 25 136 -13 49 -64 112
-90 112 -10 0 -27 8 -39 18 -26 21 -34 64 -64 353 l-23 216 34 39 c18 21 35
50 39 64 3 14 14 39 24 55 42 69 51 89 57 128 l7 42 115 57 c175 86 545 208
631 208 17 0 70 9 118 20 47 10 136 29 196 40 166 32 314 74 526 150 201 72
371 119 484 135 55 8 188 26 295 40 270 36 292 41 389 92 47 24 127 62 176 83
50 21 137 60 195 85 58 26 134 58 170 71 36 12 115 42 175 65 61 23 133 49
160 59 28 10 70 27 95 39 25 11 53 21 63 21 10 0 55 -18 100 -39 76 -37 191
-75 347 -118 43 -12 102 -18 175 -18 l110 0 82 60 c45 33 125 87 177 120 53
33 125 83 162 110 37 28 80 60 97 72 l31 23 27 -26 c44 -42 70 -33 278 94 66
40 133 78 150 85 33 12 35 11 137 -51 34 -20 128 -77 210 -126 82 -48 168
-101 192 -117 23 -16 47 -29 52 -29 12 0 32 -38 26 -49 -3 -5 -50 -14 -103
-20 -135 -17 -309 -59 -509 -126 -248 -83 -272 -90 -588 -170 -279 -72 -289
-73 -314 -57 -21 14 -50 17 -157 17 -121 -1 -138 -3 -255 -38 -298 -91 -385
-120 -397 -136 -7 -9 -24 -33 -39 -53 l-26 -37 47 -143 c102 -308 248 -622
408 -875 14 -22 49 -89 78 -148 47 -98 58 -112 128 -172 103 -88 124 -98 172
-84 23 7 49 26 68 50 31 38 31 39 26 142 -3 57 -11 158 -17 224 -21 192 -16
295 17 395 20 60 38 94 60 115 48 44 75 89 75 123 0 17 4 33 9 36 4 3 11 24
15 46 3 22 12 41 19 41 6 1 28 3 47 4 19 1 80 13 135 28 205 54 429 76 780 77
116 1 244 5 285 10 41 4 134 15 205 24 72 8 219 20 327 26 227 12 308 29 437
91 71 34 101 57 172 129 196 200 192 321 -23 620 -37 52 -117 167 -177 255
-60 88 -123 174 -139 190 -35 35 -68 92 -60 100 3 4 23 2 45 -4 47 -13 146
-14 187 -2 17 5 63 15 101 22 39 6 79 15 90 19 11 5 40 13 65 20 83 23 104 29
208 60 57 17 118 30 135 28 l32 -3 9 -105 c6 -66 6 -160 -1 -253 -8 -117 -7
-169 4 -245 8 -53 12 -127 9 -163 -11 -125 115 -609 261 -1004 85 -229 115
-287 191 -365 63 -64 71 -68 142 -85 58 -14 114 -17 245 -17 125 1 188 -3 237
-14 51 -13 83 -14 135 -8 73 10 73 9 61 79 -3 19 2 20 122 17 69 -2 133 -6
143 -9 40 -11 156 -283 323 -757 31 -89 105 -257 160 -368 36 -72 53 -94 96
-126 117 -86 165 -97 453 -97 165 0 252 5 351 19 118 18 151 18 355 8 226 -10
299 -6 325 20 20 20 7 47 -25 54 -14 3 -62 14 -105 25 -44 10 -90 19 -103 19
-13 0 -23 6 -23 13 0 9 27 16 83 23 141 18 170 46 126 124 -26 45 -38 50 -204
80 -107 19 -287 77 -340 110 -42 26 -74 25 -175 -5 -70 -21 -104 -25 -207 -25
-118 0 -126 1 -180 30 -31 17 -61 30 -68 30 -87 0 -231 558 -300 1171 -14 120
-67 469 -101 664 -27 160 -64 291 -123 442 -32 82 -68 177 -79 213 -32 99 -71
320 -83 465 -13 160 -31 283 -53 355 -10 30 -20 80 -23 110 -4 49 -2 61 21 94
14 21 28 54 32 75 8 49 30 118 71 231 34 92 35 98 29 194 -3 55 -9 116 -12
135 -8 52 9 67 111 102 114 40 160 37 409 -21 258 -61 311 -53 336 51 10 42
17 52 44 63 21 9 37 25 46 47 8 19 26 49 42 67 16 18 28 45 28 60 0 38 11 51
61 77 52 25 63 61 32 104 -39 53 -55 117 -48 183 8 65 13 72 100 142 l35 28
-6 102 c-7 106 2 146 31 146 22 0 83 58 111 106 54 93 49 150 -20 221 -22 23
-61 67 -85 98 -26 33 -54 58 -70 61 -34 9 -51 23 -62 51 -5 13 -16 26 -26 30
-9 4 -27 18 -39 32 -18 21 -29 24 -70 23 -45 -2 -51 1 -69 31 -12 19 -30 33
-45 35 -14 2 -32 9 -40 16 -25 21 -98 46 -134 46 -19 0 -45 -9 -62 -22z
m-1360 -2586 c13 -22 76 -409 100 -617 5 -49 49 -254 67 -315 9 -32 12 -106
11 -261 -3 -201 -1 -225 23 -329 14 -62 43 -167 66 -234 22 -67 51 -166 64
-221 24 -102 120 -382 136 -399 5 -6 9 -20 9 -33 0 -21 -4 -23 -54 -23 -77 0
-354 29 -401 42 -22 6 -112 14 -200 17 -144 5 -163 8 -191 28 -37 26 -41 44
-94 337 -6 36 -10 240 -10 510 0 385 -3 463 -17 536 -20 102 -22 236 -4 305 7
28 17 129 23 225 l10 175 29 28 c17 15 38 27 48 27 9 0 21 4 27 9 13 13 155
87 183 96 13 4 31 13 40 21 92 76 124 94 135 76z"/>
</g>
</svg>
