<?xml version="1.0" standalone="no"?>
<!DOCTYPE svg PUBLIC "-//W3C//DTD SVG 20010904//EN"
 "http://www.w3.org/TR/2001/REC-SVG-20010904/DTD/svg10.dtd">
<svg version="1.0" xmlns="http://www.w3.org/2000/svg"
 width="1280.000000pt" height="640.000000pt" viewBox="0 0 1280.000000 640.000000"
 preserveAspectRatio="xMidYMid meet">
<metadata>
Created by potrace 1.15, written by Peter Selinger 2001-2017
</metadata>
<g transform="translate(0.000000,640.000000) scale(0.100000,-0.100000)"
fill="#000000" stroke="none">
<path d="M10180 5374 c-554 -46 -1109 -221 -1565 -494 -570 -341 -961 -796
-1101 -1285 -12 -44 -25 -101 -29 -126 -12 -84 -137 -226 -265 -303 l-62 -36
-1841 -335 -1842 -335 -75 11 c-70 10 -118 5 -780 -80 -817 -106 -1923 -249
-2255 -291 l-230 -29 -52 -57 c-66 -71 -88 -126 -80 -198 12 -115 65 -191 172
-243 l52 -26 869 173 c2397 476 2293 454 2364 493 46 25 92 40 155 51 50 8
131 22 180 31 270 48 392 69 540 95 140 24 249 44 543 95 45 8 120 22 167 30
47 8 124 22 173 30 48 9 123 22 167 30 44 8 119 21 168 30 48 8 126 22 175 30
48 9 125 23 172 31 47 8 137 24 200 35 63 11 138 24 165 29 28 5 102 18 165
29 63 11 153 27 200 35 47 8 126 22 175 31 50 9 140 25 200 35 114 21 259 25
333 11 50 -10 169 -88 214 -141 16 -19 55 -79 86 -132 272 -464 814 -794 1540
-938 l63 -13 -57 -23 c-115 -47 -179 -127 -171 -215 5 -63 42 -135 84 -163 19
-13 30 -25 24 -27 -19 -7 122 -14 271 -14 80 0 150 3 154 8 18 17 -19 29 -95
31 -77 1 -79 1 -44 13 20 7 41 17 47 22 6 5 72 10 146 11 158 2 149 2 530 -9
l295 -8 47 26 c27 14 48 29 48 32 0 4 -12 10 -26 13 -18 5 -24 12 -20 22 7 18
-34 84 -52 84 -9 0 -9 9 3 37 15 36 15 37 -12 67 -16 17 -32 33 -36 37 -5 3
-5 18 -1 32 4 19 13 27 28 27 55 0 355 71 514 121 895 285 1576 904 1747 1588
38 153 48 249 42 404 -13 353 -144 655 -400 923 -161 169 -306 277 -528 393
-265 139 -541 223 -904 277 -95 14 -590 27 -695 18z m93 -157 c3 -8 8 -39 12
-69 l7 -56 -64 -11 c-99 -17 -95 -19 -107 52 -15 88 -16 85 37 90 99 7 110 7
115 -6z m217 -6 c0 -10 3 -32 6 -49 7 -33 7 -33 -137 -58 l-36 -6 -7 49 c-4
26 -9 56 -12 66 -5 15 4 17 90 17 87 0 96 -2 96 -19z m212 -3 c20 -31 3 -43
-80 -56 -46 -8 -85 -12 -87 -10 -2 2 -7 23 -11 47 l-7 44 88 -6 c55 -4 92 -11
97 -19z m-612 -69 c7 -39 10 -73 7 -76 -7 -7 -141 -32 -146 -28 -6 7 -31 149
-26 153 7 8 75 20 117 21 l36 1 12 -71z m760 62 c21 -6 16 -9 -28 -15 -29 -3
-58 -9 -66 -12 -8 -3 -16 3 -19 15 -5 19 -1 21 41 20 26 -1 58 -4 72 -8z
m-951 -63 c23 -117 26 -111 -62 -126 -43 -8 -80 -12 -82 -10 -8 7 -29 147 -24
153 5 4 92 24 151 34 4 0 11 -23 17 -51z m1162 24 c4 -4 9 -28 12 -54 l6 -46
-50 -11 c-93 -20 -94 -20 -105 54 -6 36 -8 68 -5 71 8 8 134 -5 142 -14z
m-167 -52 c4 -28 9 -56 12 -64 4 -10 -9 -17 -46 -25 -94 -20 -94 -20 -105 71
l-7 55 64 9 c34 6 66 9 69 7 4 -1 9 -25 13 -53z m-1185 -36 c7 -42 11 -77 9
-79 -4 -5 -171 -36 -173 -33 -4 5 -26 140 -23 143 4 3 150 42 164 44 5 0 16
-33 23 -75z m1467 61 c57 -15 83 -29 72 -40 -9 -9 -127 -29 -133 -23 -3 3 -9
22 -12 42 -7 42 -6 42 73 21z m-448 -62 c6 -37 9 -69 7 -71 -4 -5 -138 -30
-161 -31 -13 -1 -19 18 -29 90 l-7 46 84 15 c45 9 86 16 89 17 3 1 11 -29 17
-66z m-209 -30 c6 -31 11 -62 11 -69 0 -7 -27 -17 -67 -24 -38 -6 -77 -13 -89
-16 -18 -5 -22 2 -33 62 -6 36 -10 68 -8 70 4 5 132 31 158 33 12 1 19 -14 28
-56z m-1026 34 c3 -8 8 -38 12 -69 l7 -54 -93 -17 c-51 -9 -94 -15 -96 -14 -1
2 -5 28 -9 59 l-6 56 73 25 c86 30 105 32 112 14z m1928 -21 c33 -14 37 -19
43 -66 4 -28 4 -54 2 -59 -3 -5 -25 -11 -48 -15 -24 -4 -57 -9 -75 -12 l-31
-6 -13 79 c-7 43 -12 80 -11 83 2 9 47 19 72 15 14 -2 41 -11 61 -19z m-1118
-9 c3 -8 8 -39 12 -69 l7 -55 -70 -11 c-39 -7 -75 -12 -80 -12 -9 0 -37 128
-30 135 4 4 108 22 134 24 12 0 24 -5 27 -12z m960 -29 c3 -24 9 -62 13 -84
l6 -42 -67 -11 c-37 -7 -69 -11 -70 -9 -4 4 -25 132 -25 151 0 11 15 18 53 25
85 16 84 16 90 -30z m-1150 -10 c3 -13 9 -44 12 -70 l7 -47 -38 -7 c-22 -4
-57 -8 -78 -8 l-40 -1 -11 63 c-9 46 -9 65 -1 67 11 4 111 22 132 24 7 0 14
-9 17 -21z m985 -42 c20 -105 21 -102 -51 -115 -35 -6 -66 -11 -69 -11 -3 0
-11 30 -18 68 -6 37 -14 74 -16 83 -3 12 8 18 53 26 94 17 88 20 101 -51z
m532 -6 c0 -5 -121 -30 -127 -26 0 0 -4 22 -8 48 l-7 47 71 -31 c39 -18 71
-35 71 -38z m-2346 29 c14 -72 13 -74 -70 -88 -42 -7 -77 -11 -79 -9 -2 2 -5
19 -7 38 -3 33 -2 35 62 62 36 15 70 28 76 28 6 0 14 -14 18 -31z m654 -64 c5
-33 8 -62 7 -64 -4 -3 -143 -31 -156 -31 -8 0 -15 27 -24 91 l-7 47 79 14 c43
8 81 12 84 9 4 -3 11 -33 17 -66z m989 0 c6 -39 12 -75 12 -81 1 -10 -127 -40
-134 -32 -4 4 -25 132 -25 150 0 10 17 18 53 25 80 16 80 16 94 -62z m-167
-35 c7 -45 11 -82 9 -84 -7 -7 -164 -34 -170 -30 -8 4 -32 154 -26 160 4 5
131 31 158 33 13 1 19 -16 29 -79z m-1021 13 c6 -31 11 -62 11 -68 0 -7 -31
-17 -77 -25 -42 -6 -82 -14 -88 -16 -12 -5 -40 125 -30 135 5 4 126 28 156 30
12 1 19 -14 28 -56z m-639 7 c0 -30 -2 -31 -95 -46 -22 -3 -48 -8 -57 -11 -10
-2 -18 0 -18 6 0 13 151 91 163 84 4 -2 7 -17 7 -33z m432 -72 l3 -52 -88 -16
c-48 -9 -89 -14 -91 -11 -8 12 -26 125 -21 129 3 3 44 13 93 22 101 18 99 19
104 -72z m1019 17 c6 -41 11 -78 11 -82 -1 -5 -40 -15 -87 -24 -85 -16 -85
-16 -90 5 -19 91 -26 138 -21 144 7 6 120 30 153 31 19 1 23 -7 34 -74z m1105
-7 c7 -40 13 -78 13 -84 1 -10 -119 -38 -127 -29 -9 8 -33 157 -27 164 7 7
118 29 124 24 2 -1 10 -35 17 -75z m114 38 c53 -32 77 -53 82 -71 4 -17 2 -28
-5 -30 -24 -8 -139 -26 -143 -22 -3 2 -34 153 -34 165 0 11 38 -5 100 -42z
m-1427 -71 c9 -44 14 -82 11 -84 -8 -8 -149 -29 -155 -23 -7 8 -31 153 -27
158 3 3 152 32 155 30 1 -1 8 -37 16 -81z m1137 83 c0 -2 7 -41 15 -88 8 -47
15 -86 15 -86 0 -7 -154 -24 -160 -17 -8 9 -33 154 -27 160 7 6 157 35 157 31z
m-2168 -100 l3 -52 -45 -8 c-25 -4 -59 -10 -76 -13 l-32 -6 -11 67 c-7 36 -11
68 -9 69 2 2 37 9 78 17 87 16 87 15 92 -74z m833 30 c3 -18 9 -55 14 -81 6
-34 5 -50 -3 -52 -20 -7 -117 -25 -130 -25 -12 0 -31 74 -39 150 -2 10 15 18
58 26 92 18 93 18 100 -18z m1150 0 c3 -18 9 -55 14 -83 5 -27 8 -51 7 -53 -6
-5 -127 -24 -131 -20 -6 6 -35 161 -31 165 5 5 86 21 113 22 17 1 23 -6 28
-31z m-2176 -28 c19 -88 21 -85 -71 -102 -96 -16 -95 -17 -100 74 l-3 52 60
12 c104 20 102 20 114 -36z m848 -40 c19 -101 21 -96 -54 -110 -38 -6 -74 -12
-82 -13 -11 -2 -19 20 -29 76 -8 43 -11 81 -8 84 7 7 126 31 146 29 10 -1 19
-22 27 -66z m1157 48 c18 -82 27 -140 24 -144 -9 -8 -120 -25 -132 -21 -12 5
-42 154 -33 163 5 6 84 21 114 23 16 1 24 -6 27 -21z m-2198 -125 c-9 -10
-136 -31 -140 -24 -2 3 -7 31 -11 62 -8 66 -6 68 75 85 l55 11 13 -65 c8 -35
11 -66 8 -69z m2974 117 c0 -5 -4 -10 -10 -10 -5 0 -10 5 -10 10 0 6 5 10 10
10 6 0 10 -4 10 -10z m-937 -82 c8 -46 14 -84 13 -86 -7 -6 -128 -24 -133 -19
-7 8 -35 158 -30 163 5 6 85 21 113 23 20 1 24 -8 37 -81z m-1191 -5 c9 -53
10 -80 3 -84 -19 -13 -157 -31 -165 -23 -7 9 -33 155 -28 159 5 3 122 22 149
24 26 1 27 -2 41 -76z m1013 35 c11 -53 25 -142 22 -145 -5 -5 -169 -35 -172
-31 -6 6 -33 163 -29 167 5 6 122 29 151 30 16 1 24 -6 28 -21z m1213 -24 c71
-63 69 -78 -13 -94 -36 -7 -67 -11 -69 -9 -6 8 -24 134 -19 142 11 19 53 3
101 -39z m-3249 -20 c11 -56 8 -59 -58 -69 -25 -3 -54 -8 -63 -11 -14 -4 -18
1 -18 23 0 23 11 35 62 70 34 24 63 41 65 40 2 -2 7 -26 12 -53z m806 24 c3
-18 9 -55 14 -83 5 -27 8 -51 7 -53 -2 -1 -43 -9 -91 -18 -66 -11 -90 -12 -95
-4 -8 13 -33 151 -28 155 2 1 145 28 180 34 4 1 10 -14 13 -31z m2320 -42 c3
-27 9 -54 11 -61 4 -8 -19 -16 -71 -25 -41 -7 -78 -11 -81 -8 -8 9 -28 127
-22 133 3 3 36 12 74 19 78 14 78 15 89 -58z m-1289 -28 c7 -40 13 -78 13 -85
1 -6 -29 -16 -71 -23 -40 -6 -80 -14 -89 -16 -14 -4 -19 10 -29 76 -7 44 -12
83 -12 87 1 8 164 43 171 37 2 -2 10 -36 17 -76z m-1251 30 c3 -18 9 -55 14
-83 5 -27 9 -51 8 -52 -1 -1 -37 -8 -80 -16 -76 -14 -77 -14 -82 7 -18 84 -26
138 -22 142 3 4 117 29 149 33 4 1 10 -14 13 -31z m2355 -35 c8 -51 8 -68 -1
-73 -15 -10 -110 -23 -116 -16 -3 3 -11 34 -17 70 l-13 65 41 10 c90 20 93 19
106 -56z m-1310 -39 c7 -47 11 -86 9 -88 -6 -5 -151 -27 -155 -24 -1 2 -9 40
-17 86 -14 81 -14 82 7 87 26 6 117 22 132 24 6 1 16 -36 24 -85z m1148 9 c6
-37 10 -69 8 -70 -2 -2 -37 -10 -79 -17 -86 -15 -79 -19 -92 59 -3 22 -8 47
-11 56 -3 13 7 18 48 26 29 6 67 11 84 12 31 1 31 0 42 -66z m-2382 20 c3 -21
10 -56 15 -78 4 -22 5 -43 1 -46 -8 -7 -162 -32 -166 -27 -4 5 -26 133 -26
151 0 10 17 18 58 25 106 18 110 17 118 -25z m1043 -60 c6 -39 11 -76 11 -82
0 -13 -138 -37 -149 -25 -9 10 -34 154 -28 160 8 8 142 30 148 25 3 -3 11 -38
18 -78z m1147 15 c5 -35 8 -67 9 -73 0 -5 -20 -13 -45 -17 -25 -4 -55 -10 -66
-13 -19 -4 -23 2 -33 52 -18 90 -18 90 42 101 89 16 84 19 93 -50z m-2756 32
c0 -15 -7 -20 -27 -20 l-28 0 25 20 c31 24 30 24 30 0z m370 -52 c6 -40 13
-78 15 -85 4 -11 -131 -40 -141 -30 -4 4 -33 155 -30 158 2 2 119 26 133 28 7
0 16 -28 23 -71z m1045 20 c3 -18 9 -55 14 -83 5 -27 8 -51 7 -52 -4 -4 -159
-33 -162 -30 -6 6 -32 162 -28 167 6 6 109 27 141 29 17 1 23 -6 28 -31z
m1174 -33 c6 -36 9 -70 6 -74 -3 -5 -32 -12 -65 -16 -33 -4 -63 -8 -67 -8 -6
-2 -34 134 -29 139 2 3 109 21 127 23 12 1 19 -16 28 -64z m-2391 -29 c8 -42
12 -79 9 -82 -8 -8 -128 -26 -134 -20 -11 10 -33 150 -26 157 9 8 112 28 128
25 5 -2 16 -37 23 -80z m3386 28 c26 -30 46 -57 44 -60 -3 -2 -25 -7 -50 -10
l-45 -6 -11 58 c-7 31 -12 61 -12 66 0 22 30 3 74 -48z m-95 -4 c18 -84 21
-81 -80 -95 l-46 -7 -7 49 c-4 26 -9 55 -12 64 -4 13 6 19 43 27 89 18 90 18
102 -38z m-2275 23 c7 -24 26 -133 26 -149 0 -9 -134 -38 -167 -36 -7 1 -45
164 -40 168 2 1 150 30 169 33 4 1 9 -7 12 -16z m1202 -53 c6 -36 10 -68 8
-71 -2 -4 -26 -9 -54 -13 -28 -4 -56 -9 -64 -12 -15 -6 -21 12 -32 93 l-6 51
53 10 c81 15 82 14 95 -58z m-2396 3 c6 -32 13 -70 16 -85 6 -28 11 -25 -86
-44 -32 -6 -29 -13 -50 99 -7 32 -10 60 -8 61 2 3 73 18 110 25 4 0 12 -25 18
-56z m3304 -16 c4 -32 6 -60 4 -63 -3 -2 -37 -11 -76 -18 -80 -15 -73 -21 -87
75 l-7 46 54 10 c96 19 102 16 112 -50z m-1076 -14 c6 -36 9 -70 7 -73 -6 -9
-164 -34 -171 -28 -7 8 -27 128 -21 134 5 5 131 31 158 33 12 1 19 -15 27 -66z
m-1229 -24 c7 -45 9 -85 4 -89 -8 -7 -136 -30 -166 -30 -11 0 -18 20 -26 68
-7 37 -14 74 -17 83 -4 13 11 19 78 31 46 9 90 16 99 17 12 1 18 -17 28 -80z
m2120 9 c6 -34 8 -64 5 -67 -3 -3 -32 -11 -64 -17 -67 -12 -65 -14 -75 68 l-7
55 49 11 c82 17 80 18 92 -50z m-3265 0 c3 -29 9 -62 12 -74 5 -18 -1 -22 -53
-31 -32 -6 -60 -9 -62 -7 -2 1 -7 18 -11 36 -7 31 -4 36 44 80 28 26 54 48 57
48 3 0 9 -24 13 -52z m2165 -15 c6 -31 11 -62 11 -69 0 -11 -34 -21 -141 -39
l-35 -7 -13 67 c-6 37 -9 70 -6 74 8 7 108 28 146 30 24 1 27 -4 38 -56z
m-1239 -34 c15 -93 14 -93 -59 -104 -25 -3 -55 -9 -67 -11 -19 -5 -22 1 -34
73 -7 43 -13 82 -14 88 0 5 26 15 59 21 106 21 100 25 115 -67z m2177 19 c6
-35 10 -64 8 -66 -5 -6 -150 -30 -156 -26 -6 3 -21 97 -20 121 0 7 97 28 142
32 12 1 19 -14 26 -61z m-1142 -50 l7 -56 -64 -11 c-99 -17 -95 -19 -107 55
-7 37 -10 68 -8 71 3 2 38 10 78 16 85 15 83 17 94 -75z m-1228 11 c20 -109
23 -104 -56 -118 -110 -18 -96 -32 -127 130 -5 26 -3 27 73 42 43 8 83 13 88
12 6 -1 15 -31 22 -66z m2179 3 c4 -31 7 -59 8 -62 1 -6 -126 -31 -132 -25 -6
6 -21 84 -22 111 0 18 8 22 63 31 34 5 65 8 69 6 4 -2 10 -29 14 -61z m883
-36 c15 -85 15 -85 -86 -90 -14 -1 -20 13 -30 64 -19 100 -20 97 40 107 34 6
54 5 58 -2 4 -5 12 -41 18 -79z m-2036 52 c3 -13 9 -44 12 -70 7 -44 6 -47
-16 -52 -78 -17 -124 -24 -127 -21 -3 2 -10 34 -17 70 -14 74 -16 70 55 84 75
15 87 13 93 -11z m986 -44 c6 -37 11 -67 9 -69 -7 -5 -134 -22 -140 -19 -6 4
-21 100 -20 121 1 5 29 13 64 19 35 6 66 12 69 13 3 0 11 -29 18 -65z m-2225
39 c11 -38 27 -145 22 -150 -3 -3 -34 -11 -71 -18 -74 -14 -63 -24 -85 83 -15
80 -15 79 43 90 77 14 85 14 91 -5z m3126 -50 c6 -38 12 -75 13 -83 2 -11 -16
-18 -62 -28 -35 -7 -66 -10 -69 -8 -4 4 -32 142 -32 157 0 6 83 25 121 28 13
1 19 -14 29 -66z m-2064 -15 c5 -35 8 -67 9 -73 0 -9 -104 -33 -146 -35 -13 0
-20 16 -29 65 -7 36 -10 69 -7 72 6 6 117 30 149 32 12 1 18 -13 24 -61z m990
-6 c4 -31 7 -59 8 -62 1 -6 -126 -31 -132 -25 -6 6 -21 84 -22 111 0 18 8 22
63 31 34 5 65 8 69 6 4 -2 10 -29 14 -61z m-2711 8 c-5 -9 -65 -19 -65 -11 0
3 12 18 27 33 27 28 27 28 35 7 5 -11 6 -24 3 -29z m498 -32 c8 -46 14 -85 12
-87 -8 -7 -136 -28 -139 -22 -6 10 -26 123 -26 147 0 19 8 24 53 32 89 16 83
21 100 -70z m3112 60 c10 -47 25 -141 22 -143 -3 -3 -131 -25 -144 -25 -5 0
-15 29 -21 64 -19 103 -20 101 46 113 87 15 91 15 97 -9z m394 -40 l23 -38
-25 0 c-21 0 -27 6 -32 33 -4 17 -9 41 -12 52 -5 18 -3 18 9 5 8 -8 25 -32 37
-52z m-1461 -25 c6 -37 10 -68 9 -68 -1 -1 -41 -8 -89 -17 l-86 -15 -12 64
c-7 35 -11 65 -9 67 3 3 117 26 170 35 3 1 11 -29 17 -66z m-2218 -24 c7 -46
9 -84 4 -89 -5 -4 -32 -11 -60 -15 l-51 -6 -15 83 c-8 46 -14 84 -13 86 3 3
84 19 106 21 12 1 18 -18 29 -80z m1199 24 c6 -31 11 -62 11 -68 0 -7 -27 -17
-62 -24 -35 -6 -75 -14 -89 -17 -25 -5 -26 -3 -38 67 -6 39 -10 73 -9 74 6 4
115 22 144 24 30 1 32 -1 43 -56z m1910 -12 c17 -109 24 -99 -80 -117 l-36 -6
-13 69 c-6 37 -12 75 -13 83 -2 12 62 33 119 39 6 1 16 -30 23 -68z m-3260
-30 c16 -101 17 -98 -39 -110 -28 -6 -55 -11 -59 -11 -7 0 -35 144 -33 167 1
8 49 19 93 22 25 1 27 -3 38 -68z m1134 47 c3 -13 9 -46 12 -74 l7 -50 -73
-13 c-41 -7 -83 -15 -94 -17 -19 -5 -22 2 -33 67 -7 39 -11 73 -10 74 2 1 122
24 179 34 4 1 9 -9 12 -21z m1026 -40 c6 -34 9 -64 6 -66 -5 -6 -132 -31 -156
-32 -13 0 -20 15 -28 62 -6 34 -9 63 -7 65 3 4 136 29 162 32 7 1 17 -26 23
-61z m940 -22 c7 -42 12 -79 10 -81 -2 -1 -38 -9 -81 -17 l-76 -14 -15 80 c-8
45 -13 83 -11 85 5 6 137 29 149 27 6 -2 16 -37 24 -80z m-3250 -17 c17 -99
18 -95 -49 -106 -68 -11 -62 -17 -80 86 -6 35 -8 67 -3 72 11 10 106 27 114
20 4 -3 12 -36 18 -72z m3060 -18 c6 -40 9 -76 7 -79 -6 -6 -84 -21 -112 -22
-19 0 -23 9 -34 75 -7 42 -10 79 -6 83 10 10 120 30 127 23 3 -3 11 -39 18
-80z m-1996 57 c3 -13 9 -46 12 -73 l7 -51 -77 -13 c-42 -7 -78 -11 -79 -9 -8
9 -27 131 -22 136 5 5 113 28 142 31 7 1 14 -9 17 -21z m1031 5 c8 -29 19
-113 14 -113 -9 0 -124 -21 -139 -26 -14 -4 -19 8 -28 62 -7 36 -11 68 -9 69
4 4 109 22 135 24 13 1 24 -6 27 -16z m-1205 -135 c1 -28 -1 -29 -94 -44 -22
-3 -47 -8 -57 -10 -13 -4 -18 8 -28 66 -7 39 -10 73 -9 74 2 2 40 10 84 17
l80 14 12 -45 c6 -25 12 -57 12 -72z m1016 88 c4 -19 8 -49 8 -67 l2 -32 -69
-13 c-38 -7 -72 -11 -76 -9 -6 4 -22 96 -21 122 0 7 89 27 138 32 7 0 15 -14
18 -33z m984 -42 c7 -42 10 -78 7 -81 -3 -4 -35 -12 -71 -18 l-65 -12 -5 31
c-3 17 -9 53 -14 81 -5 27 -8 52 -5 54 6 6 75 19 110 20 l31 1 12 -76z m1160
13 c13 -31 22 -59 20 -62 -3 -2 -23 -7 -46 -11 -45 -7 -45 -8 -59 89 l-6 48
33 -3 c30 -3 36 -9 58 -61z m-110 -13 c6 -37 11 -68 9 -69 -9 -8 -104 -23
-109 -17 -7 7 -29 125 -24 130 2 3 80 19 101 21 6 1 16 -29 23 -65z m-4092 -1
c4 -32 8 -62 8 -67 0 -9 -135 -40 -141 -33 -5 4 110 157 118 157 4 0 10 -26
15 -57z m2870 -29 c12 -63 12 -78 1 -85 -14 -9 -117 -24 -122 -18 -2 2 -11 39
-18 82 -15 76 -15 77 6 82 61 13 111 21 115 19 2 -2 10 -38 18 -80z m-991 8
c4 -31 7 -59 6 -62 -1 -6 -99 -28 -134 -29 -24 -1 -27 4 -37 49 -17 79 -19 77
67 93 42 7 80 12 84 10 4 -2 10 -29 14 -61z m-1047 -13 c7 -38 11 -72 10 -73
-2 -2 -33 -8 -69 -13 -75 -12 -76 -11 -86 64 -3 29 -7 56 -8 60 -1 7 85 27
130 32 6 1 16 -31 23 -70z m3115 11 c4 -33 7 -63 6 -67 -1 -13 -124 -32 -132
-20 -9 14 -21 118 -14 124 7 7 71 20 107 22 25 1 27 -2 33 -59z m-1245 -36 c7
-42 10 -78 7 -81 -6 -6 -130 -32 -157 -33 -12 0 -19 17 -28 69 -6 39 -11 76
-11 84 0 14 76 32 146 36 l31 1 12 -76z m-2048 25 c4 -19 10 -50 13 -70 l6
-36 -42 -6 c-24 -4 -57 -9 -74 -13 l-31 -6 -9 59 c-13 91 -15 87 51 99 33 7
64 11 70 10 5 -2 12 -18 16 -37z m1028 -20 c7 -34 10 -63 8 -65 -4 -4 -151
-34 -167 -34 -9 0 -32 121 -25 128 5 5 125 29 156 31 12 1 19 -14 28 -60z
m2098 4 c4 -32 8 -62 8 -68 0 -9 -32 -18 -111 -30 l-42 -6 -7 48 c-3 26 -9 58
-12 70 -4 19 1 22 49 31 106 19 106 19 115 -45z m-1289 -27 c18 -97 17 -104
-20 -111 -18 -3 -55 -10 -83 -15 -27 -5 -53 -6 -56 -2 -8 9 -32 152 -27 157 2
2 40 10 83 18 44 8 83 15 86 16 3 1 11 -28 17 -63z m-2015 32 c3 -13 9 -46 13
-74 l6 -52 -53 -7 c-30 -4 -56 -8 -59 -9 -4 -1 -10 26 -24 106 l-7 36 53 10
c29 5 56 10 59 11 4 0 9 -9 12 -21z m3116 -28 c17 -81 16 -87 -26 -94 -21 -4
-50 -9 -64 -12 -26 -5 -27 -3 -38 62 -7 36 -10 68 -8 70 5 5 83 21 109 23 12
1 19 -12 27 -49z m-2125 23 c3 -10 8 -39 11 -64 l7 -47 -92 -16 c-51 -10 -93
-16 -95 -14 -7 7 -25 122 -20 126 7 7 123 30 157 31 17 1 28 -5 32 -16z
m-1135 -53 c13 -60 14 -87 4 -93 -5 -3 -31 -8 -59 -12 l-50 -6 -13 67 c-6 36
-10 69 -7 72 6 5 68 19 98 21 12 1 19 -12 27 -49z m1945 23 c3 -16 8 -46 12
-68 3 -22 8 -47 10 -55 3 -13 -11 -19 -66 -28 -39 -7 -76 -12 -83 -12 -9 0
-18 27 -26 81 -7 45 -11 82 -9 84 3 3 114 22 140 24 10 1 18 -9 22 -26z m1155
-30 c6 -31 11 -62 11 -68 0 -12 -146 -42 -156 -33 -4 5 -24 104 -24 123 0 8
23 17 58 23 102 17 98 19 111 -45z m-2173 -41 l6 -48 -65 -12 c-96 -18 -93
-19 -106 49 -7 34 -11 62 -9 64 2 2 37 9 78 17 86 16 84 17 96 -70z m-1083 55
c3 -8 8 -39 12 -70 l7 -55 -57 -12 c-68 -14 -70 -12 -80 66 -9 72 -10 68 27
75 57 11 86 9 91 -4z m1917 -59 c6 -40 13 -78 15 -85 2 -7 -9 -15 -28 -18 -18
-3 -53 -9 -79 -14 l-46 -8 -15 81 c-8 45 -14 82 -12 84 2 2 120 27 147 31 3 1
11 -32 18 -71z m1149 6 c7 -37 10 -68 8 -70 -4 -5 -104 -24 -122 -24 -11 0
-42 128 -33 135 3 2 102 21 124 24 7 0 17 -27 23 -65z m1009 39 c23 -61 30
-93 23 -97 -4 -3 -30 -8 -58 -11 -57 -8 -58 -7 -69 74 -7 54 -3 57 62 60 26 1
34 -4 42 -26z m-4225 -48 c4 -25 9 -56 12 -68 6 -23 3 -24 -66 -36 -39 -6 -73
-10 -74 -9 -7 8 -24 132 -19 137 7 7 126 29 135 24 3 -1 9 -23 12 -48z m1036
5 c18 -84 20 -81 -64 -94 -22 -4 -52 -9 -67 -12 -25 -5 -27 -3 -38 51 -6 30
-10 61 -7 68 2 6 30 17 63 23 103 20 101 20 113 -36z m3055 13 c4 -21 9 -50
12 -65 5 -25 3 -27 -51 -38 -31 -6 -58 -10 -60 -8 -5 5 -23 123 -20 127 6 5
67 19 91 20 18 1 23 -6 28 -36z m-1045 -23 c20 -92 21 -91 -80 -105 l-47 -7
-11 52 c-18 86 -18 87 47 98 31 5 62 10 69 11 6 0 16 -22 22 -49z m-1161 -37
c7 -42 10 -78 7 -81 -5 -5 -129 -31 -151 -32 -9 0 -34 110 -34 153 0 14 71 33
136 36 l30 1 12 -77z m2067 -4 l7 -55 -63 -12 c-34 -6 -65 -9 -69 -7 -4 3 -11
30 -15 60 -3 30 -7 58 -8 62 -3 12 127 30 135 18 3 -5 9 -35 13 -66z m-3111
-20 l7 -46 -72 -12 c-39 -6 -73 -10 -74 -9 -1 2 -6 31 -12 65 l-9 62 50 10
c91 18 91 18 97 -4 3 -11 9 -41 13 -66z m-1008 -1 l6 -55 -57 -11 c-32 -7 -60
-11 -61 -9 -2 1 18 38 43 81 51 88 58 87 69 -6z m3043 16 c6 -37 10 -68 8 -70
-4 -5 -104 -24 -122 -24 -11 0 -42 128 -33 135 3 2 101 21 124 24 6 0 16 -29
23 -65z m-1191 -8 c20 -107 23 -102 -70 -119 -46 -9 -86 -12 -89 -9 -8 9 -31
153 -26 159 4 3 133 29 163 32 6 1 16 -28 22 -63z m2098 -4 c4 -31 6 -59 5
-62 -2 -7 -41 -17 -99 -25 l-49 -6 -12 61 c-7 34 -10 64 -8 66 7 7 141 31 149
27 4 -2 10 -29 14 -61z m-3122 -2 c4 -28 9 -56 12 -63 3 -10 -14 -17 -59 -25
-35 -7 -69 -12 -75 -12 -10 0 -36 120 -27 128 6 6 129 29 136 25 4 -1 9 -25
13 -53z m2039 28 c10 -44 19 -118 14 -118 -3 0 -41 -7 -84 -15 -43 -8 -81 -15
-84 -15 -4 0 -10 21 -14 48 -3 26 -9 57 -12 68 -4 20 2 23 74 37 105 20 100
20 106 -5z m-1228 -30 c3 -18 9 -55 14 -81 6 -34 5 -50 -3 -52 -6 -2 -48 -10
-94 -18 -61 -11 -84 -12 -87 -3 -8 26 -26 149 -22 153 6 5 136 31 164 32 17 1
23 -6 28 -31z m2124 -18 c17 -77 17 -76 -50 -89 -34 -7 -63 -11 -65 -8 -8 8
-27 118 -21 124 7 7 70 20 104 22 18 1 23 -7 32 -49z m-3115 25 c3 -8 8 -37
12 -64 l6 -49 -43 -7 c-24 -3 -51 -8 -60 -11 -12 -3 -18 9 -27 58 -12 67 -10
74 28 81 52 9 78 7 84 -8z m2009 -8 c3 -8 8 -39 12 -69 l7 -56 -73 -12 c-41
-6 -81 -12 -89 -13 -10 -2 -17 17 -25 65 l-12 67 51 10 c28 6 60 12 71 14 38
9 53 7 58 -6z m-2154 -47 c15 -67 14 -90 -3 -90 -7 0 -33 -3 -58 -6 l-45 -6
-7 38 c-4 22 -9 51 -12 66 -6 28 -10 26 108 47 3 0 11 -22 17 -49z m3095 23
c3 -16 8 -44 12 -64 l6 -37 -79 -13 c-89 -16 -86 -19 -98 68 l-7 51 54 10 c94
17 106 15 112 -15z m-2178 -20 c3 -21 10 -56 15 -78 4 -22 5 -43 1 -46 -9 -8
-144 -29 -152 -24 -8 5 -34 154 -28 160 4 4 107 22 135 24 18 1 23 -6 29 -36z
m3028 -73 c9 -65 9 -93 2 -95 -6 -2 -32 -8 -58 -13 l-47 -9 -10 49 c-6 26 -14
73 -17 102 l-7 54 54 9 c30 5 58 6 62 3 5 -4 14 -49 21 -100z m-1989 30 c4
-33 8 -63 8 -67 2 -6 -110 -30 -149 -32 -7 -1 -15 24 -19 56 -4 31 -9 61 -11
68 -3 7 23 17 73 26 43 9 81 14 85 12 3 -2 9 -30 13 -63z m-2106 10 c18 -85
20 -83 -70 -95 l-45 -7 -10 66 -10 66 35 6 c20 3 41 7 46 9 34 12 44 4 54 -45z
m3060 -12 c6 -34 9 -64 6 -66 -6 -6 -84 -21 -112 -22 -22 0 -23 3 -39 92 l-6
36 54 10 c89 16 85 18 97 -50z m-2179 -15 c6 -38 14 -75 16 -84 3 -12 -13 -18
-81 -30 -48 -9 -88 -12 -90 -9 -9 14 -28 151 -22 157 6 6 116 29 148 32 13 1
20 -15 29 -66z m3059 -10 c7 -43 15 -88 18 -99 5 -24 -4 -29 -69 -39 l-45 -7
-12 79 c-7 43 -15 88 -18 100 -4 19 1 23 39 31 76 17 73 19 87 -65z m-4095 7
c4 -28 9 -56 12 -64 4 -10 -11 -17 -59 -25 -35 -6 -68 -11 -74 -11 -9 0 -38
119 -30 126 5 5 94 22 118 23 24 1 27 -3 33 -49z m2072 -20 c6 -36 11 -65 10
-66 -4 -3 -122 -24 -137 -24 -13 0 -20 13 -28 50 -18 85 -18 86 47 97 94 17
94 17 108 -57z m968 43 c19 -99 19 -102 -5 -107 -133 -28 -123 -33 -134 57
l-7 55 53 10 c84 15 87 15 93 -15z m900 -5 c38 -179 39 -174 -36 -187 -34 -6
-65 -7 -69 -3 -3 4 -12 43 -19 86 -6 44 -14 85 -17 92 -3 8 11 16 39 22 75 17
97 15 102 -10z m-3104 -62 c7 -41 10 -78 6 -84 -3 -5 -27 -13 -53 -16 -27 -4
-55 -9 -64 -12 -14 -4 -19 10 -32 78 -8 46 -14 84 -13 86 5 4 89 20 117 21 25
1 27 -3 39 -73z m-1016 47 c3 -10 8 -39 11 -64 l7 -47 -52 -11 c-28 -6 -57
-11 -64 -11 -14 0 -43 117 -32 128 7 6 70 19 103 21 13 1 24 -6 27 -16z m2065
-49 c7 -37 10 -68 8 -70 -4 -5 -160 -35 -163 -31 -4 5 -23 131 -20 134 3 3 91
21 157 32 4 1 12 -29 18 -65z m985 24 c4 -24 9 -53 12 -64 6 -25 -3 -30 -78
-39 l-56 -7 -11 51 c-17 78 -16 78 42 89 85 16 84 16 91 -30z m915 -50 c7 -46
14 -90 17 -99 3 -12 -9 -18 -60 -27 -98 -18 -92 -23 -110 76 -9 48 -16 92 -16
98 0 12 72 31 126 33 l31 1 12 -82z m-3122 2 c19 -102 21 -97 -49 -106 -35 -5
-67 -8 -73 -9 -9 0 -40 154 -32 162 8 7 92 21 117 20 23 -2 26 -8 37 -67z
m2037 33 c19 -99 19 -102 -5 -107 -70 -15 -132 -26 -143 -26 -9 0 -18 22 -25
62 -6 34 -9 63 -7 65 4 4 134 30 158 32 10 1 18 -9 22 -26z m-1021 4 c3 -8 8
-39 12 -69 l7 -55 -81 -13 c-44 -7 -84 -13 -88 -14 -4 0 -13 29 -19 67 -12 76
-19 68 76 86 67 13 87 12 93 -2z m1922 -82 c10 -53 15 -98 13 -100 -8 -8 -118
-28 -123 -23 -9 8 -39 188 -33 193 5 6 81 22 110 24 13 1 20 -18 33 -94z
m-3119 48 c3 -21 10 -56 15 -78 4 -22 5 -43 0 -48 -4 -4 -32 -8 -61 -10 l-54
-2 -14 74 c-7 40 -11 75 -8 78 7 7 65 21 93 22 18 1 23 -6 29 -36z m-816 8 c0
-10 3 -32 6 -48 5 -27 3 -31 -23 -36 -15 -3 -29 -4 -31 -2 -2 2 5 26 15 54 18
52 33 66 33 32z m683 -123 c6 -42 0 -46 -77 -51 l-39 -2 -13 65 c-20 101 -21
97 44 106 l57 9 11 -45 c6 -25 13 -62 17 -82z m1133 56 c12 -73 22 -64 -90
-84 -96 -16 -93 -18 -101 50 -4 33 -7 63 -6 67 0 8 172 41 181 35 3 -2 10 -32
16 -68z m1008 59 c7 -27 19 -113 15 -113 -2 0 -42 -7 -89 -15 -47 -8 -86 -15
-86 -15 -2 0 -18 109 -19 125 0 5 27 15 60 21 90 17 113 17 119 -3z m950 -79
c9 -53 16 -98 14 -99 -4 -5 -158 -33 -158 -30 0 2 -7 39 -15 82 -23 120 -23
119 38 130 108 21 101 26 121 -83z m-3260 39 c3 -16 8 -46 12 -68 3 -22 8 -47
10 -56 4 -13 -5 -18 -33 -23 -21 -4 -50 -9 -64 -12 -26 -5 -27 -3 -39 63 -6
37 -14 76 -16 85 -4 13 6 18 48 26 29 5 58 10 65 11 6 0 14 -11 17 -26z m2111
-40 c4 -32 8 -60 8 -63 1 -5 -114 -29 -144 -30 -12 0 -19 16 -26 63 -6 34 -10
63 -8 65 5 5 150 29 156 25 4 -1 10 -29 14 -60z m958 -29 c10 -52 15 -99 12
-103 -2 -5 -27 -11 -55 -15 -28 -4 -56 -9 -64 -12 -9 -4 -17 21 -31 96 -9 56
-16 103 -14 104 4 3 96 22 125 25 6 0 18 -42 27 -95z m-1992 45 c21 -108 24
-97 -34 -108 -113 -23 -109 -24 -123 49 -6 36 -11 66 -9 68 4 4 140 30 150 28
5 -2 12 -18 16 -37z m-1225 -49 c20 -101 22 -96 -53 -108 -37 -6 -69 -9 -72
-7 -4 5 -30 130 -31 151 0 6 24 16 53 21 87 18 89 16 103 -57z m3049 -25 c10
-53 15 -99 11 -102 -3 -3 -35 -12 -70 -18 l-65 -12 -11 56 c-6 31 -15 75 -19
99 -6 30 -5 45 3 47 12 5 102 22 123 24 7 1 18 -37 28 -94z m-981 22 c4 -32 6
-60 4 -63 -3 -2 -37 -11 -76 -18 -80 -15 -73 -21 -87 76 l-7 46 54 10 c96 18
102 15 112 -51z m-1030 -7 c4 -33 8 -63 9 -67 1 -8 -109 -32 -150 -33 -18 0
-22 8 -29 53 -14 83 -15 81 51 93 113 22 111 22 119 -46z m-1220 23 c3 -16 8
-46 12 -68 3 -22 8 -47 10 -56 4 -13 -8 -18 -58 -26 -35 -6 -66 -9 -69 -7 -8
4 -32 154 -26 160 5 5 82 21 109 23 10 1 18 -9 22 -26z m3057 -60 c20 -124 23
-115 -51 -129 -36 -6 -66 -11 -67 -10 -2 2 -33 179 -33 192 0 10 60 25 126 33
6 0 17 -37 25 -86z m1359 40 c0 -27 -3 -71 -6 -100 -6 -47 -9 -53 -36 -58 -16
-4 -32 -4 -35 -1 -7 6 -32 140 -32 173 -1 22 14 28 82 32 26 1 27 -1 27 -46z
m-2351 -25 c6 -34 9 -64 6 -66 -3 -4 -141 -32 -156 -32 -8 0 -31 122 -24 128
5 5 119 29 146 31 13 1 19 -14 28 -61z m-1056 39 c3 -8 8 -39 12 -70 8 -63 17
-55 -87 -75 l-48 -9 -6 36 c-4 20 -8 52 -8 71 -1 37 1 38 125 59 4 1 9 -5 12
-12z m3276 -64 c7 -43 15 -88 18 -100 4 -20 0 -23 -46 -29 -28 -3 -54 -6 -58
-6 -8 1 -45 183 -39 189 3 3 80 20 102 22 7 1 16 -32 23 -76z m-4436 -10 c7
-43 11 -81 8 -84 -7 -8 -142 -32 -147 -26 -2 2 2 28 10 58 7 30 16 67 20 82 7
28 33 45 73 46 19 1 23 -8 36 -76z m3041 -19 c9 -53 14 -100 9 -104 -9 -8
-163 -34 -168 -28 -5 5 -37 190 -33 194 3 3 143 31 164 33 6 1 18 -41 28 -95z
m-1018 -3 l6 -49 -73 -12 c-41 -6 -81 -14 -90 -16 -14 -4 -18 6 -24 56 -4 33
-7 63 -6 67 0 5 37 15 83 24 95 18 92 20 104 -70z m-1027 12 c14 -77 13 -78
-63 -87 -28 -4 -55 -8 -61 -9 -5 -1 -15 28 -21 66 -10 65 -10 68 10 72 24 5
108 22 117 24 3 1 11 -29 18 -66z m3285 50 c9 -31 26 -136 26 -159 0 -20 -7
-23 -60 -29 -33 -4 -63 -8 -67 -8 -4 -1 -15 42 -23 95 l-16 96 45 10 c71 15
89 14 95 -5z m-1464 -7 c0 -2 7 -40 15 -83 24 -123 34 -111 -125 -138 l-36 -6
-16 97 c-10 54 -15 100 -13 102 11 11 175 37 175 28z m-1992 -81 c7 -40 7 -62
0 -66 -14 -9 -98 -20 -108 -14 -6 4 -22 94 -21 122 0 10 104 32 112 24 4 -3
11 -33 17 -66z m987 6 c7 -34 9 -63 6 -65 -3 -2 -43 -9 -88 -16 -46 -7 -86
-13 -90 -14 -6 -1 -35 127 -30 130 7 4 174 31 182 30 5 -1 14 -30 20 -65z
m2316 -23 c11 -62 13 -95 6 -100 -6 -3 -31 -9 -56 -13 -25 -3 -56 -9 -67 -12
-20 -4 -23 2 -33 64 -7 37 -14 82 -17 100 -6 31 -5 31 48 41 108 20 102 24
119 -80z m-1502 -32 c10 -53 15 -98 12 -100 -8 -6 -121 -26 -141 -26 -13 0
-20 21 -33 96 -10 53 -16 98 -15 100 4 3 152 31 156 29 1 -1 11 -46 21 -99z
m-1957 44 c4 -25 10 -55 13 -66 4 -19 -2 -23 -51 -33 -31 -6 -60 -9 -64 -6 -4
2 -10 27 -14 55 -4 28 -9 56 -12 64 -4 10 9 17 43 24 71 15 77 12 85 -38z
m3258 48 c0 -2 7 -41 15 -88 8 -47 15 -90 15 -96 0 -9 -119 -37 -128 -29 -3 3
-32 166 -32 181 0 7 21 16 48 22 48 10 82 14 82 10z m-2335 -75 c10 -55 10
-63 -4 -67 -29 -9 -143 -27 -146 -24 -5 6 -23 123 -19 127 6 6 127 30 143 28
10 -2 19 -23 26 -64z m-1070 -13 c4 -33 8 -63 8 -67 1 -4 -16 -11 -38 -15 -22
-4 -50 -10 -61 -13 -20 -4 -23 2 -34 61 -7 35 -10 68 -6 71 6 7 69 20 103 22
19 1 22 -6 28 -59z m1895 58 c1 -2 9 -47 19 -100 l17 -98 -35 -6 c-20 -3 -54
-10 -76 -14 -22 -5 -41 -8 -42 -6 -5 4 -33 161 -33 182 0 19 9 23 58 32 62 10
92 13 92 10z m1359 -65 c7 -38 14 -82 17 -99 l6 -30 -78 -12 c-42 -7 -79 -10
-82 -7 -6 6 -31 141 -31 171 -1 18 8 22 57 31 104 18 99 21 111 -54z m-2373
-26 l6 -55 -73 -12 c-41 -6 -79 -13 -86 -15 -7 -2 -15 21 -23 62 -6 36 -10 66
-8 68 2 1 39 9 83 17 92 16 91 16 101 -65z m-1037 2 c6 -34 8 -65 6 -69 -4 -6
-91 -23 -130 -25 -5 0 -15 30 -21 67 l-11 68 36 6 c20 3 41 7 46 9 6 2 22 4
36 4 25 1 28 -3 38 -60z m1884 -36 c9 -54 13 -100 9 -104 -8 -7 -152 -33 -156
-28 -6 7 -37 191 -33 195 3 4 126 30 153 33 6 1 18 -40 27 -96z m1335 30 c6
-38 14 -82 18 -99 l6 -32 -67 -11 c-37 -7 -69 -11 -70 -9 -4 4 -35 166 -35
182 0 11 53 25 126 35 6 0 16 -29 22 -66z m-2388 -9 c6 -30 9 -61 7 -68 -3 -7
-28 -16 -56 -20 -28 -4 -57 -9 -65 -12 -10 -4 -17 9 -25 46 -18 86 -18 87 47
98 31 5 62 10 69 11 6 0 17 -23 23 -55z m-1004 -11 c4 -32 8 -62 9 -67 0 -15
-126 -36 -130 -22 -8 24 -23 121 -19 125 5 6 73 18 105 20 25 1 27 -3 35 -56z
m3228 -30 c9 -49 16 -93 16 -99 0 -12 -128 -39 -137 -30 -7 6 -33 145 -33 172
0 18 9 23 63 31 34 6 65 11 68 12 4 0 14 -38 23 -86z m-1384 73 c0 -2 7 -40
15 -83 22 -114 24 -109 -47 -122 -35 -6 -75 -14 -89 -17 -26 -5 -26 -4 -40 88
-8 51 -14 97 -14 103 0 5 27 15 60 21 64 12 115 17 115 10z m-2005 -86 c4 -30
7 -57 7 -60 -1 -4 -195 -40 -199 -36 -1 1 0 34 4 73 l6 70 81 14 c54 10 83 11
87 4 4 -5 10 -35 14 -65z m992 23 c4 -32 8 -62 8 -68 0 -11 -134 -35 -140 -25
-2 3 -7 31 -11 61 -4 30 -8 56 -8 59 -1 4 96 26 131 29 7 1 15 -22 20 -56z
m2222 -30 c6 -38 14 -80 17 -94 5 -26 3 -27 -61 -39 -36 -7 -68 -10 -71 -8 -4
5 -34 163 -34 184 0 10 116 34 131 27 4 -2 12 -33 18 -70z m1301 55 c-1 -24
-27 -137 -30 -128 -1 3 -7 35 -14 72 -13 72 -15 67 37 77 4 0 7 -9 7 -21z
m-2701 -92 c13 -69 15 -99 7 -101 -25 -9 -171 -33 -177 -29 -5 3 -34 163 -34
189 0 8 174 46 183 40 1 -1 11 -46 21 -99z m-994 25 c7 -34 9 -63 6 -65 -3 -2
-31 -7 -62 -11 l-56 -7 -7 49 c-4 26 -9 56 -12 65 -4 13 6 18 48 26 29 5 57 9
63 8 5 -2 14 -30 20 -65z m3624 -8 c7 -43 14 -85 17 -94 3 -12 -8 -18 -52 -26
-40 -7 -57 -7 -60 1 -12 34 -33 171 -26 177 8 8 44 16 83 18 25 1 27 -2 38
-76z m-1400 0 c7 -38 14 -82 17 -99 l6 -31 -88 -17 c-48 -9 -88 -15 -89 -13
-4 5 -36 190 -33 192 2 2 135 29 169 34 4 1 12 -29 18 -66z m1245 40 c11 -42
27 -163 22 -171 -3 -6 -31 -13 -61 -17 -30 -3 -58 -7 -62 -8 -5 -2 -44 179
-39 184 1 1 103 23 128 28 4 0 9 -7 12 -16z m-3618 -60 l11 -62 -49 -10 c-74
-16 -73 -17 -85 52 -6 34 -9 64 -7 66 6 7 77 19 99 18 16 -2 22 -13 31 -64z
m904 65 c1 -2 9 -47 19 -101 12 -68 14 -100 7 -102 -26 -8 -147 -27 -150 -24
-5 7 -36 193 -32 196 6 6 156 35 156 31z m1250 -22 c0 -2 7 -40 15 -83 22
-116 26 -109 -65 -123 -44 -7 -83 -12 -87 -12 -7 1 -44 184 -39 190 4 3 137
29 159 31 9 0 17 -1 17 -3z m1311 -94 c16 -92 16 -92 -5 -97 -89 -18 -129 -25
-133 -22 -7 8 -34 179 -28 185 6 7 127 31 140 28 5 -1 17 -44 26 -94z m-3617
42 c11 -80 10 -82 -36 -89 -24 -3 -50 -9 -59 -11 -20 -6 -25 6 -34 79 l-7 56
33 4 c96 11 96 11 103 -39z m870 19 c11 -38 30 -173 25 -178 -3 -3 -32 -10
-65 -15 -32 -6 -68 -13 -80 -15 -19 -4 -22 3 -38 96 -10 55 -16 102 -14 103 4
4 116 23 145 25 13 0 24 -6 27 -16z m-1025 -59 c6 -37 11 -67 9 -68 -9 -7
-132 -25 -139 -21 -6 5 -23 100 -21 122 1 5 29 13 64 19 35 6 66 12 69 13 3 0
11 -29 18 -65z m2271 -42 c16 -92 16 -93 -4 -97 -68 -14 -128 -25 -135 -25 -5
0 -14 35 -20 78 -7 42 -15 87 -18 98 -4 19 2 23 54 32 107 18 105 20 123 -86z
m1304 71 c14 -72 27 -155 24 -157 -5 -4 -123 -24 -126 -21 -7 6 -33 168 -28
180 4 13 33 20 98 23 21 2 27 -3 32 -25z m-2740 -72 c9 -49 16 -95 16 -103 0
-10 -20 -18 -67 -25 -38 -6 -69 -9 -71 -8 -1 1 -11 46 -21 99 -13 69 -15 99
-7 101 6 2 36 8 66 13 30 5 58 10 61 11 4 0 14 -39 23 -88z m-1009 12 c4 -32
8 -60 9 -63 1 -4 -18 -8 -101 -23 l-32 -6 -8 57 c-4 31 -8 62 -8 67 0 10 113
35 126 28 4 -1 10 -29 14 -60z m3598 -25 c8 -51 12 -96 8 -99 -3 -4 -37 -12
-75 -18 -54 -10 -71 -9 -77 0 -9 15 -33 168 -27 174 4 4 52 15 149 34 3 0 13
-41 22 -91z m-1359 60 c38 -181 40 -172 -45 -187 -38 -7 -73 -10 -76 -7 -7 6
-32 140 -32 172 -1 18 7 23 62 31 34 6 68 11 74 12 7 0 15 -9 17 -21z m-1405
-65 c7 -43 15 -90 18 -104 5 -26 3 -27 -58 -35 -35 -5 -68 -8 -74 -9 -9 0 -47
186 -39 194 3 3 78 20 135 30 3 1 11 -34 18 -76z m-1006 54 c3 -8 8 -39 12
-70 7 -55 7 -57 -16 -57 -13 -1 -63 -9 -111 -18 -86 -18 -87 -18 -92 2 -6 21
-8 116 -3 117 1 0 45 8 97 18 52 10 98 19 101 20 4 0 9 -5 12 -12z m2240 -93
c10 -53 16 -99 14 -101 -4 -4 -161 -32 -163 -30 -4 6 -34 190 -32 193 3 2 116
26 159 33 3 1 13 -42 22 -95z m1336 24 c7 -40 14 -82 17 -94 5 -18 -2 -22 -62
-33 -36 -6 -68 -10 -70 -8 -7 7 -36 179 -31 183 5 6 85 21 113 23 19 1 22 -8
33 -71z m-2739 -45 c7 -46 12 -86 12 -90 -1 -5 -26 -13 -57 -19 -64 -13 -59
-19 -75 81 -6 39 -14 80 -16 91 -5 19 0 22 53 31 38 6 60 5 64 -2 4 -5 12 -47
19 -92z m2574 0 c9 -49 16 -91 16 -94 0 -9 -128 -31 -139 -25 -9 6 -36 174
-29 181 6 6 83 22 114 24 20 1 24 -8 38 -86z m-2739 55 c2 -13 11 -58 19 -100
15 -87 19 -81 -64 -93 l-45 -7 -17 99 c-9 54 -15 99 -14 101 3 3 82 19 103 21
7 1 15 -9 18 -21z m1364 -25 c5 -27 13 -71 16 -99 l7 -50 -86 -13 c-48 -7 -89
-12 -90 -10 -6 6 -34 184 -30 188 4 5 122 28 151 30 18 1 23 -7 32 -46z m1200
-50 c7 -43 14 -85 17 -94 4 -14 -8 -19 -62 -28 -36 -7 -68 -10 -71 -8 -7 8
-36 177 -31 183 6 5 84 21 114 23 19 1 23 -7 33 -76z m-2715 50 c3 -10 10 -47
16 -83 6 -36 13 -72 16 -81 4 -14 -7 -19 -58 -28 -34 -6 -63 -9 -65 -7 -8 7
-36 187 -30 192 7 8 64 22 94 23 13 1 24 -6 27 -16z m1315 -87 l17 -95 -45
-10 c-25 -5 -69 -13 -96 -16 l-51 -7 -16 94 c-9 51 -14 95 -12 97 5 6 178 38
183 35 2 -2 11 -46 20 -98z m2601 89 c0 -23 -57 -145 -68 -145 -7 0 -32 106
-32 138 0 9 22 15 83 20 9 1 17 -5 17 -13z m-4056 -114 c9 -51 16 -95 14 -96
-10 -8 -133 -23 -139 -17 -8 8 -39 185 -33 191 7 8 129 27 135 22 4 -3 14 -48
23 -100z m2690 20 c9 -49 16 -91 16 -94 0 -3 -30 -10 -67 -17 -38 -6 -77 -13
-89 -16 -20 -5 -22 2 -38 87 -9 50 -15 94 -12 97 6 5 121 29 152 31 19 1 23
-8 38 -88z m1242 52 c3 -21 10 -55 14 -76 9 -41 16 -36 -83 -55 -53 -11 -48
-17 -66 83 -5 28 -7 53 -3 57 6 5 44 13 124 27 4 0 10 -16 14 -36z m-2696 -87
l17 -94 -66 -12 c-36 -6 -73 -12 -81 -13 -10 -2 -19 23 -32 92 -9 52 -16 96
-15 97 5 5 152 31 156 27 3 -2 12 -46 21 -97z m1245 3 c8 -46 15 -89 15 -95 0
-7 -35 -17 -80 -24 -44 -7 -83 -13 -87 -14 -6 -1 -18 48 -37 155 l-6 35 87 15
c49 8 89 14 91 13 1 0 9 -39 17 -85z m1280 69 c18 -76 23 -123 13 -129 -6 -4
-36 -10 -66 -14 -30 -4 -61 -9 -68 -12 -8 -3 -16 18 -24 67 -7 39 -9 74 -6 77
5 5 100 27 138 32 4 1 10 -9 13 -21z m-3938 -63 c6 -38 14 -82 17 -96 5 -25 2
-26 -61 -38 -36 -6 -67 -11 -68 -9 -6 6 -34 192 -30 196 8 9 71 20 99 19 29
-2 30 -5 43 -72z m-162 -31 c24 -128 31 -118 -95 -140 -99 -18 -110 -19 -115
-5 -9 32 -35 163 -35 181 0 11 5 17 13 15 6 -3 57 3 112 13 55 10 101 18 102
17 2 -1 9 -37 18 -81z m1369 69 c8 -30 26 -136 26 -158 0 -19 -9 -23 -81 -34
-45 -7 -82 -11 -84 -9 -8 8 -35 181 -30 187 7 7 106 28 142 30 13 0 24 -6 27
-16z m1230 -10 c11 -41 28 -165 22 -170 -6 -7 -148 -35 -152 -31 -5 5 -34 182
-30 185 3 3 119 28 148 32 4 1 9 -7 12 -16z m1325 -40 c18 -90 19 -88 -51
-100 -35 -6 -64 -10 -65 -8 -2 1 -9 34 -17 74 -9 52 -10 74 -2 76 18 6 59 12
92 14 30 1 32 -1 43 -56z m-2740 -76 c7 -43 11 -81 8 -83 -2 -3 -32 -9 -67
-16 -46 -8 -64 -8 -69 1 -12 19 -34 171 -27 179 4 4 35 12 69 17 72 12 68 17
86 -98z m2580 34 c7 -35 9 -67 4 -71 -10 -8 -144 -33 -149 -27 -3 2 -11 36
-18 75 l-13 71 76 14 c42 8 79 11 82 8 4 -3 12 -35 18 -70z m-1355 37 c37
-173 39 -163 -46 -177 -55 -9 -73 -9 -79 0 -9 16 -33 168 -27 175 7 6 86 22
120 23 21 1 29 -4 32 -21z m-1405 -68 c6 -36 14 -77 17 -92 5 -24 2 -27 -46
-37 -97 -21 -94 -23 -112 82 -9 50 -14 94 -12 96 7 8 129 27 135 22 4 -3 12
-35 18 -71z m2565 28 c4 -24 9 -57 12 -74 5 -30 4 -31 -33 -37 -21 -4 -52 -9
-69 -13 l-32 -6 -12 72 c-7 39 -10 73 -7 76 5 6 84 21 113 23 18 1 23 -6 28
-41z m-1335 -40 c7 -40 14 -83 17 -94 5 -20 0 -23 -63 -33 -37 -7 -75 -14 -84
-17 -13 -4 -19 12 -33 87 -9 50 -14 94 -11 98 7 6 106 28 141 30 19 1 22 -8
33 -71z m-1399 -43 l17 -94 -26 -5 c-14 -3 -42 -8 -62 -11 l-36 -7 -13 89 c-8
48 -15 92 -15 98 0 9 105 35 114 28 3 -2 12 -46 21 -98z m2569 32 c6 -35 11
-68 11 -74 0 -6 -30 -16 -67 -23 -76 -13 -77 -12 -87 61 -4 27 -9 56 -12 63
-4 11 9 17 48 24 98 18 95 20 107 -51z m-1375 26 c19 -99 26 -157 19 -163 -8
-8 -125 -30 -155 -30 -11 0 -19 24 -31 92 -9 50 -16 93 -14 94 2 1 43 9 169
33 3 0 9 -11 12 -26z m-1343 -84 c9 -52 16 -94 15 -95 -5 -5 -112 -21 -117
-18 -3 2 -12 38 -18 81 -7 43 -14 86 -17 95 -4 13 6 18 48 26 29 5 57 9 63 8
5 -2 17 -45 26 -97z m3612 87 c7 -18 -68 -153 -92 -166 -18 -9 -20 -4 -31 63
-7 39 -12 77 -11 82 0 6 24 15 53 21 72 16 75 16 81 0z m-1069 -48 c4 -29 9
-62 12 -74 5 -18 -2 -22 -62 -33 -36 -6 -68 -10 -71 -8 -7 8 -26 137 -21 142
6 6 83 22 114 24 18 1 22 -6 28 -51z m-2694 -66 c11 -65 13 -95 6 -97 -6 -2
-34 -7 -63 -13 -59 -10 -52 -20 -74 106 -7 39 -9 75 -6 79 9 8 77 21 102 20
16 -2 22 -16 35 -95z m1284 76 c17 -79 26 -131 26 -148 0 -19 -32 -29 -141
-45 l-46 -7 -12 79 c-7 43 -14 85 -17 94 -4 13 11 19 78 31 111 21 107 21 112
-4z m2323 -54 c7 -38 11 -73 10 -79 -4 -12 -139 -36 -148 -27 -10 10 -31 143
-24 151 7 7 125 29 140 27 5 -2 15 -34 22 -72z m-1079 2 c7 -35 12 -68 12 -74
0 -5 -30 -15 -67 -22 -38 -6 -77 -13 -89 -16 -19 -5 -22 1 -33 67 -6 39 -9 74
-6 78 7 6 114 28 151 30 18 1 22 -8 32 -63z m-2698 37 c0 -5 7 -46 15 -92 17
-97 18 -96 -61 -106 -30 -3 -57 -7 -61 -8 -7 -2 -44 185 -38 191 12 13 145 26
145 15z m3591 -68 c6 -41 11 -78 11 -82 -1 -7 -15 -11 -98 -26 l-31 -6 -13 80
c-7 44 -11 81 -9 83 2 2 29 8 59 13 30 6 58 11 62 12 3 0 12 -33 19 -74z
m-2357 48 c8 -28 26 -135 26 -154 0 -13 -14 -20 -57 -29 -32 -6 -68 -13 -79
-15 -20 -4 -23 2 -35 78 -20 116 -22 110 46 123 85 16 93 16 99 -3z m1261 -87
l7 -52 -84 -14 c-45 -7 -85 -13 -88 -12 -5 1 -15 42 -25 107 l-6 41 88 15 88
14 7 -23 c4 -13 10 -47 13 -76z m-2654 -13 c18 -105 21 -99 -65 -109 l-52 -6
-17 93 c-9 51 -14 95 -12 98 8 7 78 19 105 18 23 -2 25 -8 41 -94z m3588 28
c16 -102 20 -96 -65 -110 -42 -7 -77 -11 -79 -9 -7 7 -28 148 -23 154 4 4 105
26 149 33 3 1 11 -30 18 -68z m-2384 37 c9 -46 25 -142 25 -158 0 -13 -18 -19
-81 -29 -45 -7 -83 -11 -85 -9 -4 5 -34 157 -34 174 0 10 60 25 162 43 4 0 10
-9 13 -21z m1235 -45 c6 -32 12 -66 14 -75 4 -17 0 -18 -134 -44 -25 -4 -26
-2 -38 67 -7 40 -10 74 -7 77 4 4 74 19 147 31 4 0 12 -25 18 -56z m-2616 30
c12 -46 29 -164 23 -170 -7 -6 -129 -32 -158 -33 -8 0 -23 17 -33 38 -20 41
-57 144 -54 147 6 5 164 33 190 34 18 1 28 -5 32 -16z m3574 -57 c18 -96 20
-93 -51 -105 -35 -6 -66 -11 -69 -11 -3 0 -8 23 -12 51 -4 29 -10 64 -13 80
-5 26 -2 28 38 37 92 21 94 20 107 -52z m-2394 27 c21 -109 28 -154 24 -159
-11 -10 -130 -26 -137 -18 -8 9 -31 136 -31 168 0 10 17 18 53 24 82 15 85 15
91 -15z m1255 -99 c1 -31 1 -31 -70 -43 -40 -6 -73 -10 -76 -8 -2 2 -10 36
-17 75 l-13 70 76 14 76 13 12 -45 c6 -25 12 -59 12 -76z m961 103 c0 -8 22
-124 26 -138 3 -13 -10 -18 -66 -28 -39 -7 -73 -11 -75 -10 -2 2 -9 39 -17 81
l-15 76 46 10 c47 10 101 15 101 9z m-2381 -84 c7 -43 14 -85 17 -94 5 -18 -9
-24 -92 -35 l-51 -6 -12 73 c-6 41 -14 84 -17 95 -5 19 0 23 53 31 96 17 89
22 102 -64z m1225 15 c4 -29 9 -63 12 -74 5 -20 0 -23 -63 -33 -37 -7 -75 -14
-84 -17 -13 -4 -18 10 -28 72 -7 41 -11 77 -9 78 4 4 117 23 144 25 19 1 22
-6 28 -51z m995 -34 c7 -42 11 -77 9 -80 -5 -4 -104 -24 -122 -24 -12 0 -42
147 -33 156 5 6 84 21 113 23 19 1 23 -8 33 -75z m-2389 -31 l16 -92 -25 -5
c-15 -3 -42 -8 -62 -11 l-36 -7 -12 79 c-7 43 -14 85 -17 94 -4 13 6 19 43 27
76 16 75 17 93 -85z m1200 16 c7 -39 8 -74 4 -78 -9 -8 -127 -31 -156 -31 -11
0 -18 20 -27 71 -6 40 -10 73 -9 74 2 2 138 29 170 34 3 1 12 -31 18 -70z
m1019 -2 c17 -99 21 -93 -71 -110 -46 -8 -86 -13 -89 -11 -6 4 -23 108 -24
144 0 10 19 18 60 26 114 22 111 23 124 -49z m1071 46 c0 -10 -29 -53 -64 -96
l-64 -78 -12 58 c-6 32 -13 68 -16 80 -3 17 1 24 18 27 134 29 138 30 138 9z
m-3443 -68 c19 -113 19 -112 -29 -120 -24 -3 -50 -9 -59 -11 -14 -4 -19 10
-30 83 -18 114 -19 107 21 114 78 15 83 11 97 -66z m-151 -27 c21 -118 23
-113 -46 -124 -69 -11 -61 -21 -80 90 -16 95 -17 93 48 103 31 5 59 8 61 6 2
-1 10 -35 17 -75z m1294 25 c6 -32 12 -66 14 -75 3 -13 -12 -19 -83 -32 -47
-9 -91 -16 -97 -16 -9 0 -38 139 -31 147 3 2 153 30 174 32 6 1 16 -24 23 -56z
m1024 -27 c10 -57 10 -79 2 -81 -6 -2 -46 -10 -88 -18 l-77 -14 -11 56 c-24
122 -33 106 67 123 48 8 89 13 91 13 1 -1 9 -37 16 -79z m1102 2 c7 -40 13
-78 13 -84 1 -11 -118 -39 -126 -30 -8 7 -33 160 -27 165 6 7 117 28 123 24 2
-1 10 -35 17 -75z m-3574 -40 c9 -51 14 -95 12 -97 -6 -7 -135 -28 -138 -22
-4 6 -31 159 -31 176 0 8 76 27 131 34 6 0 18 -38 26 -91z m3407 40 c6 -29 13
-69 16 -89 l7 -36 -77 -12 c-42 -7 -79 -10 -82 -7 -7 7 -35 157 -30 162 3 3
98 24 149 33 4 0 11 -23 17 -51z m-2184 20 c2 -13 8 -46 13 -75 l9 -52 -76
-12 c-42 -7 -78 -13 -81 -13 -9 -2 -30 138 -22 145 7 7 97 25 134 28 11 1 20
-8 23 -21z m1029 0 c19 -90 26 -132 22 -136 -8 -7 -149 -32 -154 -27 -8 8 -33
148 -27 153 5 5 115 29 142 31 7 1 15 -9 17 -21z m-2424 -96 c18 -103 22 -97
-62 -107 l-55 -7 -17 92 c-9 51 -16 94 -14 95 5 5 112 23 123 21 5 -2 16 -44
25 -94z m1206 51 c3 -21 10 -55 14 -76 7 -33 6 -38 -14 -42 -75 -15 -129 -25
-141 -25 -9 0 -17 24 -25 71 -7 39 -10 72 -9 74 3 2 112 25 161 34 4 0 10 -16
14 -36z m1034 -20 c24 -124 31 -109 -55 -122 -42 -7 -78 -11 -80 -9 -7 7 -28
148 -23 153 3 3 36 11 74 19 38 7 70 14 71 15 1 0 7 -25 13 -56z m1145 35 c12
-56 25 -142 21 -145 -6 -6 -127 -25 -132 -21 -2 3 -9 31 -14 64 -6 32 -13 69
-15 80 -4 19 1 23 43 32 77 16 91 14 97 -10z m-3561 -15 c11 -41 28 -165 22
-170 -3 -3 -23 -9 -46 -13 l-40 -7 -44 66 c-73 111 -72 109 -29 117 21 3 54
10 73 14 53 12 58 11 64 -7z m3403 -68 c6 -38 12 -75 12 -82 1 -12 -97 -37
-126 -31 -13 2 -21 21 -30 73 -6 39 -12 75 -12 81 -1 13 79 33 119 31 22 -2
26 -8 37 -72z m-2217 -6 c7 -39 10 -72 7 -75 -2 -2 -32 -9 -67 -16 -72 -12
-74 -11 -84 63 -4 27 -9 55 -12 63 -4 10 10 16 53 23 97 17 90 21 103 -58z
m1050 -4 c7 -42 11 -78 8 -80 -3 -3 -40 -12 -82 -19 -57 -10 -79 -10 -81 -2
-7 21 -26 148 -23 151 4 3 118 22 144 24 19 1 23 -8 34 -74z m980 51 c0 -2 7
-40 15 -83 8 -43 15 -79 15 -80 0 -3 -102 -23 -120 -23 -19 0 -19 3 -46 141
-5 25 -2 27 43 37 53 11 93 14 93 8z m-2206 -58 c4 -29 9 -62 12 -74 5 -19 -1
-22 -52 -32 -91 -19 -91 -19 -98 41 -4 28 -9 62 -12 73 -5 19 0 23 53 31 95
17 90 19 97 -39z m1021 20 c3 -18 9 -54 14 -81 5 -26 6 -49 2 -51 -15 -8 -162
-28 -167 -23 -6 6 -35 149 -31 153 2 1 146 30 169 33 4 1 10 -14 13 -31z
m1019 -5 c5 -20 26 -132 26 -144 0 -7 -46 -18 -141 -34 l-36 -7 -15 84 c-9 45
-14 85 -12 87 4 5 127 28 156 30 9 0 19 -7 22 -16z m-2219 -15 c2 -13 8 -46
13 -75 10 -58 17 -52 -79 -68 l-35 -7 -12 74 c-6 40 -9 74 -8 76 3 3 82 19
103 21 7 1 15 -9 18 -21z m989 -10 c19 -88 26 -131 22 -135 -7 -8 -177 -36
-182 -30 -6 6 -35 149 -31 153 3 3 148 31 169 33 11 1 20 -8 22 -21z m1035
-75 c6 -39 11 -76 11 -82 0 -5 -33 -14 -72 -21 -40 -6 -80 -13 -89 -16 -13 -3
-18 12 -29 81 -7 47 -11 87 -9 89 8 7 164 32 170 27 3 -3 11 -38 18 -78z
m-2175 55 c28 -134 32 -122 -47 -137 -34 -6 -50 -5 -52 3 -12 34 -24 131 -18
137 5 4 22 9 38 12 66 9 74 8 79 -15z m3196 -33 c-47 -48 -60 -49 -60 -5 0 23
5 31 23 34 53 12 63 14 72 15 5 0 -11 -19 -35 -44z m-3336 -44 c8 -39 11 -73
7 -75 -3 -2 -31 -7 -63 -11 -63 -8 -61 -10 -74 77 -3 26 -7 51 -8 55 -1 7 114
33 122 28 1 -1 9 -34 16 -74z m1073 0 c7 -41 11 -76 9 -78 -1 -1 -36 -9 -77
-17 -52 -10 -76 -11 -81 -3 -5 9 -21 109 -23 142 0 10 105 34 140 32 16 -2 22
-14 32 -76z m1031 -1 c19 -111 22 -104 -64 -119 -42 -7 -77 -11 -78 -9 -2 2
-10 40 -18 85 l-14 82 50 10 c28 6 60 12 71 14 11 3 25 5 30 6 6 0 16 -31 23
-69z m1146 18 c7 -43 7 -44 -51 -95 -32 -29 -65 -53 -74 -53 -11 0 -19 17 -27
64 -19 103 -19 103 41 114 100 18 104 17 111 -30z m-3407 -43 c7 -38 11 -70 8
-73 -2 -2 -34 -10 -70 -17 -48 -9 -68 -9 -70 -1 -8 26 -26 138 -23 141 5 4
122 22 133 20 6 -1 16 -32 22 -70z m1028 53 c15 -69 23 -134 17 -139 -8 -7
-162 -32 -166 -27 -6 7 -26 151 -23 155 4 3 113 25 159 32 4 1 10 -9 13 -21z
m1045 -78 c7 -45 10 -83 7 -86 -8 -8 -137 -27 -143 -21 -5 5 -34 140 -34 158
0 8 83 26 126 28 l32 1 12 -80z m1149 11 c16 -103 19 -98 -55 -110 -37 -7 -67
-11 -69 -9 -4 6 -27 160 -23 163 4 3 98 22 119 24 12 1 19 -15 28 -68z m-3404
37 c18 -84 21 -127 10 -132 -6 -2 -37 -7 -67 -11 l-55 -7 -12 72 c-6 40 -10
74 -9 75 2 2 72 16 120 24 4 0 10 -9 13 -21z m1005 9 c0 -8 22 -124 26 -138 3
-13 -8 -19 -52 -28 -92 -18 -91 -19 -103 52 -16 95 -17 94 37 105 49 10 92 14
92 9z m1050 -11 c0 -2 7 -40 15 -83 8 -43 15 -79 15 -80 0 -1 -39 -9 -141 -29
-26 -5 -27 -4 -39 68 -6 40 -12 80 -13 88 -2 10 16 18 63 26 74 13 100 16 100
10z m1179 -63 c7 -38 14 -75 17 -84 3 -13 -5 -18 -38 -23 -24 -4 -57 -9 -75
-12 l-31 -6 -12 74 c-7 40 -12 78 -12 83 1 9 83 32 123 34 13 1 20 -14 28 -66z
m-3395 27 c3 -16 8 -45 11 -62 l6 -33 -46 50 c-25 27 -45 53 -45 57 0 6 23 13
57 17 6 0 14 -12 17 -29z m1005 -56 c7 -42 11 -78 8 -80 -8 -9 -127 -28 -133
-21 -6 6 -36 149 -31 153 3 3 107 21 128 23 13 1 19 -16 28 -75z m1031 -27 c7
-42 11 -79 9 -81 -2 -2 -23 -7 -46 -11 -39 -6 -43 -5 -43 13 0 18 -4 20 -31
12 -17 -5 -37 -14 -44 -20 -9 -8 -15 3 -24 47 -20 101 -21 100 62 113 39 6 77
13 82 14 17 6 22 -6 35 -87z m1183 51 c3 -24 9 -62 13 -84 l6 -42 -67 -11
c-37 -7 -68 -11 -69 -9 -4 5 -26 134 -26 150 0 10 17 18 53 25 85 17 84 17 90
-29z m-2391 -28 c4 -25 10 -59 13 -77 5 -31 5 -31 -45 -42 -28 -6 -55 -11 -60
-11 -5 0 -14 26 -20 58 -6 31 -13 67 -15 79 -4 19 1 23 37 32 72 16 82 12 90
-39z m2226 -24 c20 -107 23 -102 -70 -119 -46 -8 -86 -12 -89 -8 -8 8 -31 152
-26 158 4 3 133 29 163 32 6 1 16 -28 22 -63z m-1228 -27 c7 -46 9 -84 4 -88
-10 -8 -128 -31 -161 -31 -18 0 -22 11 -33 80 -7 45 -11 82 -9 85 4 4 144 32
170 34 13 1 19 -16 29 -80z m-1148 21 c4 -25 10 -59 13 -77 5 -30 4 -31 -37
-38 -24 -3 -51 -9 -60 -11 -13 -4 -19 6 -27 48 -21 107 -20 112 19 119 72 14
84 8 92 -41z m-158 8 c21 -99 25 -133 19 -139 -5 -5 -34 -11 -64 -15 l-57 -6
-11 64 c-18 103 -26 94 101 117 4 0 10 -9 12 -21z m2322 -15 c3 -21 10 -56 15
-78 4 -22 5 -43 1 -46 -11 -10 -162 -33 -169 -26 -9 9 -34 149 -28 155 6 6
121 30 152 31 18 1 23 -6 29 -36z m-1235 -58 c17 -95 21 -87 -56 -99 -22 -4
-52 -9 -66 -12 -26 -5 -27 -4 -39 75 -7 44 -12 84 -12 88 0 5 27 13 59 19 105
20 98 25 114 -71z m-1232 -11 c7 -42 10 -78 7 -81 -3 -4 -35 -12 -71 -18 l-65
-12 -5 31 c-3 17 -9 53 -14 81 -5 27 -9 50 -8 51 4 2 113 21 128 23 13 1 19
-16 28 -75z m2266 -9 c9 -43 13 -80 10 -83 -6 -6 -149 -31 -154 -27 -3 4 -31
143 -31 157 0 6 151 37 158 33 1 -1 9 -37 17 -80z m-1225 -15 c7 -45 11 -82 9
-84 -2 -2 -41 -10 -86 -18 l-82 -14 -11 70 c-6 39 -13 78 -16 87 -4 13 11 19
78 31 46 8 86 13 89 12 4 -2 12 -40 19 -84z m-1214 -6 c7 -38 11 -70 10 -71
-2 -2 -36 25 -76 59 -40 34 -69 63 -64 65 22 7 100 21 109 19 5 -2 15 -34 21
-72z m2239 44 c15 -69 23 -134 17 -139 -8 -7 -143 -32 -147 -27 -4 6 -25 122
-25 143 0 19 8 24 53 32 85 17 96 16 102 -9z m1135 17 c0 -2 -27 -23 -60 -45
-52 -36 -60 -38 -60 -21 0 11 -3 26 -6 34 -4 12 5 18 38 25 48 11 88 14 88 7z
m-2362 -88 c8 -43 11 -81 8 -84 -3 -3 -35 -12 -70 -18 l-65 -12 -10 51 c-6 28
-13 67 -17 88 l-6 36 54 10 c91 17 90 17 106 -71z m1052 -17 c7 -45 11 -82 9
-85 -2 -2 -39 -10 -82 -18 -58 -11 -79 -12 -82 -3 -10 30 -25 149 -21 154 5 4
117 27 152 31 7 1 17 -32 24 -79z m1155 35 c0 -37 -3 -41 -58 -73 -32 -19 -60
-33 -62 -30 -7 7 -27 119 -22 124 7 8 91 22 117 21 22 -2 25 -6 25 -42z
m-2390 3 c3 -18 9 -55 14 -83 5 -27 8 -52 6 -54 -2 -2 -34 -9 -70 -16 -48 -9
-68 -9 -70 -1 -6 18 -25 128 -25 146 0 13 14 20 53 27 84 17 86 16 92 -19z
m1039 -78 c8 -41 13 -76 11 -78 -1 -1 -23 6 -48 17 l-45 20 14 48 c8 26 12 53
10 60 -5 11 36 24 41 13 2 -3 9 -39 17 -80z m1180 63 c19 -98 19 -100 -6 -106
-12 -3 -44 -9 -69 -12 l-45 -7 -12 63 c-6 35 -10 64 -8 66 5 5 86 21 113 22
16 1 23 -6 27 -26z m-2383 -68 c17 -95 20 -90 -59 -101 l-49 -6 -11 70 c-17
101 -17 100 31 110 75 17 72 20 88 -73z m2213 50 c8 -22 19 -115 13 -115 -2 0
-42 -7 -87 -16 -45 -8 -83 -14 -85 -12 -1 2 -6 31 -12 66 -11 70 -18 63 77 81
68 13 87 12 94 -4z m-2362 -77 c16 -94 18 -90 -63 -102 l-45 -7 -13 81 c-14
86 -12 95 29 103 77 14 76 15 92 -75z m1043 37 c-22 -19 -52 -44 -67 -56 l-28
-20 0 23 c0 13 -3 32 -6 44 -5 19 0 22 58 31 35 6 68 11 73 11 6 1 -8 -14 -30
-33z m-1196 -49 c19 -99 17 -103 -34 -110 -67 -11 -80 1 -94 85 -6 39 -10 73
-9 74 9 6 114 20 119 16 3 -3 11 -33 18 -65z m2317 2 c8 -43 8 -61 0 -64 -32
-10 -167 -31 -170 -25 -2 3 -7 33 -11 67 l-7 61 84 15 c46 8 85 13 88 10 3 -2
10 -31 16 -64z m-1253 35 c21 -74 18 -87 -28 -126 -25 -21 -58 -42 -75 -47
-34 -10 -31 -15 -50 94 -5 33 -8 61 -5 64 4 4 113 28 142 31 6 0 14 -7 16 -16z
m-1229 -23 c3 -16 9 -43 12 -60 3 -16 3 -30 -1 -30 -4 0 -39 21 -78 47 l-72
47 55 12 c79 17 78 17 84 -16z m2272 -37 c4 -32 8 -62 9 -68 0 -10 -146 -38
-154 -29 -4 3 -11 32 -17 65 -12 67 -21 58 76 78 79 16 77 17 86 -46z m-1221
-38 c8 -43 13 -81 10 -83 -5 -6 -132 -31 -156 -32 -12 0 -18 19 -28 81 -7 45
-11 82 -9 84 3 3 162 32 165 30 2 -1 9 -37 18 -80z m1029 8 c4 -27 9 -55 12
-64 4 -13 -10 -18 -72 -28 -41 -7 -78 -11 -80 -8 -6 6 -26 118 -21 123 6 6
141 31 148 27 4 -1 10 -24 13 -50z m-1235 -30 c7 -38 14 -75 17 -84 4 -14 -7
-19 -59 -28 -35 -6 -69 -11 -75 -11 -9 0 -18 40 -35 155 -2 8 79 29 129 34 7
1 17 -28 23 -66z m1050 -3 c16 -74 15 -78 -21 -85 -18 -3 -54 -9 -81 -14 -26
-5 -49 -5 -52 -2 -2 4 -7 32 -11 62 -4 30 -8 56 -8 59 -1 5 105 27 141 29 18
1 23 -7 32 -49z m920 45 c-3 -2 -22 -11 -42 -20 -32 -13 -37 -13 -37 -1 0 14
20 22 64 25 11 0 17 -1 15 -4z m-2140 -85 c8 -45 11 -83 9 -86 -3 -2 -33 -9
-68 -16 -50 -8 -64 -8 -70 3 -7 10 -23 107 -25 144 0 7 75 27 131 34 6 0 16
-35 23 -79z m2035 54 c4 -11 -15 -25 -81 -55 -47 -22 -87 -38 -88 -37 -1 2 -5
20 -9 40 l-7 36 53 11 c29 5 62 12 73 14 39 9 53 7 59 -9z m-1009 -63 c7 -34
8 -64 3 -67 -4 -3 -21 4 -37 15 -27 20 -28 23 -20 63 19 81 39 77 54 -11z
m-1210 37 c10 -50 25 -142 22 -144 -1 -2 -21 -7 -43 -12 -63 -14 -80 -3 -88
60 -4 29 -10 63 -12 75 -6 21 3 25 108 42 4 0 10 -9 13 -21z m2008 -5 c3 -5 7
-23 9 -42 3 -33 2 -34 -61 -56 -115 -42 -109 -43 -117 17 -4 29 -7 55 -6 58 1
6 106 27 144 29 15 0 29 -2 31 -6z m-2159 -20 c8 -29 19 -113 14 -113 -23 0
-124 52 -129 66 -14 35 -9 43 34 52 63 15 75 14 81 -5z m1960 -56 c4 -26 6
-53 3 -60 -4 -12 -109 -47 -140 -47 -8 0 -17 23 -24 63 -6 34 -9 63 -8 65 4 4
140 30 150 27 6 -1 14 -23 19 -48z m-2110 27 c5 -12 1 -14 -17 -9 -35 11 -44
25 -15 25 14 0 29 -7 32 -16z m926 -24 c0 -5 -5 -10 -11 -10 -5 0 -7 5 -4 10
3 6 8 10 11 10 2 0 4 -4 4 -10z m995 -47 c4 -31 9 -61 11 -68 3 -7 -20 -16
-63 -25 -37 -7 -73 -15 -79 -17 -10 -4 -41 133 -32 142 5 5 98 23 129 24 25 1
27 -3 34 -56z m-1035 23 c0 -16 -19 -39 -67 -80 -37 -31 -73 -56 -79 -56 -6 0
-15 21 -18 48 -4 26 -9 54 -12 64 -4 13 9 19 73 31 105 20 103 20 103 -7z
m849 -53 c18 -92 21 -88 -69 -102 -45 -8 -82 -12 -84 -10 -2 2 -8 34 -13 72
-11 76 -18 68 77 86 78 15 76 16 89 -46z m-1045 -26 c5 -31 6 -60 2 -65 -11
-11 -124 -9 -134 3 -5 6 -13 31 -16 57 l-7 46 53 10 c88 17 92 15 102 -51z
m-180 11 c3 -13 6 -33 6 -46 0 -24 4 -24 -102 1 -35 8 -48 16 -48 28 0 13 13
20 53 27 79 14 84 14 91 -10z m366 -13 c-7 -9 -15 -13 -17 -11 -7 7 7 26 19
26 6 0 6 -6 -2 -15z m74 0 c-7 -16 -24 -21 -24 -6 0 8 7 13 27 20 1 1 0 -6 -3
-14z m-617 -1 c-3 -3 -12 -4 -19 -1 -8 3 -5 6 6 6 11 1 17 -2 13 -5z m498 -33
c-3 -6 -11 -11 -17 -11 -6 0 -6 6 2 15 14 17 26 13 15 -4z m74 -47 c-10 -12
-14 -12 -20 -2 -4 7 -3 16 4 20 18 11 29 -2 16 -18z m-39 -16 c0 -5 -15 -8
-32 -8 l-33 1 24 20 c19 15 26 17 32 7 5 -7 9 -16 9 -20z m-230 -152 c0 -2 -7
-7 -16 -10 -8 -3 -12 -2 -9 4 6 10 25 14 25 6z m130 -20 c0 -7 -24 -22 -52
-34 -29 -11 -61 -23 -70 -27 -36 -14 -17 13 30 44 49 32 92 40 92 17z m178
-61 c-6 -4 -98 -25 -111 -25 -8 0 -17 9 -20 19 -4 16 6 24 52 44 l56 24 13
-30 c7 -16 11 -31 10 -32z m92 35 c-8 -15 -57 -36 -65 -28 -2 2 -6 14 -10 28
-6 25 -5 25 39 22 40 -4 45 -6 36 -22z m-242 -58 c-3 -17 -131 -55 -143 -43
-8 8 127 70 138 64 4 -3 7 -12 5 -21z m233 -23 c19 -6 41 -13 49 -16 12 -4 12
-7 -4 -19 -32 -23 -65 -18 -76 12 -15 40 -17 38 31 23z m-57 -25 c4 -15 6 -28
4 -29 -2 -1 -29 -6 -61 -9 -47 -6 -58 -5 -63 9 -4 9 -4 18 -1 21 4 5 89 30
108 33 4 1 10 -11 13 -25z m-144 -33 c0 -16 -10 -20 -71 -26 -38 -4 -73 -5
-76 -2 -5 5 108 44 135 46 6 1 12 -8 12 -18z m220 -40 c0 -5 12 -12 28 -14 22
-3 20 -4 -10 -6 -28 -1 -38 3 -38 14 0 8 5 15 10 15 6 0 10 -4 10 -9z m-42
-18 c3 -10 -14 -13 -64 -13 -71 0 -80 15 -14 23 52 6 73 3 78 -10z m-153 -13
c-3 -5 -21 -10 -38 -9 -31 1 -31 1 -7 9 36 11 52 11 45 0z m175 -50 c0 -6 -28
-10 -67 -9 -53 1 -61 3 -38 9 45 11 105 11 105 0z m-467 -107 c-7 -2 -19 -2
-25 0 -7 3 -2 5 12 5 14 0 19 -2 13 -5z"/>
</g>
</svg>
