<?xml version="1.0" standalone="no"?>
<!DOCTYPE svg PUBLIC "-//W3C//DTD SVG 20010904//EN"
 "http://www.w3.org/TR/2001/REC-SVG-20010904/DTD/svg10.dtd">
<svg version="1.0" xmlns="http://www.w3.org/2000/svg"
 width="666.000000pt" height="1280.000000pt" viewBox="0 0 666.000000 1280.000000"
 preserveAspectRatio="xMidYMid meet">
<metadata>
Created by potrace 1.15, written by Peter Selinger 2001-2017
</metadata>
<g transform="translate(0.000000,1280.000000) scale(0.100000,-0.100000)"
fill="#000000" stroke="none">
<path d="M3610 12775 c-89 -31 -203 -90 -291 -148 -51 -35 -69 -55 -99 -110
-46 -85 -78 -212 -85 -342 -8 -134 -13 -165 -29 -165 -52 0 -101 -107 -112
-245 -8 -87 8 -148 47 -188 25 -24 35 -28 67 -24 20 3 47 8 60 12 19 6 24 2
38 -31 10 -23 19 -81 22 -141 4 -92 3 -103 -12 -103 -67 0 -203 -79 -359 -208
-129 -107 -165 -127 -274 -151 -141 -30 -187 -60 -285 -181 -74 -90 -147 -239
-180 -365 -20 -77 -23 -114 -23 -260 0 -154 3 -181 29 -284 l28 -113 -66 -138
c-66 -136 -67 -139 -76 -251 -11 -128 -29 -210 -65 -284 -29 -60 -42 -78 -74
-94 -20 -11 -27 -10 -49 6 -14 11 -34 36 -45 56 -19 37 -19 38 2 87 35 81 4
109 -102 96 -154 -19 -154 -19 -223 8 -74 30 -166 51 -269 61 -86 8 -105 20
-146 89 -51 85 -95 92 -176 30 -40 -31 -51 -50 -63 -115 -18 -92 -37 -98 -127
-40 l-60 39 -64 -49 c-70 -54 -119 -112 -119 -141 0 -10 5 -38 12 -62 15 -56
12 -60 -106 -137 -50 -32 -97 -68 -104 -80 -8 -12 -16 -45 -19 -73 -4 -42 -2
-56 12 -70 20 -20 21 -50 5 -151 -37 -229 9 -463 127 -643 53 -82 235 -260
313 -305 131 -76 350 -127 544 -127 131 0 210 17 321 70 195 93 324 232 463
496 35 67 61 105 78 113 18 8 50 8 123 -1 88 -10 104 -9 144 6 59 22 141 109
233 246 38 57 75 105 81 107 15 5 36 -37 52 -99 6 -26 29 -81 51 -123 62 -117
61 -119 -83 -230 -140 -107 -167 -158 -187 -345 -11 -97 -15 -111 -56 -180
-55 -93 -118 -254 -134 -340 -15 -81 -30 -116 -72 -172 -46 -61 -129 -238
-187 -398 -131 -364 -134 -366 -233 -283 -66 55 -85 61 -110 35 -30 -30 -36
-122 -13 -194 9 -29 49 -120 88 -203 65 -137 71 -155 70 -210 -5 -292 -13
-549 -18 -590 -11 -92 -36 -169 -107 -330 -111 -253 -140 -303 -234 -406 -146
-160 -242 -324 -313 -538 -17 -51 -106 -390 -196 -752 -182 -724 -245 -955
-275 -1004 -12 -19 -28 -82 -41 -155 -44 -258 -122 -523 -168 -564 -9 -8 -34
-16 -55 -18 -38 -3 -39 -4 -63 -73 -13 -38 -35 -106 -49 -150 -14 -44 -54
-169 -90 -278 -35 -108 -64 -210 -64 -226 0 -17 -13 -44 -31 -67 -108 -136
-169 -385 -113 -461 60 -80 187 -106 590 -119 248 -8 281 -4 291 34 8 29 9
114 3 252 -4 84 -3 86 48 202 65 148 81 202 92 307 9 82 13 93 82 224 l20 38
-26 37 c-21 31 -26 49 -26 101 0 48 -5 69 -20 88 -31 39 -24 62 36 133 64 76
114 170 114 215 0 41 -10 51 -24 22 -7 -12 -20 -22 -31 -22 -33 0 -23 58 29
177 25 58 50 128 55 155 16 80 42 136 209 444 88 162 179 332 202 379 23 46
77 136 119 200 84 126 149 266 210 448 43 129 96 329 107 407 11 85 34 136
114 260 86 133 132 213 242 421 88 165 145 253 225 345 32 37 83 108 113 158
89 149 95 156 117 159 33 5 99 -33 159 -92 50 -49 54 -55 54 -99 0 -53 -17
-93 -106 -238 -113 -184 -149 -282 -174 -469 -6 -47 -18 -112 -27 -145 -33
-133 -43 -223 -43 -405 0 -102 5 -202 11 -223 16 -60 68 -108 176 -164 118
-61 187 -83 265 -83 66 0 98 -12 98 -38 0 -9 -22 -82 -50 -162 -89 -263 -134
-514 -111 -631 16 -82 50 -147 97 -189 53 -46 99 -63 179 -64 61 0 80 4 145
35 216 103 404 323 529 614 23 55 59 129 80 165 68 117 75 167 41 308 -33 136
-28 183 46 470 92 359 91 389 -23 566 -78 122 -65 145 318 551 225 239 316
345 335 391 7 17 22 82 33 144 17 93 26 122 55 165 19 29 48 93 65 143 36 108
87 212 131 267 67 84 98 171 155 432 62 286 87 425 124 705 l26 201 55 19 c67
23 404 124 441 132 15 3 49 25 75 49 100 89 301 206 424 247 79 26 127 62 146
106 16 38 18 221 4 294 -29 146 -260 875 -308 970 -16 30 -109 179 -208 330
-260 397 -278 428 -339 600 -82 229 -93 246 -348 510 -205 212 -397 392 -478
449 -111 78 -446 197 -586 209 -35 2 -67 10 -72 16 -13 16 -31 110 -31 162 0
24 6 60 14 79 14 33 16 33 45 22 45 -17 54 -1 59 101 6 124 -13 280 -42 350
-17 40 -27 92 -35 177 -19 213 -55 306 -159 416 -119 127 -270 207 -407 215
-57 4 -83 0 -145 -21z m1982 -4064 c18 -21 68 -66 110 -100 123 -98 188 -192
188 -270 0 -32 -5 -44 -24 -56 -34 -23 -307 -117 -321 -111 -14 5 -32 502 -20
549 10 37 27 34 67 -12z"/>
</g>
</svg>
