<svg width="1000" height="990" viewBox="0 0 1000 990" fill="none" xmlns="http://www.w3.org/2000/svg">
<mask id="mask0" mask-type="alpha" maskUnits="userSpaceOnUse" x="0" y="0" width="1000" height="966">
<path d="M1000 0H0V718.31H179.2C217.58 860.69 346.65 965.41 500 965.41C653.35 965.41 782.42 860.69 820.8 718.31H1000V0Z" fill="white"/>
</mask>
<g mask="url(#mask0)">
<path d="M500 962.602C683.603 962.602 832.442 813.763 832.442 630.16C832.442 446.557 683.603 297.718 500 297.718C316.397 297.718 167.558 446.557 167.558 630.16C167.558 813.763 316.397 962.602 500 962.602Z" fill="#85C5E5"/>
<path d="M610 758.72C700.76 758.72 682 872.96 682.87 1000H610V758.72Z" fill="white"/>
<path d="M632.74 831.87L610 870L621.38 1000H653.14C653.91 819.73 632.74 831.87 632.74 831.87Z" fill="#E1DEDD"/>
<path d="M233.25 500C233.25 352.68 352.68 233.25 500 233.25C647.32 233.25 766.75 352.68 766.75 500C766.788 539.694 757.949 578.895 740.88 614.731C723.811 650.568 698.944 682.135 668.1 707.12C662.627 711.573 656.98 715.803 651.16 719.81C591 758 515 758 446.39 751.89C439.73 750.89 433.09 749.63 426.5 748.18C400.17 742.38 374.68 733.43 351.13 720.38C345.31 716.793 339.667 712.92 334.2 708.76C328.705 704.576 323.432 700.11 318.4 695.38C313.64 690.96 309.043 686.367 304.61 681.6C258.667 632.299 233.161 567.39 233.25 500V500Z" fill="white"/>
<path d="M269.61 634.48C270.31 635.68 271 636.88 271.72 638.06C272.15 638.78 272.6 639.48 273.05 640.2C273.71 641.27 274.37 642.34 275.05 643.39C275.53 644.15 276.05 644.89 276.51 645.63C277.17 646.63 277.83 647.63 278.51 648.63C279.02 649.39 279.51 650.15 280.07 650.91C280.73 651.91 281.39 652.83 282.07 653.79C282.61 654.56 283.17 655.32 283.72 656.09C284.27 656.86 285.06 657.94 285.72 658.86C286.38 659.78 286.87 660.39 287.45 661.15C288.03 661.91 288.82 662.95 289.52 663.85C290.22 664.75 290.71 665.36 291.31 666.11C291.91 666.86 292.72 667.87 293.43 668.74C294.14 669.61 294.66 670.23 295.28 670.97C295.9 671.71 296.72 672.69 297.45 673.54C298.18 674.39 298.72 675.01 299.36 675.74L301.58 678.24C302.23 678.97 302.89 679.68 303.58 680.4C304.44 681.34 305.31 682.27 306.18 683.19L307.39 684.47C308.68 685.81 309.98 687.15 311.3 688.47L311.56 688.74C312.85 690.02 314.16 691.29 315.47 692.55L317.05 694.05C318 694.94 318.95 695.83 319.91 696.71L321.07 697.77C322.07 698.71 323.16 699.63 324.21 700.55C327.477 703.397 330.81 706.127 334.21 708.74C339.67 712.9 345.313 716.773 351.14 720.36C374.69 733.36 400.14 742.36 426.51 748.16C433.1 749.61 439.74 750.86 446.4 751.87C488.5 755.62 533.4 757.05 575.68 748.79C508.45 729 185.59 612.74 388.8 257.48C386.08 258.73 383.4 260.02 380.74 261.36L380.15 261.65C378.93 262.26 377.71 262.89 376.5 263.53L375.5 264.06C371.74 266.06 368.02 268.13 364.37 270.29L363.47 270.82C362.31 271.51 361.16 272.21 360.01 272.92L359.14 273.46C355.567 275.693 352.05 278.003 348.59 280.39L347.51 281.14C346.42 281.9 345.35 282.66 344.28 283.43L343.62 283.9C341.44 285.493 339.287 287.107 337.16 288.74L336.54 289.22C335.54 290 334.54 290.8 333.54 291.61L332.37 292.55C331.37 293.36 330.37 294.17 329.37 295C327.26 296.75 325.18 298.55 323.13 300.37L321.99 301.37L319.3 303.82L318 305C315.147 307.667 312.357 310.39 309.63 313.17L308.25 314.58C307.46 315.4 306.67 316.22 305.89 317.05C305.43 317.54 304.97 318.05 304.52 318.53C303.147 319.997 301.793 321.483 300.46 322.99C300.01 323.5 299.55 323.99 299.1 324.53C298.39 325.34 297.69 326.16 296.99 326.98L295.48 328.77C294.8 329.58 294.12 330.39 293.48 331.21C292.94 331.87 292.4 332.54 291.87 333.21C290.8 334.54 289.75 335.87 288.71 337.21C288.17 337.91 287.63 338.61 287.1 339.32C286.57 340.03 285.9 340.91 285.31 341.72C284.72 342.53 284.24 343.17 283.72 343.9C283.2 344.63 282.59 345.45 282.04 346.23C281.093 347.563 280.16 348.913 279.24 350.28C278.74 351.01 278.24 351.76 277.75 352.5C277.26 353.24 276.65 354.16 276.11 355L274.62 357.31L272.94 360.02C272.51 360.71 272.08 361.4 271.66 362.09C270.77 363.55 269.91 365.02 269.05 366.49L267.83 368.65C267.29 369.6 266.75 370.56 266.22 371.52C265.82 372.25 265.42 372.98 265.03 373.71C264.39 374.9 263.76 376.1 263.13 377.3L261.93 379.64C261.29 380.92 260.65 382.19 260.02 383.48C259.69 384.17 259.35 384.87 259.02 385.57C258.5 386.66 258.02 387.76 257.49 388.86C257.18 389.52 256.88 390.18 256.58 390.86C255.84 392.507 255.117 394.173 254.41 395.86C254.19 396.38 253.98 396.91 253.76 397.43C253.23 398.7 252.71 399.97 252.2 401.25C251.93 401.92 251.67 402.59 251.41 403.25C250.91 404.51 250.41 405.78 249.96 407.05C249.75 407.6 249.54 408.15 249.34 408.7C248.713 410.453 248.097 412.207 247.49 413.96L246.93 415.66C246.49 416.993 246.06 418.327 245.64 419.66L245.04 421.57C244.57 423.11 244.11 424.65 243.67 426.2C243.57 426.53 243.47 426.86 243.38 427.2C242.86 429.04 242.36 430.887 241.88 432.74C241.72 433.33 241.58 433.93 241.43 434.52C241.08 435.91 240.74 437.3 240.43 438.7L240.01 440.45C239.58 442.35 239.16 444.25 238.77 446.16L238.62 446.93C238.28 448.63 237.947 450.33 237.62 452.03C237.51 452.64 237.41 453.24 237.3 453.85C237.04 455.34 236.79 456.85 236.56 458.35C236.48 458.86 236.39 459.35 236.32 459.87C236.02 461.82 235.75 463.78 235.49 465.75L235.34 467.05C235.14 468.64 234.96 470.24 234.79 471.84C234.73 472.44 234.66 473.04 234.6 473.65C234.44 475.33 234.29 477.02 234.15 478.71C234.15 479.06 234.09 479.4 234.07 479.71C233.923 481.71 233.793 483.727 233.68 485.76C233.68 486.29 233.68 486.83 233.61 487.36C233.543 488.933 233.483 490.503 233.43 492.07C233.43 492.66 233.43 493.25 233.43 493.84C233.43 495.89 233.35 497.95 233.35 500.01C233.35 500.01 233.35 500.08 233.35 500.11C233.35 502.33 233.35 504.53 233.43 506.73C233.43 507.49 233.49 508.25 233.51 509.01C233.56 510.48 233.61 511.95 233.68 513.42C233.68 514.31 233.79 515.19 233.84 516.08C233.92 517.41 233.99 518.74 234.09 520.08C234.16 521.08 234.25 521.97 234.33 522.91C234.44 524.17 234.54 525.43 234.67 526.68C234.76 527.68 234.88 528.62 234.98 529.59C235.12 530.8 235.25 532.02 235.4 533.23C235.52 534.23 235.66 535.23 235.79 536.18C235.95 537.36 236.11 538.55 236.29 539.73C236.44 540.73 236.6 541.73 236.76 542.73C236.94 543.89 237.13 545.06 237.33 546.22C237.51 547.22 237.69 548.22 237.88 549.22C238.09 550.37 238.31 551.52 238.53 552.66C238.75 553.8 238.94 554.66 239.15 555.66C239.39 556.8 239.63 557.93 239.89 559.06C240.15 560.19 240.33 561.06 240.57 561.99C240.83 563.12 241.11 564.24 241.39 565.35C241.67 566.46 241.88 567.3 242.13 568.26C242.43 569.38 242.73 570.49 243.04 571.6C243.3 572.6 243.57 573.52 243.85 574.47C244.17 575.58 244.5 576.68 244.85 577.78C245.2 578.88 245.43 579.67 245.73 580.62C246.03 581.57 246.43 582.81 246.79 583.9C247.15 584.99 247.41 585.77 247.73 586.7C248.11 587.79 248.49 588.88 248.88 589.97C249.21 590.88 249.53 591.8 249.88 592.71L251.12 595.98C251.47 596.87 251.81 597.77 252.12 598.66C252.56 599.75 253.01 600.85 253.46 601.94C253.82 602.8 254.17 603.67 254.54 604.53C255.01 605.65 255.54 606.75 255.99 607.86C256.36 608.68 256.72 609.51 257.09 610.33C257.61 611.49 258.16 612.63 258.69 613.77L259.77 616.07C260.38 617.33 261.01 618.57 261.64 619.82C261.96 620.45 262.26 621.09 262.59 621.72C264.51 625.46 266.51 629.15 268.59 632.79C268.88 633.26 269.25 633.87 269.61 634.48Z" fill="#E1DEDD"/>
<path d="M233.25 500C233.25 352.68 352.68 233.25 500 233.25C647.32 233.25 766.75 352.68 766.75 500C766.788 539.694 757.949 578.895 740.88 614.731C723.811 650.568 698.944 682.135 668.1 707.12C662.627 711.573 656.98 715.803 651.16 719.81C591 758 515 758 446.39 751.89C439.73 750.89 433.09 749.63 426.5 748.18C400.17 742.38 374.68 733.43 351.13 720.38C345.31 716.793 339.667 712.92 334.2 708.76C328.705 704.576 323.432 700.11 318.4 695.38C313.64 690.96 309.043 686.367 304.61 681.6C258.667 632.299 233.161 567.39 233.25 500V500Z" stroke="black" stroke-width="12" stroke-miterlimit="10"/>
<path d="M386.12 758.72C295.35 758.72 314.12 872.96 313.25 1000H386.12V758.72Z" fill="white"/>
<path d="M367.23 831.87L390 870L378.61 1000H346.88C346.07 819.73 367.23 831.87 367.23 831.87Z" fill="#E1DEDD"/>
<path d="M619.47 1070H380.53C377.01 1070 373.634 1068.6 371.146 1066.11C368.658 1063.62 367.26 1060.24 367.26 1056.72V772C367.26 768.48 368.658 765.103 371.146 762.613C373.634 760.123 377.01 758.723 380.53 758.72H613.76C626.85 758.72 632.76 766.38 632.76 778.6V1056.68C632.765 1058.43 632.425 1060.16 631.76 1061.78C631.094 1063.39 630.116 1064.86 628.881 1066.1C627.646 1067.34 626.179 1068.32 624.564 1068.99C622.949 1069.66 621.218 1070 619.47 1070V1070Z" fill="white"/>
<path d="M629.05 766.62C628.053 765.394 627.21 764.051 626.54 762.62C624.139 760.738 621.282 759.527 618.26 759.11C616.771 758.879 615.267 758.766 613.76 758.77H380.53C377.018 758.773 373.651 760.166 371.164 762.645C368.677 765.125 367.273 768.488 367.26 772C396.26 782.42 450.55 788.24 500 788.24C563.06 788.24 604.38 778.89 629.05 766.62Z" fill="#E1DEDD"/>
<path d="M610 758.72C700.76 758.72 682 872.96 682.87 1000H632.74" stroke="black" stroke-width="12" stroke-miterlimit="10" stroke-linecap="square"/>
<path d="M386.12 758.72C295.35 758.72 314.12 872.96 313.25 1000H363.32" stroke="black" stroke-width="12" stroke-miterlimit="10" stroke-linecap="square"/>
<path d="M380.53 758.82L613.76 758.72" stroke="black" stroke-width="12" stroke-miterlimit="10"/>
<path d="M380.53 1070H497.15C388 1070 396.24 838.82 367.26 838.82V1056.68C367.255 1058.43 367.594 1060.16 368.258 1061.77C368.923 1063.39 369.899 1064.86 371.132 1066.09C372.365 1067.33 373.829 1068.31 375.442 1068.98C377.054 1069.65 378.784 1070 380.53 1070V1070Z" fill="#E1DEDD"/>
<path d="M361.26 860.85C361.07 857.18 361.15 853.51 361.31 849.85C361.47 846.19 361.78 842.5 362.17 838.85C362.37 837.01 362.57 835.18 362.82 833.34C363.07 831.5 363.31 829.67 363.67 827.83C364.379 824.022 365.586 820.323 367.26 816.83C368.934 820.323 370.141 824.022 370.85 827.83C371.21 829.67 371.47 831.5 371.7 833.34C371.93 835.18 372.15 837.01 372.35 838.85C372.73 842.52 373.03 846.19 373.2 849.85C373.37 853.51 373.45 857.19 373.26 860.85H361.26Z" fill="black"/>
<path d="M632.74 870V878C633 912 633 947 632.74 980.75C632.74 983.62 632.74 986.47 632.74 989.28V1056.69C632.744 1058.44 632.404 1060.16 631.739 1061.78C631.074 1063.39 630.097 1064.86 628.865 1066.1C627.632 1067.33 626.168 1068.31 624.556 1068.98C622.944 1069.65 621.216 1070 619.47 1070H380.53C377.01 1070 373.634 1068.6 371.146 1066.11C368.658 1063.62 367.26 1060.24 367.26 1056.72V998.52C367.26 996.01 367.26 993.45 367.26 990.87C367.01 956 367.01 921 367.26 885.57V860.85" stroke="black" stroke-width="12" stroke-miterlimit="10"/>
<path d="M626.74 870C626.55 865.83 626.64 861.65 626.8 857.47C626.96 853.29 627.27 849.12 627.65 844.94C627.85 842.85 628.06 840.76 628.3 838.67C628.54 836.58 628.79 834.5 629.15 832.41C629.847 828.106 631.052 823.9 632.74 819.88C634.428 823.9 635.633 828.106 636.33 832.41C636.69 834.5 636.95 836.59 637.18 838.67C637.41 840.75 637.63 842.85 637.83 844.94C638.21 849.12 638.52 853.29 638.68 857.47C638.84 861.65 638.93 865.83 638.74 870H626.74Z" fill="black"/>
</g>
</svg>
