<?xml version="1.0" standalone="no"?>
<!DOCTYPE svg PUBLIC "-//W3C//DTD SVG 20010904//EN"
 "http://www.w3.org/TR/2001/REC-SVG-20010904/DTD/svg10.dtd">
<svg version="1.0" xmlns="http://www.w3.org/2000/svg"
 width="1280.000000pt" height="1280.000000pt" viewBox="0 0 1280.000000 1280.000000"
 preserveAspectRatio="xMidYMid meet">
<metadata>
Created by potrace 1.15, written by Peter Selinger 2001-2017
</metadata>
<g transform="translate(0.000000,1280.000000) scale(0.100000,-0.100000)"
fill="#000000" stroke="none">
<path d="M5942 11985 c-146 -50 -250 -114 -430 -264 -140 -116 -158 -144 -148
-224 11 -78 42 -131 112 -193 83 -72 94 -95 94 -187 0 -82 28 -208 63 -277 18
-37 29 -47 65 -58 37 -12 42 -17 42 -44 0 -37 -31 -52 -234 -108 -151 -41
-185 -54 -198 -74 -5 -8 -139 -11 -455 -10 l-448 2 -155 37 c-179 43 -253 47
-505 28 -88 -7 -243 -13 -345 -13 -122 0 -241 -7 -350 -20 -222 -27 -262 -26
-330 7 -67 32 -124 33 -235 5 -44 -11 -114 -25 -155 -32 -94 -14 -289 -74
-353 -108 -80 -43 -90 -81 -58 -217 11 -44 24 -120 30 -169 6 -49 18 -100 27
-114 14 -21 21 -24 53 -19 20 3 46 9 59 13 19 5 22 3 22 -20 0 -36 34 -49 135
-49 93 -1 128 13 222 91 102 85 136 121 130 137 -13 31 160 124 232 125 49 0
565 -173 712 -239 61 -27 148 -38 403 -51 147 -7 235 -7 300 1 80 9 118 7 311
-16 201 -24 475 -60 633 -84 62 -9 114 -5 212 18 51 12 110 14 134 5 9 -3 32
-33 52 -65 23 -39 56 -74 92 -101 81 -59 292 -267 308 -304 7 -17 38 -138 69
-270 66 -284 76 -317 125 -409 32 -62 38 -83 46 -175 13 -162 8 -243 -31 -462
-19 -112 -44 -270 -54 -352 -10 -81 -23 -151 -28 -155 -17 -10 -32 -47 -79
-182 -50 -146 -124 -300 -194 -404 -26 -38 -99 -129 -161 -200 -63 -72 -144
-169 -181 -215 -37 -47 -134 -149 -215 -226 -138 -132 -154 -151 -229 -275
-45 -74 -121 -197 -170 -274 -122 -194 -174 -298 -229 -455 -25 -74 -66 -172
-91 -217 -26 -48 -49 -106 -55 -140 -5 -32 -22 -87 -36 -123 -21 -51 -28 -91
-33 -185 -5 -76 -18 -158 -35 -225 -82 -322 -70 -691 34 -1005 43 -130 56
-207 71 -415 11 -155 8 -180 -25 -180 -17 0 -34 -15 -62 -54 -21 -29 -59 -82
-86 -116 -33 -43 -47 -72 -47 -94 0 -48 -45 -115 -210 -311 -83 -99 -159 -198
-170 -221 -24 -48 -25 -106 -5 -165 35 -99 102 -125 295 -116 204 10 220 15
445 142 110 62 253 140 318 174 192 99 227 136 227 243 0 87 -18 169 -54 253
-20 47 -39 113 -46 160 -15 106 -25 134 -62 172 -38 39 -38 33 -8 393 22 251
30 291 65 330 60 67 60 64 63 336 3 225 1 263 -17 354 -12 57 -21 117 -21 134
0 37 33 112 63 144 71 77 141 69 381 -40 173 -79 289 -128 301 -128 20 0 50
42 93 131 35 73 61 107 162 213 156 165 193 212 247 321 64 128 116 204 229
334 54 63 130 162 169 220 87 131 101 136 139 52 14 -33 45 -108 67 -168 22
-59 67 -164 99 -233 49 -104 76 -183 155 -465 53 -187 100 -357 106 -377 6
-22 17 -39 29 -43 26 -8 75 19 96 53 24 41 44 51 132 63 93 13 168 6 260 -25
37 -13 113 -33 167 -46 l100 -22 190 -193 c190 -194 242 -234 304 -235 44 0
86 -60 126 -179 20 -60 50 -130 66 -155 29 -43 117 -129 498 -487 88 -82 163
-161 175 -184 16 -32 22 -63 25 -150 3 -102 6 -113 32 -152 21 -30 29 -54 29
-85 0 -50 23 -104 72 -174 20 -27 45 -67 56 -89 51 -102 75 -332 48 -448 -22
-92 -20 -155 3 -194 24 -39 117 -85 225 -113 103 -26 148 -25 243 5 43 13 94
27 114 30 78 12 116 88 126 250 7 119 -12 202 -77 346 -29 63 -87 200 -130
304 -120 297 -161 366 -294 492 -97 93 -120 147 -200 469 -85 339 -158 553
-222 650 -64 96 -204 225 -365 335 -83 56 -153 107 -156 112 -3 6 -7 25 -9 43
-2 18 -41 123 -88 232 -101 235 -183 453 -454 1197 -110 303 -239 649 -285
770 -137 356 -160 434 -158 537 1 48 10 156 22 240 11 84 24 187 29 228 10 86
29 134 150 389 112 238 131 291 191 546 72 301 98 438 106 539 6 84 5 91 -22
141 l-29 53 18 113 c10 63 23 146 29 185 15 100 1 139 -89 260 -92 123 -138
165 -223 205 -36 17 -174 85 -306 150 -226 113 -246 121 -350 140 -128 24
-169 44 -359 175 -82 56 -138 102 -155 128 -50 72 -90 163 -122 272 -70 243
-135 383 -248 535 -110 148 -176 205 -276 240 -44 15 -118 41 -165 58 -104 38
-161 39 -258 6z"/>
</g>
</svg>
