<?xml version="1.0" standalone="no"?>
<!DOCTYPE svg PUBLIC "-//W3C//DTD SVG 20010904//EN"
 "http://www.w3.org/TR/2001/REC-SVG-20010904/DTD/svg10.dtd">
<svg version="1.0" xmlns="http://www.w3.org/2000/svg"
 width="1280.000000pt" height="1028.000000pt" viewBox="0 0 1280.000000 1028.000000"
 preserveAspectRatio="xMidYMid meet">
<metadata>
Created by potrace 1.15, written by Peter Selinger 2001-2017
</metadata>
<g transform="translate(0.000000,1028.000000) scale(0.100000,-0.100000)"
fill="#000000" stroke="none">
<path d="M5812 10135 c-348 -80 -650 -153 -670 -162 -94 -44 -169 -154 -286
-414 -91 -205 -119 -260 -166 -329 -112 -163 -223 -217 -431 -208 -108 5 -113
6 -444 125 -40 14 -102 27 -145 30 -73 5 -87 1 -580 -141 -278 -81 -518 -152
-535 -158 -136 -52 -232 -198 -375 -573 -122 -321 -188 -444 -284 -533 -56
-51 -111 -78 -204 -97 -92 -20 -177 -19 -350 6 -180 25 -315 23 -382 -7 -41
-19 -772 -493 -849 -551 -81 -62 -105 -200 -105 -608 -1 -354 17 -586 66 -870
16 -96 44 -185 135 -440 63 -176 157 -437 208 -580 107 -298 624 -1740 721
-2010 36 -99 156 -434 267 -745 l203 -565 39 -20 c32 -15 66 -20 165 -23 457
-14 1415 259 1465 418 3 11 -61 268 -145 582 -300 1114 -432 1606 -485 1803
-184 681 -394 1463 -397 1479 -3 17 15 24 157 57 88 21 167 38 176 38 11 1 22
-20 37 -76 11 -43 188 -692 392 -1443 204 -751 461 -1696 571 -2100 273 -1004
261 -961 283 -981 34 -33 118 -42 321 -36 639 18 1736 316 1790 486 3 10 -107
526 -245 1147 -437 1965 -780 3518 -777 3521 9 8 343 79 348 74 4 -3 21 -67
37 -141 17 -74 121 -522 232 -995 245 -1050 353 -1513 430 -1840 32 -137 109
-466 170 -730 62 -264 140 -599 174 -744 69 -298 67 -292 165 -311 173 -32
646 15 1146 115 827 166 1415 379 1415 513 0 14 -211 1083 -470 2376 -258
1294 -470 2359 -470 2368 0 11 23 21 88 36 164 38 252 55 257 51 4 -5 147
-649 800 -3594 142 -641 231 -1026 241 -1036 64 -70 395 -78 804 -18 681 99
1306 306 1385 459 12 24 9 55 -35 301 -27 151 -96 544 -155 874 -58 330 -155
877 -215 1215 -60 338 -123 694 -140 790 -17 96 -80 452 -140 790 -126 713
-139 786 -265 1500 -52 294 -104 564 -116 600 -89 279 -391 830 -623 1135 -82
108 -182 206 -236 232 l-45 22 -155 -24 c-85 -13 -375 -58 -645 -100 -269 -41
-511 -82 -537 -91 -69 -22 -148 -78 -283 -198 -144 -129 -234 -187 -352 -227
-74 -26 -100 -30 -164 -27 -141 6 -262 86 -580 387 -287 272 -400 349 -517
357 -46 3 -181 -25 -690 -141z"/>
<path d="M11440 6642 c0 -10 11 -79 25 -153 13 -74 60 -336 104 -584 44 -247
103 -578 131 -735 28 -157 86 -485 130 -730 44 -245 124 -698 180 -1008 55
-310 103 -587 106 -616 4 -30 1 -85 -5 -122 -45 -259 -308 -461 -794 -608 -86
-26 -662 -171 -1977 -496 -1609 -398 -1520 -375 -1546 -407 -166 -207 -281
-687 -233 -972 15 -85 52 -165 90 -192 l29 -21 393 37 c215 20 532 49 702 65
493 46 2481 225 2955 266 184 15 370 113 561 291 151 142 256 293 304 437 l26
78 39 1017 c22 559 62 1601 90 2315 28 714 49 1300 48 1301 -2 2 -284 179
-627 395 -343 216 -648 408 -677 426 -47 30 -54 32 -54 16z"/>
</g>
</svg>
