<svg height="511pt" viewBox="0 0 511.96286 511" width="511pt" xmlns="http://www.w3.org/2000/svg"><path d="m509.421875 47.160156-19.15625 19.15625c-3.472656 3.144532-8.679687 3.40625-12.445313.617188l.085938-.089844-32.484375-32.308594c-2.882813-3.703125-2.617187-8.960937.617187-12.359375l19.15625-19.15625c4.011719-3.613281 10.183594-3.335937 13.859376.621094l29.75 29.660156c3.957031 3.675781 4.230468 9.84375.617187 13.859375zm0 0" fill="#95a5a5"/><path d="m477.820312 66.933594-60.027343 60.027344-32.488281-32.484376 60.117187-59.941406c.363281.539063.777344 1.042969 1.234375 1.5l29.660156 29.660156c.460938.460938.964844.875 1.503906 1.238282zm0 0" fill="#bdc3c7"/><path d="m366.503906 178.070312.617188-.617187-32.398438-32.394531 50.582032-50.582032 32.488281 32.484376-51.644531 51.550781c.144531-.121094.265624-.273438.355468-.441407zm0 0" fill="#95a5a5"/><path d="m510.128906 430.894531-174.699218-175.40625 31.691406-31.777343c.847656-.839844 1.324218-1.984376 1.324218-3.179688 0-1.191406-.476562-2.335938-1.324218-3.175781-3.714844-3.820313-6.308594-8.582031-7.503906-13.773438-.089844-.085937 0-.175781-.089844-.175781-.421875-1.972656-.628906-3.984375-.617188-6-.03125-3.933594.8125-7.824219 2.472656-11.390625.265626-.617187.53125-1.144531.792969-1.675781l.796875-1.589844c.253906-.289062.464844-.617188.617188-.96875.203125-.402344.4375-.785156.707031-1.148438.265625-.265624.527344-.617187.882813-.972656.351562-.351562.441406-.527344.707031-.792968.085937-.089844.175781-.265626.261719-.355469.144531-.121094.265624-.273438.355468-.441407l.617188-.617187-32.398438-32.394531c-.617187.617187-1.410156 1.324218-2.117187 1.941406s-1.5 1.148438-2.296875 1.675781c-1.15625.785157-2.402344 1.4375-3.707032 1.941407-5.628906 2.703124-12.019531 3.390624-18.097656 1.941406-5.082031-1.199219-9.730468-3.800782-13.417968-7.5l-1.058594-1.0625c-.839844-.847656-1.984375-1.324219-3.175782-1.324219-1.195312 0-2.339843.476563-3.179687 1.324219l-31.691406 31.78125-3.175781 3.265625-23.304688 23.304687 26.480469-26.570312-31.691407-31.78125c-.839843-.847656-1.984374-1.324219-3.175781-1.324219-1.195312 0-2.339843.476563-3.179687 1.324219l-1.058594 1.0625c-3.6875 3.699218-8.332031 6.300781-13.417969 7.5-6.078125 1.449218-12.464843.761718-18.097656-1.941406-1.304687-.503907-2.546875-1.15625-3.707031-1.941407-.792969-.527343-1.5-1.148437-2.292969-1.675781-.796875-.53125-1.503906-1.324219-2.121094-1.941406l-32.394531 32.394531.617188.617187c.085937.179688.265624.265626.351562.441407.089844.179687.175781.265625.265625.355469.265625.265624.441406.527343.707031.792968s.617188.707032.882813.972656c.265625.363282.503906.746094.707031 1.148438.152344.351562.359375.679688.617188.96875l.792968 1.589844c.265625.53125.53125 1.058594.792969 1.675781 1.660156 3.566406 2.503906 7.457031 2.472656 11.390625.015625 2.015625-.191406 4.027344-.617187 6-.089844 0 0 .089844-.089844.175781-1.195312 5.191407-3.789062 9.953125-7.5 13.773438-.847656.839843-1.324219 1.984375-1.324219 3.175781 0 1.195312.476563 2.339844 1.324219 3.179688l31.6875 31.777343-174.695312 175.40625c-2.152344 2.257813-2.445313 5.707031-.707032 8.296875 19.878906 27.78125 44.148438 52.140625 71.855469 72.121094 2.589844 1.738281 6.039063 1.445312 8.300781-.707031l174.695313-175.3125 40.695312 40.78125c24.625-19.65625 60.101563-17.636719 82.335938 4.6875 22.234375 22.328125 24.109375 57.808593 4.351562 82.351562l47.316407 47.492188c2.257812 2.152343 5.707031 2.445312 8.296874.707031 27.707032-19.980469 51.976563-44.339844 71.855469-72.121094 1.738281-2.589844 1.445313-6.039062-.703125-8.296875zm-204.183594-145.832031 9.710938-9.710938-14.125 14.195313zm0 0" fill="#b19046"/><path d="m367.121094 223.710938-31.691406 31.777343-3 3.089844-26.484376 26.484375-12.445312 12.625-37.519531 37.605469-174.695313 175.3125c-2.261718 2.152343-5.710937 2.445312-8.300781.707031-27.707031-19.980469-51.976563-44.339844-71.855469-72.121094-1.738281-2.589844-1.445312-6.039062.707032-8.296875l174.695312-175.40625 37.34375-37.515625 38.929688-38.929687 3.175781-3.265625 31.691406-31.78125c.839844-.847656 1.984375-1.324219 3.179687-1.324219 1.191407 0 2.335938.476563 3.175782 1.324219l1.058594 1.0625c3.6875 3.699218 8.335937 6.300781 13.417968 7.5 6.078125 1.449218 12.46875.761718 18.097656-1.941406 1.304688-.503907 2.550782-1.15625 3.707032-1.941407.796875-.527343 1.5-1.148437 2.296875-1.675781.792969-.53125 1.5-1.324219 2.117187-1.941406l32.398438 32.394531-.617188.617187c-.089844.167969-.210937.320313-.355468.441407-.085938.089843-.175782.265625-.261719.355469-.265625.265624-.441407.527343-.707031.792968-.265626.265625-.617188.707032-.882813.972656-.269531.363282-.503906.746094-.707031 1.148438-.152344.351562-.363282.679688-.617188.96875l-.796875 1.589844c-.261719.53125-.527343 1.058594-.792969 1.675781-1.660156 3.566406-2.503906 7.457031-2.472656 11.390625-.011718 2.015625.195313 4.027344.617188 6 .089844 0 0 .089844.089844.175781 1.195312 5.191407 3.789062 9.953125 7.503906 13.773438.847656.839843 1.324218 1.984375 1.324218 3.175781 0 1.195312-.476562 2.339844-1.324218 3.179688zm0 0" fill="#e4c05c"/><path d="m66.542969 34.535156-32.488281 32.308594.089843.089844c-3.765625 2.789062-8.976562 2.527344-12.445312-.617188l-19.15625-19.15625c-3.617188-4.015625-3.339844-10.183594.617187-13.859375l29.75-29.660156c3.675782-3.957031 9.84375-4.234375 13.859375-.621094l19.152344 19.15625c3.238281 3.398438 3.5 8.65625.621094 12.359375zm0 0" fill="#7f6e5d"/><path d="m145.460938 178.070312c.085937.179688.265624.265626.351562.441407l-51.640625-51.550781 32.484375-32.484376 50.582031 50.582032-32.394531 32.394531zm0 0" fill="#7f6e5d"/><path d="m126.65625 94.476562-32.484375 32.484376-60.027344-60.027344c.539063-.363282 1.039063-.777344 1.5-1.238282l29.660157-29.660156c.460937-.457031.875-.960937 1.238281-1.5zm0 0" fill="#cbb292"/><path d="m351.230469 364.511719c-5.144531-1.425781-10.460938-2.140625-15.800781-2.121094-34.128907 0-61.792969 27.667969-61.792969 61.792969 0 34.128906 27.664062 61.792968 61.792969 61.792968 18.617187.046876 36.25-8.363281 47.933593-22.863281 9.027344-10.957031 13.929688-24.730469 13.859375-38.929687.035156-28.039063-18.867187-52.566406-45.992187-59.671875zm0 0" fill="#e64c3c"/><path d="m351.230469 483.949219c-5.15625 1.351562-10.46875 2.035156-15.800781 2.027343-59.585938-61.792968 0-123.585937 0-123.585937 5.339843-.019531 10.65625.695313 15.800781 2.121094-9.53125 11.035156-50.316407 64.96875 0 119.4375zm0 0" fill="#ecf0f1"/><g fill="#e64c3c"><path d="m332.429688 258.578125-12.535157 12.535156-79.007812-79.003906c-.175781-.179687-.355469-.441406-.53125-.621094l12.449219-12.445312c.175781.175781.441406.351562.617187.53125zm0 0"/><path d="m305.945312 285.0625-12.445312 12.625-79.097656-79.097656c-.175782-.175782-.351563-.441406-.527344-.617188l12.445312-12.445312c.175782.175781.441407.351562.617188.527344zm0 0"/></g></svg>