<?xml version="1.0" standalone="no"?>
<!DOCTYPE svg PUBLIC "-//W3C//DTD SVG 20010904//EN"
 "http://www.w3.org/TR/2001/REC-SVG-20010904/DTD/svg10.dtd">
<svg version="1.0" xmlns="http://www.w3.org/2000/svg"
 width="1280.000000pt" height="900.000000pt" viewBox="0 0 1280.000000 900.000000"
 preserveAspectRatio="xMidYMid meet">
<metadata>
Created by potrace 1.15, written by Peter Selinger 2001-2017
</metadata>
<g transform="translate(0.000000,900.000000) scale(0.100000,-0.100000)"
fill="#000000" stroke="none">
<path d="M4597 8994 c-4 -4 -7 -15 -7 -24 0 -17 -25 -27 -116 -50 -43 -11 -94
-44 -94 -62 0 -6 -29 -37 -64 -69 -35 -33 -76 -79 -90 -103 -14 -24 -32 -46
-39 -49 -8 -3 -17 -16 -20 -29 -11 -46 -60 -154 -81 -176 -27 -30 -79 -52
-123 -52 -18 0 -44 -7 -57 -15 -14 -10 -66 -19 -133 -25 -71 -6 -126 -17 -154
-30 -33 -14 -66 -20 -129 -20 -47 0 -107 -7 -134 -15 -27 -8 -81 -15 -120 -15
-73 -1 -134 -17 -164 -43 -11 -9 -46 -16 -99 -19 -89 -5 -103 -12 -202 -103
-53 -48 -121 -149 -121 -180 0 -44 47 -139 129 -259 38 -57 176 -176 204 -176
13 0 28 -5 35 -12 20 -20 14 -83 -14 -137 -21 -40 -27 -69 -31 -143 -5 -92 -6
-93 -45 -134 -39 -41 -40 -42 -33 -97 7 -55 6 -57 -30 -94 -39 -40 -65 -88
-65 -123 0 -11 -26 -47 -57 -80 -101 -103 -149 -162 -223 -275 -40 -60 -95
-136 -122 -167 -35 -42 -48 -65 -48 -88 0 -26 -10 -41 -57 -83 -109 -99 -183
-178 -210 -225 -15 -26 -60 -84 -99 -128 -80 -90 -95 -116 -113 -188 -7 -27
-21 -66 -32 -88 -11 -21 -38 -123 -59 -226 -21 -103 -51 -220 -65 -260 -25
-70 -26 -85 -34 -390 -6 -201 -13 -328 -21 -347 -6 -16 -14 -73 -17 -125 l-6
-95 -58 -68 c-35 -40 -62 -82 -67 -105 -16 -67 -32 -158 -32 -184 0 -15 -8
-29 -19 -34 -11 -5 -64 -49 -119 -99 -54 -49 -141 -126 -192 -170 -95 -82
-160 -156 -160 -183 0 -8 -15 -33 -34 -56 -18 -23 -45 -64 -60 -93 -14 -29
-51 -91 -82 -139 -31 -48 -73 -119 -93 -158 -20 -39 -66 -111 -102 -159 -71
-99 -75 -105 -115 -196 -56 -126 -149 -251 -186 -251 -10 0 -38 -18 -62 -40
-39 -36 -46 -39 -71 -30 -33 13 -58 6 -108 -28 -61 -41 -80 -90 -75 -186 4
-67 11 -94 42 -156 20 -41 36 -84 36 -96 0 -11 12 -43 26 -70 17 -32 24 -57
20 -76 -4 -20 8 -52 46 -125 73 -141 109 -192 194 -272 110 -105 190 -161 229
-161 37 0 49 12 93 92 41 73 41 114 3 162 -31 39 -36 55 -46 146 -4 39 -1 63
10 84 14 26 14 31 0 46 -14 15 -15 34 -9 119 l7 102 37 29 c20 16 55 36 78 46
64 25 80 69 42 117 -26 32 -26 77 0 110 25 32 55 101 64 148 12 67 121 209
354 461 35 38 74 92 87 121 14 29 43 74 65 101 59 71 249 245 290 266 20 10
43 26 51 36 18 22 123 70 172 79 44 8 95 41 178 114 64 57 91 100 110 177 11
47 36 94 120 229 42 69 61 108 88 185 49 142 82 224 102 258 12 20 25 52 28
71 3 19 10 34 15 35 21 2 226 -587 246 -706 20 -121 68 -254 116 -322 24 -33
60 -90 81 -126 36 -63 37 -68 37 -160 -1 -78 -8 -125 -44 -265 l-43 -170 -7
-330 c-13 -544 -39 -852 -78 -905 -10 -14 -36 -35 -57 -47 -21 -11 -70 -57
-109 -101 -55 -61 -76 -94 -90 -137 -17 -54 -17 -60 0 -113 14 -47 26 -65 73
-105 80 -68 199 -172 246 -214 370 -335 425 -380 505 -415 25 -11 63 -28 86
-39 28 -13 62 -19 113 -19 63 0 72 2 70 18 -2 9 1 31 5 48 16 70 -29 214 -68
214 -14 0 -69 56 -85 87 -6 12 -11 30 -11 41 0 10 -11 40 -25 66 -30 57 -31
94 -5 146 25 49 25 67 0 108 -17 27 -20 50 -20 148 0 116 0 116 -30 144 -16
15 -43 30 -59 33 -26 6 -30 11 -36 52 -4 25 -2 125 4 223 8 142 16 197 39 277
16 55 37 138 46 185 10 47 29 120 42 163 37 121 74 315 88 466 16 163 57 308
92 322 30 11 35 22 44 87 13 99 30 176 47 215 13 30 15 56 9 140 -3 56 -11
120 -17 142 -43 164 -44 172 -42 300 3 144 -12 427 -27 520 -5 33 -16 121 -25
195 -8 74 -22 158 -30 185 -9 29 -15 79 -14 119 l2 69 -51 49 c-61 58 -66 86
-26 154 23 39 26 53 22 107 -5 53 -2 68 20 107 47 82 83 120 186 192 183 130
224 181 307 383 18 44 48 104 67 134 18 30 51 95 73 145 22 49 57 117 78 150
21 34 55 89 75 123 20 34 62 90 94 125 31 35 104 119 162 188 57 69 146 168
197 220 102 105 83 96 333 166 52 14 129 37 170 50 97 30 313 77 460 98 63 10
167 28 230 42 63 13 228 42 365 65 201 33 279 50 399 90 83 27 189 56 236 64
48 8 106 21 131 29 24 8 89 26 144 41 55 15 123 36 150 47 45 18 66 19 210 13
208 -8 263 -18 271 -50 13 -52 137 -130 176 -111 75 35 159 101 206 162 30 38
58 70 63 72 22 8 1722 -535 2509 -801 721 -245 1146 -396 1674 -597 203 -77
242 -88 254 -77 11 12 -24 28 -230 105 -534 200 -2796 995 -4036 1419 l-134
46 6 41 c7 50 -9 169 -24 174 -28 10 -68 55 -80 91 -15 46 -18 47 -46 26 -10
-8 -32 -15 -49 -15 -16 0 -45 -9 -63 -20 -27 -17 -50 -20 -145 -20 -188 0
-508 -21 -572 -37 -56 -15 -153 -29 -355 -53 -47 -5 -179 -14 -295 -20 -115
-5 -237 -16 -270 -24 -33 -8 -90 -21 -127 -30 -37 -8 -124 -36 -193 -61 -82
-30 -131 -43 -138 -37 -7 5 -83 13 -171 16 -87 4 -170 12 -184 17 -14 5 -99
13 -189 16 -90 3 -163 7 -163 9 0 1 8 22 18 46 65 150 136 394 156 531 13 83
12 97 -6 176 -12 47 -31 106 -43 131 -37 72 -111 136 -195 171 -41 16 -81 36
-90 43 -8 7 -40 16 -70 19 -52 5 -185 44 -370 109 -107 37 -123 41 -133 32z"/>
</g>
</svg>
