<?xml version="1.0" standalone="no"?>
<!DOCTYPE svg PUBLIC "-//W3C//DTD SVG 20010904//EN"
 "http://www.w3.org/TR/2001/REC-SVG-20010904/DTD/svg10.dtd">
<svg version="1.0" xmlns="http://www.w3.org/2000/svg"
 width="1135.000000pt" height="1280.000000pt" viewBox="0 0 1135.000000 1280.000000"
 preserveAspectRatio="xMidYMid meet">
<metadata>
Created by potrace 1.15, written by Peter Selinger 2001-2017
</metadata>
<g transform="translate(0.000000,1280.000000) scale(0.100000,-0.100000)"
fill="#000000" stroke="none">
<path d="M1069 12771 c-24 -16 -78 -64 -120 -107 -65 -68 -91 -105 -174 -258
-154 -283 -148 -266 -135 -415 27 -318 41 -407 92 -606 47 -184 58 -214 134
-367 46 -92 147 -271 224 -399 77 -128 139 -238 136 -243 -2 -6 -133 -202
-291 -436 l-288 -425 -38 -269 c-48 -334 -76 -435 -205 -723 -133 -299 -405
-1115 -404 -1213 1 -73 128 -282 188 -307 19 -8 95 -28 170 -45 137 -31 137
-31 263 -18 l126 12 83 92 c46 50 110 120 144 155 l60 64 37 -43 c21 -24 49
-66 63 -95 15 -28 54 -78 89 -112 l62 -61 130 13 c119 12 141 18 250 63 66 28
165 62 220 78 55 15 104 31 109 35 5 5 -5 46 -23 99 -36 99 -33 120 16 120 14
0 292 135 618 300 l593 300 469 -257 c446 -243 472 -259 507 -307 21 -28 47
-70 58 -94 15 -30 53 -70 132 -136 61 -52 138 -121 170 -155 l59 -60 -97 -101
c-53 -56 -215 -239 -360 -408 -303 -354 -333 -398 -731 -1062 -191 -319 -261
-445 -302 -544 -75 -182 -106 -283 -100 -329 3 -21 37 -102 77 -180 l71 -142
203 -183 c127 -114 273 -234 388 -317 135 -97 206 -156 261 -217 41 -46 212
-199 378 -341 l304 -258 371 -222 371 -222 241 -236 242 -236 20 -229 19 -229
-24 -145 c-13 -80 -31 -194 -40 -254 -18 -125 -28 -143 -169 -315 -47 -57 -86
-107 -86 -110 0 -4 35 -41 78 -84 l78 -77 199 96 c205 99 458 198 536 210 24
4 55 16 68 28 32 29 110 145 201 301 88 149 61 135 245 121 l100 -7 230 291
c127 160 231 295 233 300 2 4 -21 33 -50 63 -58 61 -218 161 -696 436 l-283
164 -227 217 c-125 119 -290 283 -367 365 -77 82 -224 234 -326 339 -102 105
-215 229 -250 276 -99 133 -312 391 -360 436 -124 115 -276 218 -459 309 -74
37 -137 69 -139 71 -3 3 40 50 95 105 174 177 559 469 583 443 5 -5 48 -77 95
-159 l86 -150 8 -155 7 -155 85 -8 85 -8 108 -107 108 -108 85 -274 86 -275
164 -310 c153 -290 169 -316 251 -408 l88 -99 165 -72 c931 -411 897 -394 948
-450 38 -43 85 -74 257 -169 168 -93 368 -186 1005 -467 437 -193 824 -366
860 -383 64 -31 65 -33 83 -92 11 -36 24 -132 33 -240 7 -99 18 -215 24 -257
13 -91 3 -120 -75 -239 -58 -86 -115 -136 -180 -154 -27 -9 -62 -23 -76 -33
-54 -36 -119 -97 -119 -110 0 -8 7 -54 16 -104 l17 -90 421 7 c240 4 436 11
456 17 19 6 87 31 151 55 l117 45 157 289 156 289 65 0 c61 0 71 3 167 60
l102 59 113 151 112 150 -45 163 c-25 89 -48 170 -51 180 -3 9 -92 79 -197
154 -174 123 -209 144 -382 222 -113 51 -461 233 -863 452 l-674 367 -191 177
-192 178 -525 234 c-446 199 -539 237 -620 254 -157 32 -224 51 -242 67 -24
20 -55 108 -78 217 -11 49 -47 173 -81 275 -50 153 -66 221 -94 390 -18 113
-31 208 -29 211 2 3 67 23 145 44 77 21 146 44 153 50 6 7 22 65 34 131 l23
119 -81 215 c-45 118 -94 269 -110 335 -16 66 -86 347 -155 625 -69 278 -146
603 -170 723 -41 199 -45 232 -45 365 -1 225 -10 281 -63 383 -24 48 -82 146
-128 218 -84 131 -85 133 -289 313 -113 100 -216 191 -229 204 l-24 23 41 70
c23 38 42 73 42 78 0 4 -21 59 -47 122 l-47 113 17 62 c39 137 47 186 53 297
l6 116 925 509 c616 339 955 519 1014 541 l89 32 0 -57 c0 -32 -11 -102 -25
-156 -27 -106 -31 -166 -14 -198 6 -11 35 -31 66 -44 54 -24 54 -24 96 -6 48
22 178 117 250 183 l48 44 6 200 5 200 -86 75 c-108 94 -192 145 -248 153 -24
3 -78 0 -121 -8 -71 -12 -127 -38 -595 -279 -284 -145 -715 -375 -957 -509
-507 -282 -452 -271 -454 -91 -1 105 -23 244 -46 301 -17 41 -65 103 -167 220
-76 86 -87 94 -179 137 -53 25 -193 83 -310 130 -118 46 -506 213 -864 371
l-650 287 -205 33 -205 33 -170 -70 c-204 -84 -328 -146 -381 -192 -27 -23
-55 -36 -86 -41 -43 -6 -288 7 -417 23 l-55 7 -17 105 c-13 77 -18 168 -18
341 l-1 235 -94 225 c-78 188 -109 248 -187 368 l-93 143 -216 108 c-198 98
-222 108 -290 114 -110 11 -350 45 -390 56 -49 14 -51 13 -101 -19z m4231
-2860 l175 -68 7 -44 c3 -24 7 -64 7 -88 1 -37 13 -64 71 -158 39 -63 70 -118
70 -122 0 -10 -90 -85 -94 -80 -1 2 -70 81 -153 175 -83 93 -155 179 -161 190
-6 11 -28 67 -50 124 -22 58 -43 113 -47 123 -4 9 -6 17 -4 17 2 0 83 -31 179
-69z m-3435 -1173 c231 -134 545 -315 698 -402 152 -87 277 -161 277 -165 0
-5 -1012 -568 -1041 -579 -5 -2 -64 28 -131 66 -106 60 -140 74 -241 98 -114
27 -121 31 -187 86 -78 66 -94 73 -173 83 -31 4 -57 10 -57 13 0 13 241 629
312 797 45 105 87 205 95 223 7 18 17 31 21 29 4 -3 196 -115 427 -249z"/>
</g>
</svg>
