<?xml version="1.0" encoding="UTF-8"?>
<svg xmlns="http://www.w3.org/2000/svg" xmlns:xlink="http://www.w3.org/1999/xlink" width="24pt" height="24pt" viewBox="0 0 24 24" version="1.1">
<g id="surface439735">
<path style=" stroke:none;fill-rule:nonzero;fill:rgb(100%,100%,100%);fill-opacity:1;" d="M 0 6 L 0 18 L 13 18 L 24 6 Z M 4.199219 9 C 5.898438 9 6.449219 9.398438 6.449219 9.398438 C 6.449219 9.398438 6.148438 10.152344 6 10.550781 C 5.5 10.351562 3.5 10 3.5 10.75 C 3.5 11.050781 3.601562 11.25 5.101562 11.597656 C 5.699219 11.75 6.601562 12.050781 6.800781 12.949219 L 8.351562 9 L 10.097656 9 L 12 13.75 L 12 9 L 14.25 9 C 15.5 9 16.5 10 16.5 11.25 C 16.5 12.5 15.5 13.5 14.25 13.5 L 13.5 13.5 L 13.5 15 L 10.75 15 L 10.449219 14.097656 C 10.097656 14.25 9.699219 14.347656 9.25 14.347656 C 8.800781 14.347656 8.402344 14.25 8.050781 14.097656 L 7.75 15 L 6 15 L 6.25 14.402344 C 5.800781 14.75 5.097656 15 4.199219 15 C 2.550781 15 2 14.550781 2 14.550781 L 2.398438 13.25 C 3.351562 13.851562 5.050781 13.75 5.050781 13.25 C 5.050781 12.75 4.300781 12.699219 3.300781 12.402344 C 2.351562 12.101562 2 11.347656 2 10.699219 C 2 10.050781 2.5 9 4.199219 9 Z M 13.5 10.5 L 13.5 12 L 14.25 12 C 14.648438 12 15 11.648438 15 11.25 C 15 10.851562 14.648438 10.5 14.25 10.5 Z M 9.25 10.699219 L 8.5 12.847656 C 8.699219 13 8.949219 13.050781 9.25 13.050781 C 9.550781 13.050781 9.800781 13 10 12.847656 Z M 9.25 10.699219 "/>
</g>
</svg>
