<?xml version="1.0" standalone="no"?>
<!DOCTYPE svg PUBLIC "-//W3C//DTD SVG 20010904//EN"
 "http://www.w3.org/TR/2001/REC-SVG-20010904/DTD/svg10.dtd">
<svg version="1.0" xmlns="http://www.w3.org/2000/svg"
 width="1182.000000pt" height="1280.000000pt" viewBox="0 0 1182.000000 1280.000000"
 preserveAspectRatio="xMidYMid meet">
<metadata>
Created by potrace 1.15, written by Peter Selinger 2001-2017
</metadata>
<g transform="translate(0.000000,1280.000000) scale(0.100000,-0.100000)"
fill="#000000" stroke="none">
<path d="M6679 12762 c-36 -50 -52 -100 -90 -283 -73 -354 -83 -452 -83 -849
0 -880 88 -1493 309 -2155 174 -523 371 -920 700 -1415 311 -466 575 -741 951
-990 204 -136 349 -190 505 -190 103 0 147 18 225 92 103 98 134 176 134 343
0 181 -48 327 -163 504 -86 131 -140 194 -501 581 -591 634 -707 771 -938
1110 -154 225 -231 373 -520 999 -316 685 -376 911 -427 1591 -27 357 -33 424
-47 545 -9 72 -19 135 -22 142 -5 7 -17 -2 -33 -25z"/>
<path d="M11510 12403 c-8 -3 -60 -43 -115 -88 -266 -219 -445 -402 -589 -601
-453 -623 -620 -883 -809 -1264 -233 -467 -374 -883 -481 -1420 -87 -436 -110
-669 -110 -1115 0 -343 4 -398 44 -646 68 -414 217 -775 382 -924 79 -71 136
-95 231 -95 98 0 168 20 244 69 157 102 253 269 289 506 25 166 20 261 -41
745 -83 660 -99 828 -115 1178 -18 387 13 772 85 1077 13 55 44 201 69 325
186 924 237 1057 681 1760 78 124 170 272 205 330 34 58 71 120 82 138 l20 32
-29 -1 c-15 0 -35 -3 -43 -6z"/>
<path d="M5200 10515 c-269 -51 -510 -207 -662 -428 -54 -79 -112 -204 -144
-312 -24 -80 -27 -107 -28 -245 0 -133 3 -167 23 -240 87 -316 309 -576 589
-690 140 -57 233 -74 397 -73 173 0 244 15 402 84 306 134 516 409 579 754 35
197 9 387 -80 572 -69 142 -122 218 -217 308 -130 123 -281 206 -457 251 -122
32 -293 40 -402 19z"/>
<path d="M3617 9015 c-32 -7 -59 -14 -61 -16 -33 -38 -116 -169 -139 -218 -38
-82 -48 -217 -23 -324 72 -305 393 -713 882 -1121 475 -396 998 -719 1464
-904 149 -59 247 -91 520 -167 113 -32 408 -115 655 -186 444 -126 539 -149
599 -149 l31 1 -40 35 c-51 45 -122 86 -375 219 -521 274 -888 492 -1077 639
-381 298 -683 580 -909 851 -46 55 -192 244 -325 420 -334 440 -418 545 -528
656 -149 149 -275 236 -386 265 -62 17 -210 16 -288 -1z"/>
<path d="M2060 6127 c-147 -50 -264 -153 -329 -290 -53 -111 -74 -175 -110
-337 -24 -111 -33 -369 -21 -629 13 -285 1 -861 -25 -1211 -17 -235 -69 -552
-129 -790 -45 -175 -314 -999 -386 -1180 -93 -232 -204 -458 -297 -604 -54
-83 -102 -147 -359 -477 -212 -273 -404 -527 -404 -535 0 -4 20 -3 45 1 36 5
78 29 198 112 335 234 427 311 638 540 537 580 881 1041 1159 1553 262 482
494 1107 585 1580 100 523 126 733 126 1045 0 250 -12 361 -66 601 -66 296
-119 418 -235 535 -62 64 -84 80 -129 93 -78 23 -182 20 -261 -7z"/>
<path d="M5810 6055 c-330 -56 -607 -272 -755 -589 -64 -137 -88 -244 -88
-401 0 -102 5 -149 23 -220 42 -168 121 -317 239 -452 373 -428 1063 -443
1457 -31 136 141 220 304 273 530 16 67 14 294 -4 376 -37 177 -140 368 -269
497 -229 229 -571 342 -876 290z"/>
<path d="M3228 5931 c-64 -13 -163 -69 -208 -117 -59 -64 -87 -132 -99 -240
-29 -271 87 -545 358 -846 46 -51 200 -217 341 -368 743 -794 951 -1086 1245
-1740 43 -96 120 -264 171 -373 118 -249 192 -435 244 -613 105 -357 137 -582
181 -1254 6 -91 14 -185 20 -210 14 -72 42 -160 49 -160 14 0 96 321 131 510
44 238 52 349 50 725 -1 431 -17 746 -52 1010 -112 854 -382 1611 -831 2334
-407 654 -789 1040 -1253 1267 -169 82 -235 96 -347 75z"/>
<path d="M7605 4351 c-27 -5 -78 -16 -113 -25 -35 -9 -66 -16 -68 -16 -8 0
-71 -143 -93 -210 -73 -221 43 -493 335 -785 367 -366 949 -724 1661 -1021
450 -187 698 -241 1618 -355 138 -17 324 -42 415 -55 223 -34 316 -44 348 -39
15 2 44 7 65 10 20 3 37 10 37 14 0 13 -293 138 -475 201 -248 87 -594 213
-685 250 -330 131 -785 393 -1114 639 -249 188 -339 267 -786 701 -401 389
-499 471 -682 581 -128 76 -225 110 -327 114 -47 2 -108 0 -136 -4z"/>
</g>
</svg>
