<?xml version="1.0" encoding="iso-8859-1"?>
<!-- Generator: Adobe Illustrator 19.0.0, SVG Export Plug-In . SVG Version: 6.00 Build 0)  -->
<svg version="1.1" id="Capa_1" xmlns="http://www.w3.org/2000/svg" xmlns:xlink="http://www.w3.org/1999/xlink" x="0px" y="0px"
	 viewBox="0 0 480 480" style="enable-background:new 0 0 480 480;" xml:space="preserve">
<g>
	<g>
		<path d="M472,0H336c-26.51,0-48,21.49-48,48c-0.047,14.553-9.909,27.242-24,30.88V53.2c11.69-13.255,10.421-33.476-2.834-45.166
			C247.911-3.656,227.69-2.387,216,10.868c-10.667,12.095-10.667,30.237,0,42.332v25.68c-14.091-3.638-23.953-16.327-24-30.88
			c0-26.51-21.49-48-48-48H8C3.582,0,0,3.582,0,8c-0.01,23.645,17.201,43.775,40.56,47.44c3.226,20.608,19.392,36.774,40,40
			c3.665,23.359,23.795,40.57,47.44,40.56h88v120h-64c-13.255,0-24-10.745-24-24s10.745-24,24-24h40c4.418,0,8-3.582,8-8v-16
			c0.012-2.126-0.823-4.17-2.32-5.68l-24-24c-1.51-1.497-3.554-2.332-5.68-2.32h-16c-44.183,0.11-79.911,36.016-79.8,80.199
			c0.089,35.806,23.959,67.192,58.44,76.841c-1.733,6.172-2.621,12.55-2.64,18.96c0.013,29.028,17.457,55.208,44.24,66.4
			c-1.575,5.735-2.382,11.653-2.4,17.6c-0.029,36.518,28.791,66.539,65.28,68H236h1.84H240c35.887-2.194,63.898-31.886,64-67.84
			c-0.005-5.227-0.623-10.436-1.84-15.52c36.58-11.847,57.396-50.345,47.28-87.44c42.637-11.584,67.811-55.539,56.226-98.176
			C396.155,176.015,364.277,151.789,328,152h-16c-2.126-0.012-4.17,0.823-5.68,2.32l-24,24c-1.497,1.51-2.332,3.554-2.32,5.68v16
			c0,4.418,3.582,8,8,8h40c13.255,0,24,10.745,24,24s-10.745,24-24,24h-64V136h88c23.645,0.01,43.775-17.201,47.44-40.56
			c20.608-3.226,36.774-19.392,40-40C462.799,51.775,480.01,31.645,480,8C480,3.582,476.418,0,472,0z M240,16
			c8.837,0,16,7.163,16,16c-0.008,4.555-1.958,8.891-5.36,11.92c-1.697,1.531-2.657,3.715-2.64,6V256h-16V49.92
			c0.017-2.285-0.943-4.469-2.64-6c-3.402-3.029-5.352-7.365-5.36-11.92C224,23.163,231.163,16,240,16z M128,120
			c-14.583-0.011-27.314-9.88-30.96-24H136c4.418,0,8-3.582,8-8s-3.582-8-8-8H88c-14.583-0.011-27.314-9.88-30.96-24H104
			c4.418,0,8-3.582,8-8s-3.582-8-8-8H48c-14.583-0.011-27.314-9.88-30.96-24H144c17.673,0,32,14.327,32,32
			c0.024,23.404,16.923,43.379,40,47.28V120H128z M88,232c0-35.346,28.654-64,64-64h12.72L184,187.28V192h-32
			c-22.091,0-40,17.909-40,40s17.909,40,40,40h2.88c-7.526,6.056-13.756,13.565-18.32,22.08C108.04,286.99,88.014,261.388,88,232z
			 M225.84,419.52c-0.133-10.647,8.391-19.386,19.039-19.518C244.959,400,245.039,400,245.12,400H248v19.28
			c-0.022,5.696-2.571,11.089-6.96,14.72l-5.28,4.4l-5.44-6.4C227.468,428.461,225.89,424.065,225.84,419.52z M236.96,464h-1.36
			c-0.748-0.114-1.367-0.641-1.6-1.36c-0.358-0.828-0.092-1.793,0.64-2.32l16.72-13.92c8.028-6.717,12.659-16.652,12.64-27.12V400
			h16c2.16,0,4.24,0,6.32,0c1.057,3.914,1.622,7.946,1.68,12C288.048,440.366,265.322,463.519,236.96,464z M280,384h-34.88
			c-19.529,0.044-35.324,15.911-35.28,35.44c0,0.027,0,0.054,0,0.08c0.119,8.097,2.934,15.923,8,22.24l5.76,7.04
			c-3.123,2.975-5.056,6.984-5.44,11.28c-26.554-10.939-39.212-41.333-28.274-67.887c8.007-19.438,26.931-32.142,47.954-32.193H280
			c17.673,0,32-14.327,32-32c-0.024-5.64-1.572-11.168-4.48-16H328c1.92,0,3.76,0,5.6,0c1.57,5.189,2.379,10.579,2.4,16
			C336,358.928,310.928,384,280,384z M200,344c-8.837,0-16-7.163-16-16s7.163-16,16-16h16v32H200z M232,344v-32h16v32H232z M264,344
			v-32h16c8.837,0,16,7.163,16,16s-7.163,16-16,16H264z M328,272c22.091,0,40-17.909,40-40s-17.909-40-40-40h-32v-4.72L315.28,168
			H328c35.346,0,64,28.654,64,64c0,35.346-28.654,64-64,64H200c-17.669,0.357-31.704,14.97-31.348,32.639
			c0.306,15.142,11.185,27.996,26.068,30.801c-6.743,5.583-12.363,12.397-16.56,20.08c-28.454-12.121-41.694-45.014-29.573-73.467
			c8.782-20.614,29.006-34.01,51.413-34.053H328z M432,40h-56c-4.418,0-8,3.582-8,8s3.582,8,8,8h46.96
			c-3.646,14.12-16.377,23.989-30.96,24h-48c-4.418,0-8,3.582-8,8s3.582,8,8,8h38.96c-3.646,14.12-16.377,23.989-30.96,24h-88V95.28
			c23.077-3.901,39.976-23.876,40-47.28c0-17.673,14.327-32,32-32h126.96C459.314,30.12,446.583,39.989,432,40z"/>
	</g>
</g>
<g>
</g>
<g>
</g>
<g>
</g>
<g>
</g>
<g>
</g>
<g>
</g>
<g>
</g>
<g>
</g>
<g>
</g>
<g>
</g>
<g>
</g>
<g>
</g>
<g>
</g>
<g>
</g>
<g>
</g>
</svg>
