<svg id="Capa_1" enable-background="new 0 0 512 512" height="512" viewBox="0 0 512 512" width="512" xmlns="http://www.w3.org/2000/svg"><g id="XMLID_345_"><g id="XMLID_349_"><path id="XMLID_350_" d="m134.93 238.86c-1.86 1.86-2.93 4.44-2.93 7.07s1.069 5.21 2.93 7.07c1.86 1.86 4.44 2.93 7.07 2.93s5.21-1.07 7.069-2.93c1.86-1.86 2.931-4.44 2.931-7.07s-1.07-5.21-2.931-7.07c-1.859-1.86-4.439-2.93-7.069-2.93s-5.21 1.07-7.07 2.93z"/><path id="XMLID_1252_" d="m370 0c-57.121 0-108.849 34.618-130.884 86.842h-5.905c-22.027 0-39.948 17.92-39.948 39.947v5.211h-16.048c-24.932 0-45.215 20.283-45.215 45.215v16.048h-5.211c-22.027 0-39.947 17.92-39.947 39.947v5.906c-52.224 22.036-86.842 73.763-86.842 130.884 0 78.299 63.701 142 142 142 59.905 0 113.669-37.892 133.783-94.289 1.855-5.202-.857-10.923-6.06-12.778-5.202-1.856-10.924.857-12.778 6.06-6.305 17.678-16.472 33.226-29.327 45.863-2.559 2.263-5.805 3.512-9.251 3.512-3.739 0-7.255-1.457-9.899-4.101-5.458-5.458-5.487-14.373-.029-19.832 17.02-17.021 27.561-40.52 27.561-66.435 0-51.832-42.168-94-94-94s-94 42.168-94 94c0 25.916 10.542 49.417 27.564 66.438 5.458 5.458 5.426 14.37-.033 19.829-2.644 2.644-6.159 4.1-9.898 4.1-3.257 0-6.343-1.106-8.833-3.138-22.69-22.166-36.8-53.078-36.8-87.229 0-51.112 32.255-97.196 80.263-114.674 3.95-1.438 6.579-5.193 6.579-9.396v-12.72c0-10.999 8.948-19.947 19.947-19.947h30.422c10.999 0 19.947 8.948 19.947 19.947v12.719c0 4.204 2.629 7.958 6.579 9.396 34.274 12.479 60.958 39.335 73.209 73.685 1.855 5.203 7.578 7.915 12.778 6.06 5.202-1.855 7.915-7.576 6.06-12.778-13.465-37.753-41.908-67.729-78.626-83.18v-5.902c0-22.027-17.92-39.947-39.947-39.947h-5.211v-16.048c0-13.903 11.312-25.215 25.215-25.215h16.048v5.21c0 22.027 17.921 39.947 39.948 39.947h5.905c22.035 52.225 73.763 86.843 130.884 86.843 78.299 0 142-63.701 142-142s-63.701-142-142-142zm-228 492c-21.802 0-42.282-5.754-60.013-15.814 2.787-1.534 5.376-3.465 7.688-5.777 4.808-4.808 7.862-10.71 9.183-16.911 12.928 6.706 27.599 10.502 43.142 10.502s30.214-3.796 43.143-10.503c1.32 6.202 4.375 12.104 9.183 16.912 2.303 2.303 4.882 4.228 7.657 5.759-17.93 10.139-38.491 15.832-59.983 15.832zm-74-122c0-40.804 33.196-74 74-74s74 33.196 74 74-33.196 74-74 74-74-33.196-74-74zm389.226-142.796c-22.166 22.687-53.077 36.796-87.226 36.796-51.113 0-97.196-32.255-114.674-80.263-1.438-3.95-5.192-6.579-9.396-6.579h-12.719c-11 0-19.948-8.948-19.948-19.947v-30.421c0-10.999 8.948-19.947 19.948-19.947h12.719c4.204 0 7.959-2.629 9.396-6.579 17.478-48.009 63.561-80.264 114.674-80.264 34.149 0 65.06 14.109 87.226 36.796 2.035 2.49 3.143 5.578 3.143 8.836 0 3.739-1.457 7.255-4.102 9.899-2.644 2.644-6.159 4.1-9.898 4.1-3.74 0-7.286-1.423-9.929-4.067 0 0 0 0-.001-.001-17.022-17.02-40.522-27.563-66.439-27.563-51.832 0-94 42.168-94 94s42.168 94 94 94c25.915 0 49.413-10.541 66.434-27.56 2.644-2.644 6.194-4.072 9.934-4.072 3.739 0 7.255 1.456 9.898 4.101 2.645 2.644 4.102 6.16 4.102 9.899 0 3.258-1.108 6.346-3.142 8.836zm-13.226-85.204c0 40.804-33.196 74-74 74s-74-33.196-74-74 33.196-74 74-74 74 33.196 74 74zm26.409 52.326c-4.704-4.704-10.545-7.852-16.901-9.204 6.7-12.923 10.492-27.587 10.492-43.122s-3.792-30.199-10.492-43.123c6.356-1.352 12.198-4.5 16.901-9.203 2.312-2.312 4.243-4.901 5.776-7.687 10.061 17.731 15.815 38.211 15.815 60.013s-5.754 42.282-15.814 60.013c-1.534-2.786-3.465-5.375-5.777-7.687z"/><path id="XMLID_1280_" d="m245.93 132c-2.63 0-5.21 1.07-7.07 2.93-1.859 1.86-2.93 4.44-2.93 7.07s1.07 5.21 2.93 7.07 4.44 2.93 7.07 2.93 5.21-1.07 7.07-2.93c1.859-1.86 2.93-4.44 2.93-7.07s-1.07-5.21-2.93-7.07-4.44-2.93-7.07-2.93z"/><path id="XMLID_1281_" d="m274 360c-2.63 0-5.21 1.07-7.07 2.93s-2.93 4.44-2.93 7.07 1.069 5.21 2.93 7.07 4.44 2.93 7.07 2.93 5.21-1.07 7.069-2.93c1.86-1.86 2.931-4.44 2.931-7.07s-1.07-5.21-2.931-7.07c-1.859-1.86-4.439-2.93-7.069-2.93z"/></g></g></svg>