<?xml version="1.0" standalone="no"?>
<!DOCTYPE svg PUBLIC "-//W3C//DTD SVG 20010904//EN"
 "http://www.w3.org/TR/2001/REC-SVG-20010904/DTD/svg10.dtd">
<svg version="1.0" xmlns="http://www.w3.org/2000/svg"
 width="939.000000pt" height="1280.000000pt" viewBox="0 0 939.000000 1280.000000"
 preserveAspectRatio="xMidYMid meet">
<metadata>
Created by potrace 1.15, written by Peter Selinger 2001-2017
</metadata>
<g transform="translate(0.000000,1280.000000) scale(0.100000,-0.100000)"
fill="#000000" stroke="none">
<path d="M6059 12770 c-58 -10 -128 -25 -155 -33 -27 -8 -55 -12 -62 -10 -7 3
-18 1 -25 -5 -7 -5 -43 -19 -82 -30 -100 -30 -379 -175 -445 -230 -89 -76
-258 -251 -321 -333 -52 -68 -170 -287 -196 -364 -16 -45 -31 -106 -37 -145
-3 -19 -12 -66 -20 -104 -19 -95 -26 -297 -14 -386 4 -25 11 -88 17 -141 5
-52 12 -102 15 -110 3 -7 8 -39 10 -69 5 -56 12 -105 41 -268 9 -52 15 -96 12
-98 -15 -15 -234 86 -301 140 -21 17 -65 55 -96 84 -57 52 -81 59 -94 26 -6
-16 -83 -19 -130 -5 -181 56 -285 78 -461 99 -123 15 -149 22 -215 55 -41 20
-88 37 -104 37 -33 0 -146 -28 -161 -40 -5 -4 -27 -11 -48 -14 -104 -17 -195
-49 -275 -100 -23 -14 -69 -33 -103 -40 -68 -16 -93 -34 -119 -86 -28 -56
-108 -147 -164 -188 -74 -54 -72 -53 -175 -149 -111 -104 -258 -280 -293 -348
-8 -16 -23 -46 -32 -65 -28 -55 -56 -148 -62 -209 -6 -61 -43 -211 -53 -212
-3 0 -16 -2 -28 -3 -49 -6 -103 -86 -103 -154 0 -49 13 -89 56 -173 l33 -66
-29 -22 c-22 -16 -30 -30 -30 -52 0 -22 -10 -39 -37 -64 -21 -19 -46 -35 -55
-36 -10 -1 -22 -3 -28 -4 -5 -1 -16 -3 -24 -4 -7 0 -27 -15 -45 -32 -18 -16
-53 -39 -79 -50 -228 -95 -387 -185 -560 -318 -122 -93 -174 -130 -232 -161
-54 -29 -108 -70 -278 -208 -81 -65 -132 -123 -165 -187 -8 -17 -44 -62 -79
-100 -77 -84 -113 -136 -163 -234 -37 -74 -37 -77 -48 -250 -18 -289 -17 -313
18 -363 54 -76 97 -100 263 -148 145 -41 156 -43 240 -36 48 3 114 13 147 21
33 9 101 20 151 25 91 9 373 77 443 106 20 8 68 37 106 63 39 27 106 68 150
91 44 24 92 51 107 62 14 10 84 53 155 96 70 43 177 108 236 145 60 37 111 67
113 67 2 0 22 11 43 24 77 49 178 98 291 142 111 43 209 100 298 171 61 49 76
43 83 -37 5 -67 35 -162 71 -234 18 -35 19 -50 13 -120 -4 -45 -9 -146 -10
-226 -1 -80 -8 -158 -14 -173 -6 -16 -11 -62 -11 -104 0 -41 -7 -103 -16 -137
-10 -36 -14 -80 -11 -107 5 -38 1 -53 -18 -81 -30 -44 -53 -100 -48 -115 3 -7
-5 -25 -16 -39 -24 -30 -29 -115 -10 -157 8 -18 8 -51 0 -123 -14 -122 -14
-179 -2 -202 10 -18 14 -51 12 -94 -1 -16 -19 -46 -49 -80 -26 -29 -54 -66
-62 -83 -8 -16 -31 -49 -52 -72 -21 -24 -38 -48 -38 -54 0 -23 -67 -102 -107
-125 -23 -14 -47 -31 -53 -39 -7 -8 -20 -15 -29 -15 -20 0 -91 -57 -91 -73 0
-7 -6 -24 -14 -38 -7 -14 -16 -43 -20 -65 -12 -65 -16 -74 -47 -89 -16 -9 -44
-29 -63 -45 -32 -28 -34 -35 -41 -115 l-7 -84 -56 -27 c-119 -56 -183 -137
-228 -290 -19 -66 -40 -104 -58 -104 -7 0 -68 -54 -135 -121 -68 -66 -148
-136 -177 -156 -33 -22 -66 -55 -86 -87 -17 -28 -49 -77 -70 -110 -21 -32 -38
-70 -38 -85 0 -14 -14 -53 -30 -86 -16 -33 -30 -67 -30 -76 0 -9 -7 -33 -15
-54 -9 -20 -20 -55 -25 -78 -4 -23 -23 -76 -40 -117 -18 -41 -40 -100 -50
-130 -10 -30 -24 -71 -33 -90 -16 -39 -46 -147 -54 -197 -3 -17 2 -60 11 -95
23 -93 20 -170 -10 -263 -31 -95 -127 -320 -182 -425 -22 -41 -43 -86 -47
-100 -4 -13 -25 -49 -46 -80 -49 -72 -96 -214 -103 -311 -3 -41 -15 -109 -25
-151 -51 -199 -76 -465 -91 -963 -6 -176 -13 -342 -16 -370 -5 -41 -52 -200
-79 -267 -7 -17 36 -18 805 -18 656 0 814 3 825 13 7 7 23 33 36 56 13 24 29
51 34 60 6 9 27 44 49 79 21 35 49 67 61 72 42 16 140 94 185 147 46 53 72 71
46 31 -8 -13 -18 -43 -21 -68 -7 -48 -33 -140 -70 -255 -13 -38 -26 -85 -29
-102 l-5 -33 1274 0 1275 0 10 25 c5 14 24 49 43 78 18 28 38 63 45 77 7 14
25 45 40 70 16 25 45 76 66 113 20 37 46 84 58 105 24 43 66 121 116 212 54
101 84 154 98 170 11 14 51 90 183 345 28 55 63 118 76 140 32 52 61 115 82
177 17 54 73 134 115 168 36 28 112 145 126 195 7 22 14 76 16 120 3 64 0 87
-15 117 -10 20 -23 39 -29 43 -10 6 8 44 71 145 19 30 47 81 62 112 15 32 30
58 33 58 3 0 2 -5 -2 -12 -4 -7 -3 -8 5 -4 6 4 9 11 6 16 -3 5 0 12 6 16 12 7
4 120 -12 161 -12 31 -3 29 14 -3 14 -26 14 -25 12 22 -3 64 -23 134 -40 140
-13 5 -14 33 -3 64 27 69 37 123 32 165 -6 38 -4 48 12 60 10 8 28 15 40 15
46 0 124 60 124 94 0 6 9 28 20 49 11 20 20 42 20 49 0 6 7 19 15 28 17 18 32
91 40 187 3 36 12 78 21 95 8 16 14 37 13 46 -2 9 3 33 10 53 l14 36 44 -24
c54 -28 63 -28 113 -3 49 25 60 45 60 108 0 40 -7 60 -39 109 -21 33 -44 64
-50 67 -15 9 -15 196 0 233 32 80 89 250 89 263 0 8 7 28 15 44 8 15 15 35 15
42 0 8 7 14 15 14 20 0 33 14 131 138 18 22 28 51 33 90 4 31 14 73 23 92 40
91 69 162 73 178 2 9 14 42 28 72 13 30 28 64 31 75 7 18 14 13 64 -40 31 -33
69 -78 84 -100 66 -97 259 -291 371 -374 29 -21 111 -96 182 -166 126 -125
208 -189 270 -212 56 -20 173 -36 225 -30 77 9 132 41 197 113 32 36 92 102
133 147 159 174 213 360 178 617 -9 69 -8 121 3 251 20 240 17 430 -10 527
-12 42 -40 144 -62 226 l-41 149 19 36 c10 20 24 44 32 53 16 20 12 66 -15
177 -15 63 -15 70 1 104 9 20 41 57 70 82 64 54 95 106 125 205 12 41 25 82
29 90 9 16 84 74 116 89 33 16 129 114 171 176 29 41 128 299 166 430 27 94
39 165 33 195 -3 14 -9 64 -14 112 -6 47 -21 120 -35 162 -22 64 -27 103 -33
237 -6 146 -8 164 -28 188 -12 14 -49 69 -81 121 -32 52 -75 115 -96 139 -21
24 -51 63 -67 87 -28 44 -106 112 -171 151 -19 12 -62 24 -95 28 -47 6 -84 20
-166 66 -156 86 -282 145 -360 170 -83 26 -81 9 -19 229 12 41 24 91 27 110 3
19 9 37 13 40 9 6 20 95 27 218 4 81 3 96 -14 114 -24 27 -102 61 -193 83 -41
9 -81 19 -89 21 -10 3 -12 38 -7 187 4 100 9 214 12 254 l6 72 56 21 c98 37
122 71 93 129 -16 30 -31 43 -65 56 -25 10 -55 15 -66 12 -35 -9 -31 9 10 51
26 27 40 50 40 67 0 15 -24 74 -53 133 -29 59 -64 134 -77 167 -13 34 -36 70
-53 84 -23 19 -28 29 -23 52 3 15 -1 49 -9 76 -7 26 -26 102 -41 167 -40 178
-96 283 -240 450 -63 73 -142 155 -176 182 -71 57 -177 134 -183 134 -3 0 -33
17 -67 38 -35 21 -88 48 -118 61 -30 13 -64 29 -75 36 -11 7 -45 18 -75 25
-30 6 -62 14 -70 18 -8 3 -22 6 -30 8 -8 1 -49 9 -90 17 -46 9 -155 17 -280
21 -171 4 -222 2 -311 -14z m1799 -1887 c11 -22 -6 -393 -18 -393 -7 1 -100
222 -100 237 0 7 5 35 11 63 18 84 83 140 107 93z m-88 -512 c70 -153 75 -173
64 -243 l-7 -38 -57 0 c-32 0 -71 7 -86 15 -16 8 -39 15 -51 15 -28 0 -28 1
-3 42 11 18 20 45 20 60 0 32 -17 80 -32 89 -8 5 -2 20 17 45 23 31 30 50 32
98 3 73 10 93 24 79 5 -5 41 -78 79 -162z m240 -223 c22 -7 40 -15 40 -18 0
-10 -65 -30 -98 -30 -24 0 -32 4 -32 18 0 21 18 42 37 42 7 0 31 -6 53 -12z
m106 -37 c-6 -9 -46 -22 -46 -15 0 3 10 9 23 14 29 11 29 11 23 1z m-362 -139
l68 -16 -6 -44 c-3 -25 -6 -51 -6 -59 0 -13 -19 -14 -127 -8 -111 6 -130 9
-145 27 -18 21 -25 107 -10 122 10 11 143 -2 226 -22z m321 13 l30 -14 -30 6
c-16 3 -37 9 -45 14 -27 15 11 10 45 -6z m-72 -85 c31 -11 68 -20 82 -20 14 0
25 -4 25 -10 0 -12 -25 -17 -127 -25 -80 -6 -83 -6 -83 15 0 28 18 60 33 60 7
0 38 -9 70 -20z m-195 -155 c2 -2 5 -53 7 -114 4 -111 4 -111 -18 -106 -85 18
-180 35 -202 35 -58 0 -65 13 -65 110 l0 90 138 -6 c75 -4 138 -8 140 -9z
m282 -8 c0 -6 -12 -61 -27 -121 l-27 -108 -61 7 c-33 3 -61 7 -61 8 -1 1 -5
52 -9 112 l-7 110 96 2 c70 2 96 -1 96 -10z"/>
</g>
</svg>
