<?xml version="1.0" standalone="no"?>
<!DOCTYPE svg PUBLIC "-//W3C//DTD SVG 20010904//EN"
 "http://www.w3.org/TR/2001/REC-SVG-20010904/DTD/svg10.dtd">
<svg version="1.0" xmlns="http://www.w3.org/2000/svg"
 width="1280.000000pt" height="1197.000000pt" viewBox="0 0 1280.000000 1197.000000"
 preserveAspectRatio="xMidYMid meet">
<metadata>
Created by potrace 1.15, written by Peter Selinger 2001-2017
</metadata>
<g transform="translate(0.000000,1197.000000) scale(0.100000,-0.100000)"
fill="#000000" stroke="none">
<path d="M4801 10510 c-294 -109 -375 -479 -150 -685 58 -54 103 -80 168 -99
231 -68 472 83 517 323 30 157 -43 326 -177 412 -77 49 -112 60 -214 65 -73 4
-100 1 -144 -16z"/>
<path d="M4385 9736 c-61 -28 -74 -42 -257 -302 -315 -447 -514 -729 -572
-806 -88 -120 -107 -208 -62 -303 24 -51 60 -88 206 -210 140 -117 230 -197
230 -204 0 -3 -15 -22 -33 -41 -17 -19 -72 -82 -122 -140 -49 -58 -95 -109
-101 -115 -5 -5 -41 -46 -80 -90 -38 -44 -119 -136 -180 -205 -150 -169 -180
-210 -193 -268 -10 -41 -10 -59 4 -106 21 -71 56 -113 120 -142 96 -45 183
-27 265 56 31 30 136 147 234 260 98 113 193 221 210 240 18 19 63 71 101 115
112 130 187 216 236 269 68 75 83 109 83 191 -1 113 -22 143 -224 311 -52 43
-100 84 -106 89 -6 6 -35 30 -64 55 -75 63 -81 70 -73 83 13 23 97 142 117
169 12 14 53 72 91 127 39 56 93 132 120 171 28 38 82 114 120 169 39 55 76
101 83 101 7 0 34 -15 60 -33 26 -18 153 -105 282 -192 129 -87 242 -163 250
-170 37 -31 124 -67 168 -70 55 -4 134 26 171 66 85 90 82 240 -6 320 -32 29
-86 67 -438 305 -489 330 -480 325 -554 323 -20 0 -58 -10 -86 -23z"/>
<path d="M1357 6503 c-4 -3 -7 -768 -7 -1700 l0 -1693 673 2 672 3 5 1525 5
1525 795 5 795 5 0 165 0 165 -1466 3 c-806 1 -1469 -1 -1472 -5z"/>
<path d="M9130 3070 c-188 -14 -408 -65 -630 -145 -41 -15 -100 -35 -130 -45
-30 -10 -89 -31 -130 -48 -137 -54 -433 -151 -555 -181 -288 -71 -567 -79
-916 -26 -204 31 -578 115 -714 160 -640 212 -944 277 -1280 277 -326 0 -590
-65 -1168 -286 -191 -73 -466 -152 -622 -177 -120 -20 -519 -17 -670 5 -194
28 -457 84 -710 151 -235 61 -259 66 -292 60 -45 -8 -83 -56 -83 -106 0 -42
21 -84 50 -99 17 -9 454 -124 535 -140 22 -5 81 -18 131 -29 310 -69 689 -104
907 -82 310 32 476 75 957 251 537 196 738 240 1050 226 190 -9 443 -55 660
-121 25 -7 79 -23 120 -35 41 -12 104 -35 140 -50 59 -26 365 -107 600 -160
52 -11 111 -25 130 -30 19 -5 100 -18 180 -29 80 -12 173 -25 206 -31 112 -18
489 -12 628 10 228 36 450 100 781 225 39 15 81 31 95 35 14 5 68 24 120 43
210 76 386 123 557 147 149 21 434 7 608 -30 28 -5 73 -14 100 -20 28 -5 66
-14 85 -19 175 -47 170 -45 350 -101 74 -23 164 -53 200 -66 36 -13 117 -37
180 -53 63 -16 144 -36 180 -45 36 -9 81 -21 100 -27 260 -73 786 -153 811
-123 5 7 8 56 7 110 l-3 98 -115 13 c-180 19 -498 80 -690 132 -19 5 -66 17
-105 27 -94 22 -247 68 -375 111 -58 19 -118 39 -135 43 -16 4 -84 24 -150 43
-386 114 -709 159 -995 137z"/>
<path d="M9005 2359 c-188 -31 -400 -91 -710 -203 -411 -149 -435 -157 -600
-201 -293 -78 -576 -86 -990 -26 -76 11 -299 56 -355 71 -19 5 -80 20 -135 34
-86 21 -315 90 -465 139 -137 46 -421 120 -560 146 -129 24 -303 41 -430 41
-134 0 -333 -19 -407 -39 -21 -6 -68 -17 -104 -26 -105 -24 -353 -108 -654
-220 -462 -172 -775 -223 -1165 -190 -41 3 -97 10 -125 16 -27 5 -95 16 -150
25 -132 21 -414 84 -600 135 -82 23 -180 43 -216 46 -65 5 -65 5 -97 -31 -37
-43 -42 -85 -13 -132 10 -17 32 -36 47 -42 47 -19 477 -127 689 -173 99 -21
297 -51 428 -64 383 -39 679 -4 1080 130 89 30 207 71 262 91 134 50 514 179
545 186 14 3 66 15 115 26 249 57 548 49 865 -24 36 -9 83 -19 105 -24 83 -18
372 -108 411 -128 51 -26 504 -142 724 -186 270 -53 429 -69 680 -69 185 0
247 4 350 22 108 19 165 32 345 81 52 14 276 91 365 125 108 42 272 100 375
132 44 13 103 33 130 43 109 39 369 80 510 80 152 0 384 -31 565 -75 152 -37
456 -127 575 -171 66 -24 438 -123 625 -166 168 -38 480 -87 576 -90 l99 -3 3
99 c2 64 -1 103 -9 112 -8 9 -33 14 -75 14 -35 0 -85 4 -111 9 -26 5 -82 14
-123 21 -128 20 -430 82 -480 100 -14 4 -68 18 -120 30 -52 12 -113 28 -135
35 -22 7 -80 25 -130 40 -49 15 -115 35 -145 45 -220 74 -527 156 -721 191
-100 18 -168 23 -354 25 -126 1 -257 -2 -290 -7z"/>
<path d="M9060 1629 c-69 -4 -152 -13 -185 -19 -33 -7 -73 -14 -90 -17 -16 -3
-93 -23 -170 -45 -135 -39 -189 -57 -505 -173 -479 -174 -701 -225 -993 -225
-389 0 -807 82 -1422 280 -620 200 -1045 240 -1467 139 -21 -5 -55 -13 -75
-18 -63 -14 -249 -76 -412 -135 -246 -90 -259 -95 -411 -146 -276 -91 -412
-118 -650 -126 -243 -9 -548 22 -799 82 -36 9 -102 24 -146 34 -44 10 -171 41
-283 69 -181 47 -207 51 -238 41 -60 -20 -90 -94 -63 -152 16 -36 50 -55 135
-78 218 -58 280 -74 484 -120 312 -71 607 -110 830 -110 100 0 276 16 390 36
147 25 399 99 600 174 263 99 521 186 645 219 307 80 602 78 980 -8 153 -35
413 -113 510 -154 56 -24 325 -94 560 -146 55 -13 116 -26 135 -31 19 -5 78
-16 130 -24 229 -38 339 -47 555 -47 277 0 400 18 720 109 70 20 288 96 420
147 89 34 377 131 464 156 181 53 359 74 550 66 143 -6 301 -26 391 -47 25 -6
65 -16 90 -21 111 -25 266 -71 491 -144 268 -88 785 -217 1004 -250 55 -9 125
-20 155 -25 54 -9 200 -22 270 -24 l35 -1 3 104 c1 57 -1 108 -5 112 -5 5 -49
11 -98 14 -50 3 -117 10 -150 15 -33 5 -94 14 -135 20 -41 7 -93 16 -115 21
-22 4 -103 22 -180 38 -264 57 -439 104 -715 193 -425 137 -690 197 -955 218
-66 5 -129 9 -140 8 -11 -1 -76 -5 -145 -9z"/>
</g>
</svg>
