<?xml version="1.0" standalone="no"?>
<!DOCTYPE svg PUBLIC "-//W3C//DTD SVG 20010904//EN"
 "http://www.w3.org/TR/2001/REC-SVG-20010904/DTD/svg10.dtd">
<svg version="1.0" xmlns="http://www.w3.org/2000/svg"
 width="1280.000000pt" height="938.000000pt" viewBox="0 0 1280.000000 938.000000"
 preserveAspectRatio="xMidYMid meet">
<metadata>
Created by potrace 1.15, written by Peter Selinger 2001-2017
</metadata>
<g transform="translate(0.000000,938.000000) scale(0.100000,-0.100000)"
fill="#000000" stroke="none">
<path d="M8540 9365 c-130 -37 -321 -129 -1515 -732 -693 -350 -1354 -683
-1468 -741 -115 -57 -232 -122 -260 -143 -249 -186 -358 -635 -220 -903 16
-29 216 -326 447 -659 230 -333 418 -609 418 -613 0 -7 -967 -504 -2709 -1392
-365 -185 -663 -340 -663 -343 0 -4 382 -293 849 -643 l848 -637 1068 641
1067 640 1066 -640 1067 -640 427 427 c263 263 424 431 419 438 -5 5 -576 768
-1271 1695 -695 927 -1266 1690 -1271 1696 -5 6 390 248 1104 673 612 365
1130 675 1152 689 72 45 135 103 180 166 92 130 115 223 115 475 0 170 -1 179
-26 229 -52 105 -213 222 -378 277 -147 48 -351 66 -446 40z"/>
<path d="M10225 6804 c-208 -32 -436 -123 -617 -245 -124 -84 -305 -266 -387
-389 -118 -177 -188 -343 -232 -550 -33 -152 -33 -430 0 -580 61 -287 187
-530 379 -732 218 -228 457 -364 775 -440 80 -19 120 -22 312 -22 191 0 232 3
310 21 322 78 564 216 779 444 195 207 321 454 378 742 29 145 31 395 5 532
-125 644 -619 1126 -1251 1220 -125 18 -329 18 -451 -1z"/>
<path d="M1067 1919 l-1067 -640 0 -639 0 -639 583 349 c320 191 800 479 1067
639 439 264 486 289 505 277 11 -7 491 -295 1066 -640 l1046 -627 1067 641
1068 640 1066 -640 c637 -382 1070 -636 1076 -631 6 4 390 292 853 640 l843
631 1280 -640 1280 -640 0 640 0 640 -1279 639 -1279 640 -852 -639 c-469
-352 -855 -638 -859 -636 -16 9 -1489 890 -1788 1069 l-341 205 -1068 -639
-1068 -640 -1045 627 c-575 345 -1055 633 -1066 640 -19 12 -117 -44 -1088
-627z"/>
</g>
</svg>
