<?xml version="1.0" standalone="no"?>
<!DOCTYPE svg PUBLIC "-//W3C//DTD SVG 20010904//EN"
 "http://www.w3.org/TR/2001/REC-SVG-20010904/DTD/svg10.dtd">
<svg version="1.0" xmlns="http://www.w3.org/2000/svg"
 width="1280.000000pt" height="882.000000pt" viewBox="0 0 1280.000000 882.000000"
 preserveAspectRatio="xMidYMid meet">
<metadata>
Created by potrace 1.15, written by Peter Selinger 2001-2017
</metadata>
<g transform="translate(0.000000,882.000000) scale(0.100000,-0.100000)"
fill="#000000" stroke="none">
<path d="M7018 8809 c-10 -5 -18 -16 -18 -23 0 -9 -19 -16 -54 -20 -113 -15
-265 -114 -321 -211 -37 -62 -64 -178 -78 -330 l-12 -138 -45 -15 c-59 -20
-110 -55 -204 -143 l-77 -72 -37 12 c-56 19 -257 25 -353 12 -187 -27 -356
-82 -794 -258 -691 -278 -799 -314 -1050 -357 -208 -36 -334 -79 -694 -235
-89 -39 -165 -71 -167 -71 -2 0 -4 7 -4 15 0 8 -5 15 -11 15 -6 0 -102 -32
-215 -72 -187 -66 -204 -74 -204 -95 0 -35 -19 -37 -111 -9 -46 13 -100 28
-119 31 -62 12 -109 47 -170 126 -56 72 -110 164 -110 187 0 5 -9 21 -21 36
-17 22 -24 25 -36 15 -18 -16 -11 -59 24 -147 14 -35 23 -66 20 -68 -5 -5
-177 181 -202 220 -19 29 -37 33 -55 12 -15 -20 4 -60 70 -146 28 -36 60 -78
72 -95 l21 -30 -29 26 c-16 14 -45 36 -64 49 -19 13 -57 43 -83 68 -49 45 -69
49 -76 17 -7 -37 33 -85 165 -200 74 -64 134 -120 134 -126 0 -11 -124 72
-213 143 -27 21 -53 36 -58 32 -18 -11 -8 -51 22 -92 31 -43 198 -187 345
-299 45 -34 84 -69 88 -78 14 -38 6 -63 -28 -84 -59 -37 -106 -97 -106 -135 0
-19 4 -37 9 -41 6 -3 49 15 98 40 56 28 132 56 206 75 128 33 174 53 251 107
48 34 56 34 69 0 1 -4 56 13 122 39 66 25 167 63 225 84 94 34 105 40 108 64
3 23 13 29 99 56 53 17 191 51 307 76 116 25 311 72 432 105 122 32 267 70
323 83 56 14 222 63 369 110 339 108 515 160 622 186 87 20 150 26 150 13 0
-5 -9 -32 -21 -62 -41 -109 -61 -222 -68 -391 -5 -91 -13 -175 -19 -187 -13
-23 -16 -51 -6 -40 4 3 12 0 20 -7 16 -16 4 -81 -55 -293 -43 -153 -91 -266
-191 -439 -132 -230 -220 -336 -555 -669 -245 -244 -291 -301 -332 -411 -30
-81 -41 -250 -25 -399 l9 -90 -62 -96 c-34 -53 -70 -99 -79 -102 -9 -4 -16
-14 -16 -23 0 -33 -73 -131 -118 -158 -30 -19 -42 -31 -39 -44 4 -12 -17 -35
-67 -78 -39 -33 -168 -170 -287 -305 -271 -306 -358 -384 -513 -462 -167 -84
-497 -209 -766 -292 -116 -36 -168 -54 -260 -94 -144 -62 -215 -114 -516 -380
-152 -134 -321 -262 -573 -434 -154 -105 -186 -124 -201 -115 -14 9 -29 7 -66
-9 l-48 -21 -15 31 c-9 18 -24 33 -34 35 -22 4 -539 -134 -580 -155 -38 -19
-67 -70 -67 -116 0 -78 83 -275 175 -417 44 -68 70 -96 107 -114 29 -15 54
-61 129 -236 99 -234 260 -441 390 -503 159 -75 355 -43 335 55 -9 45 -45 102
-120 190 l-66 76 0 189 c0 150 4 206 20 278 20 88 21 91 79 145 69 64 81 84
81 137 0 33 7 45 43 80 184 177 446 312 1392 720 400 172 462 196 554 214 204
37 302 70 356 118 11 10 130 84 265 164 464 276 693 443 1157 846 113 99 129
109 240 155 l118 48 150 -31 c83 -17 161 -32 175 -35 14 -2 120 -33 235 -69
343 -106 627 -172 1270 -293 109 -20 156 -34 209 -62 76 -40 146 -100 146
-125 0 -8 -27 -82 -59 -164 -130 -323 -147 -423 -181 -1068 -17 -299 -46 -468
-131 -762 -27 -93 -47 -143 -56 -143 -10 0 -13 -19 -13 -75 0 -41 -3 -75 -6
-75 -3 0 -19 9 -35 21 -16 11 -45 23 -64 26 -30 5 -39 1 -64 -26 -53 -57 -102
-243 -123 -461 -13 -148 -2 -209 45 -244 28 -21 33 -21 630 -20 581 1 830 10
947 35 61 13 106 49 131 104 53 117 -5 183 -213 241 -122 34 -204 62 -253 87
-80 40 -272 180 -425 310 l-32 28 19 77 c11 42 50 174 86 292 94 308 291 958
413 1360 57 190 125 399 150 464 51 134 84 252 84 304 0 95 -59 176 -175 242
-33 19 -165 101 -293 183 -516 328 -706 435 -1122 629 l-315 147 -28 81 c-64
184 -45 319 100 711 l65 175 71 55 c122 93 202 182 247 273 36 75 80 215 80
258 0 39 18 12 89 -129 97 -196 199 -370 340 -583 98 -146 126 -197 170 -310
147 -373 246 -563 482 -932 49 -75 106 -173 128 -216 41 -81 79 -122 113 -122
10 0 21 -8 25 -17 39 -114 106 -217 127 -196 3 4 15 -3 26 -15 26 -27 35 -27
60 -2 12 12 33 20 55 20 26 0 39 6 51 25 14 21 22 25 46 20 33 -8 58 8 58 35
0 17 2 17 40 3 l39 -16 39 34 c21 19 53 42 71 51 39 21 48 42 33 80 l-10 28
481 239 c493 244 569 276 717 308 99 21 409 24 895 9 309 -9 408 -4 620 35
209 38 248 50 400 124 302 147 491 304 643 534 192 292 186 556 -20 776 -117
125 -247 201 -423 246 -118 30 -354 33 -485 5 -247 -52 -458 -158 -689 -345
-163 -131 -411 -381 -512 -514 -267 -353 -468 -564 -664 -694 -86 -58 -156
-95 -275 -146 -58 -24 -269 -118 -469 -207 -201 -90 -366 -159 -368 -153 -10
30 -68 94 -90 99 -28 7 -119 -10 -174 -33 -20 -8 -46 -12 -56 -9 -15 5 -48 73
-126 259 -58 138 -130 317 -160 397 -122 321 -187 459 -309 649 -96 150 -123
202 -187 363 -54 135 -143 333 -213 473 -25 50 -74 160 -108 245 -110 271
-186 409 -289 522 -45 49 -81 117 -131 245 -8 19 -1 26 60 62 l69 42 58 -33
c48 -27 68 -33 118 -33 36 1 72 7 91 18 28 14 74 74 109 139 5 10 17 20 25 23
17 6 87 131 119 212 11 29 24 93 29 143 8 71 15 99 36 130 19 29 26 52 26 90
0 27 2 50 5 50 2 0 39 -22 81 -50 88 -58 176 -90 202 -74 30 19 26 59 -9 98
-28 33 -127 87 -241 134 -22 9 -31 23 -43 69 -62 223 -100 319 -142 368 -60
69 -144 105 -309 131 -80 13 -107 22 -115 36 -11 20 -35 23 -61 7z m3350
-4035 c15 -5 39 -37 78 -105 l55 -98 -17 -33 c-9 -18 -18 -35 -19 -36 -4 -4
-458 -43 -461 -39 -1 1 64 73 145 159 150 162 159 168 219 152z"/>
<path d="M8920 7311 c-155 -51 -242 -190 -218 -349 31 -198 249 -314 430 -228
72 34 141 109 164 178 22 67 15 177 -14 235 -56 108 -143 165 -262 170 -41 1
-86 -1 -100 -6z"/>
</g>
</svg>
