<?xml version="1.0" standalone="no"?>
<!DOCTYPE svg PUBLIC "-//W3C//DTD SVG 20010904//EN"
 "http://www.w3.org/TR/2001/REC-SVG-20010904/DTD/svg10.dtd">
<svg version="1.0" xmlns="http://www.w3.org/2000/svg"
 width="1280.000000pt" height="1170.000000pt" viewBox="0 0 1280.000000 1170.000000"
 preserveAspectRatio="xMidYMid meet">
<metadata>
Created by potrace 1.15, written by Peter Selinger 2001-2017
</metadata>
<g transform="translate(0.000000,1170.000000) scale(0.100000,-0.100000)"
fill="#000000" stroke="none">
<path d="M6640 11694 c-245 -21 -313 -28 -430 -45 -405 -58 -863 -180 -1219
-325 -619 -252 -1284 -715 -1871 -1303 -661 -662 -1007 -1187 -1117 -1691 -14
-68 -18 -127 -18 -290 1 -189 3 -214 29 -324 40 -171 88 -297 186 -491 122
-242 225 -395 266 -395 36 0 -7 154 -76 273 -21 37 -52 98 -67 135 -26 63 -28
76 -28 212 -1 174 1 162 -28 197 -21 25 -52 93 -42 93 2 0 25 -9 52 -21 92
-40 570 -217 823 -304 231 -81 258 -93 291 -127 58 -62 206 -118 309 -118 56
0 184 -43 265 -90 197 -113 399 -195 630 -255 218 -57 380 -86 469 -84 58 1
110 -6 181 -24 91 -22 109 -24 204 -16 294 25 603 121 999 310 631 301 1173
773 1606 1399 154 222 288 456 465 810 325 652 359 767 332 1134 -37 501 -183
777 -526 993 -234 148 -644 279 -1028 329 -106 14 -561 26 -657 18z"/>
<path d="M8927 9630 c-65 -44 -101 -101 -254 -400 -153 -300 -257 -477 -478
-810 -395 -597 -644 -878 -1045 -1181 -500 -378 -1126 -678 -1605 -769 -60
-11 -178 -25 -261 -30 -239 -16 -356 -43 -489 -116 -85 -46 -247 -98 -437
-140 -90 -20 -192 -49 -226 -65 -175 -79 -336 -241 -565 -567 -157 -224 -210
-322 -176 -322 26 0 144 99 349 291 281 264 422 374 570 449 79 40 105 48 195
60 152 20 196 -18 379 -332 231 -394 366 -578 577 -783 266 -258 676 -553 982
-707 309 -154 589 -230 1327 -357 190 -33 419 -76 510 -96 458 -102 753 -234
921 -412 138 -147 565 -820 906 -1428 152 -270 216 -391 509 -962 312 -609
398 -770 455 -854 75 -111 165 -124 356 -53 102 38 385 175 558 271 313 174
562 350 526 372 -31 20 -169 -35 -456 -179 -422 -213 -539 -260 -649 -260
-123 0 -209 70 -325 265 -34 57 -145 270 -246 474 -571 1146 -1047 1967 -1451
2502 -206 273 -368 327 -1399 464 -191 25 -393 58 -460 74 -119 30 -383 116
-398 130 -4 4 80 42 185 84 181 72 198 77 269 77 74 0 166 19 299 62 211 68
533 215 591 269 32 30 33 32 14 39 l-20 8 20 8 c11 4 139 54 285 111 146 58
378 142 515 188 138 46 417 145 620 220 523 193 858 312 1094 389 112 36 223
77 246 91 110 64 200 226 249 448 38 170 49 552 21 742 -81 544 -404 1107
-974 1697 -209 216 -407 388 -698 607 -348 261 -663 436 -821 457 -41 5 -53 2
-95 -26z"/>
<path d="M2650 7522 c0 -30 145 -114 223 -128 79 -14 28 50 -80 102 -62 29
-143 44 -143 26z"/>
<path d="M2414 6532 c-84 -61 -291 -306 -584 -692 -435 -573 -802 -1007 -1298
-1538 -346 -370 -558 -622 -524 -622 19 0 162 116 307 249 172 158 577 555
661 649 117 129 231 271 474 592 531 700 865 1125 956 1216 61 61 86 105 82
142 -4 37 -27 38 -74 4z"/>
<path d="M10929 5167 c-103 -91 -243 -246 -301 -332 -43 -65 -68 -129 -109
-279 -33 -122 -45 -142 -79 -131 -12 4 -136 119 -277 256 -302 295 -340 322
-168 119 87 -104 295 -336 427 -477 80 -85 86 -95 158 -258 318 -724 599
-1150 1418 -2145 297 -360 369 -444 568 -661 158 -171 250 -257 225 -211 -18
33 -144 193 -451 567 -767 937 -967 1196 -1195 1540 -295 447 -527 906 -580
1149 -23 102 -16 179 29 306 50 146 109 232 380 560 32 39 56 73 54 76 -3 2
-48 -33 -99 -79z"/>
<path d="M8870 4766 c-10 -28 -3 -60 32 -131 72 -149 301 -449 569 -747 125
-139 209 -250 376 -500 211 -315 408 -628 578 -923 134 -232 171 -307 200
-401 22 -71 34 -92 82 -144 30 -33 69 -70 86 -82 l30 -22 -7 35 c-22 115 -447
913 -727 1367 -50 81 -148 226 -218 322 -164 225 -181 252 -218 330 -52 114
-279 434 -461 651 -120 143 -260 269 -300 269 -7 0 -17 -11 -22 -24z"/>
<path d="M8570 4682 c0 -164 298 -613 463 -698 24 -13 28 -13 33 0 20 52 -165
415 -308 607 -55 74 -126 129 -165 129 -20 0 -23 -5 -23 -38z"/>
<path d="M4 3483 c13 -53 82 -139 236 -294 232 -232 473 -421 645 -504 177
-86 400 -131 588 -119 60 4 105 10 100 15 -4 4 -59 26 -122 48 -272 97 -645
328 -1119 693 -167 128 -264 188 -307 188 -25 0 -27 -3 -21 -27z"/>
<path d="M1037 3103 c-28 -27 14 -81 103 -134 98 -58 114 -50 57 28 -61 83
-135 132 -160 106z"/>
<path d="M10860 1635 c0 -72 232 -613 387 -902 101 -189 196 -313 220 -289 19
19 -101 305 -273 651 -189 381 -334 616 -334 540z"/>
</g>
</svg>
