<?xml version="1.0" standalone="no"?>
<!DOCTYPE svg PUBLIC "-//W3C//DTD SVG 20010904//EN"
 "http://www.w3.org/TR/2001/REC-SVG-20010904/DTD/svg10.dtd">
<svg version="1.0" xmlns="http://www.w3.org/2000/svg"
 width="711.000000pt" height="1280.000000pt" viewBox="0 0 711.000000 1280.000000"
 preserveAspectRatio="xMidYMid meet">
<metadata>
Created by potrace 1.15, written by Peter Selinger 2001-2017
</metadata>
<g transform="translate(0.000000,1280.000000) scale(0.100000,-0.100000)"
fill="#000000" stroke="none">
<path d="M5390 12786 c-262 -55 -469 -254 -537 -516 -22 -86 -21 -244 1 -330
66 -250 265 -447 513 -505 55 -13 100 -16 190 -13 195 9 317 63 459 204 119
118 182 254 199 432 30 304 -178 611 -480 708 -98 32 -248 40 -345 20z"/>
<path d="M6942 10997 c-5 -7 -13 -27 -17 -45 -4 -19 -26 -65 -48 -104 -23 -39
-64 -112 -92 -163 -54 -98 -87 -133 -373 -389 -72 -65 -132 -121 -132 -126 0
-4 -24 -23 -53 -42 -56 -37 -129 -97 -313 -257 -60 -52 -122 -106 -139 -120
-77 -67 -497 -493 -624 -635 -78 -87 -160 -173 -182 -190 -22 -17 -65 -52 -97
-78 -72 -60 -86 -67 -262 -129 -231 -83 -470 -202 -608 -304 l-60 -43 -48 49
c-26 27 -56 51 -65 54 -18 6 -49 82 -49 120 0 12 11 37 25 56 46 64 66 109 59
132 -4 12 -24 38 -45 60 -31 30 -39 45 -39 73 0 30 -8 44 -50 84 -27 27 -50
57 -50 67 0 11 -7 40 -16 66 -16 46 -17 47 -58 47 -57 0 -82 20 -90 72 -13 84
-42 118 -141 168 -86 42 -94 44 -180 44 -219 1 -386 -116 -526 -370 -19 -33
-47 -79 -62 -103 -34 -51 -51 -134 -44 -221 5 -72 36 -140 121 -264 26 -37 45
-70 42 -73 -2 -3 -36 0 -75 7 -38 6 -80 8 -93 5 -61 -19 -109 -49 -171 -105
l-67 -62 -27 20 c-16 11 -51 31 -79 45 l-50 26 -13 138 c-62 692 -79 965 -62
1015 7 18 36 59 66 92 48 53 80 102 138 212 18 32 18 36 3 57 -9 12 -26 37
-37 55 -31 48 -54 42 -74 -19 -10 -28 -22 -48 -28 -46 -17 5 -40 56 -42 92 -2
16 -7 41 -13 55 -6 14 -15 85 -22 159 -10 127 -35 230 -61 255 -7 8 -16 4 -31
-14 -18 -22 -19 -33 -13 -92 4 -46 3 -68 -4 -68 -6 0 -11 13 -11 29 0 41 -28
201 -42 234 -15 39 -46 59 -71 46 -19 -11 -19 -18 -12 -161 6 -121 4 -149 -6
-146 -7 2 -19 31 -26 63 -16 68 -28 87 -57 83 -33 -5 -34 -49 -4 -208 34 -184
34 -192 5 -188 -16 2 -35 26 -73 95 -60 109 -71 123 -95 123 -32 0 -23 -60 30
-193 27 -67 57 -150 66 -185 8 -34 39 -117 67 -183 l51 -121 -22 -147 c-28
-184 -37 -258 -51 -396 -6 -60 -16 -135 -23 -165 -14 -62 -17 -606 -4 -653 5
-19 29 -41 80 -74 39 -25 86 -52 104 -59 17 -8 47 -24 66 -36 19 -13 43 -28
53 -34 18 -11 18 -13 3 -30 -9 -11 -36 -55 -59 -99 -78 -146 -128 -177 -215
-135 -56 27 -74 58 -56 96 12 27 12 27 -25 21 -78 -13 -131 -102 -121 -206 14
-158 170 -311 360 -355 256 -59 509 43 627 252 60 107 50 102 122 64 67 -34
262 -173 471 -335 466 -363 760 -683 837 -916 37 -113 18 -166 -114 -315 -108
-121 -141 -166 -186 -254 -99 -195 -127 -377 -150 -952 -26 -665 -53 -872
-140 -1057 -41 -87 -124 -213 -140 -213 -5 0 -33 18 -62 40 -123 93 -279 156
-472 189 -143 25 -527 66 -756 81 -188 12 -257 21 -387 52 -84 19 -96 24 -120
57 -14 20 -75 97 -133 171 -59 74 -125 163 -148 196 -59 89 -93 114 -151 114
-83 0 -140 -44 -248 -193 -52 -71 -191 -244 -309 -385 -304 -362 -411 -525
-421 -642 -5 -50 -3 -59 22 -88 24 -29 32 -32 83 -32 66 0 82 8 215 111 165
127 229 149 447 149 120 0 156 -4 203 -20 31 -11 64 -20 74 -20 39 0 80 38
118 111 21 41 39 75 41 77 9 12 478 -139 789 -253 310 -114 490 -197 578 -268
21 -16 56 -53 77 -82 22 -29 56 -69 76 -88 51 -48 176 -122 249 -148 33 -11
69 -29 80 -39 103 -92 353 -90 550 6 95 46 167 111 201 180 15 31 43 75 62 98
115 136 379 602 534 941 l45 100 66 -205 c115 -360 172 -556 197 -685 6 -33
13 -67 16 -76 3 -11 -18 -27 -78 -57 -106 -52 -246 -153 -325 -234 -45 -46
-88 -109 -158 -231 -161 -283 -353 -572 -458 -692 l-35 -40 -11 27 c-6 16 -14
28 -18 28 -17 1 -192 29 -275 45 -107 20 -152 11 -197 -40 -38 -44 -46 -84
-44 -220 2 -133 23 -240 63 -318 l31 -58 -16 -81 c-26 -137 -18 -275 26 -453
61 -244 204 -379 320 -303 54 36 86 114 125 304 47 228 49 237 96 330 34 70
45 83 70 88 16 3 45 21 64 40 29 29 34 41 34 82 0 50 -27 144 -42 144 -19 0
-5 56 24 94 79 102 211 235 311 315 61 47 210 165 332 262 121 97 231 180 243
183 12 4 22 12 22 17 0 5 19 9 43 9 139 0 334 43 447 98 142 69 259 219 290
369 15 69 8 211 -13 298 -8 33 -20 130 -26 215 -29 388 -99 990 -151 1295 -16
94 -58 310 -94 480 -74 356 -89 448 -84 525 l3 55 35 3 c100 7 96 4 111 95 33
197 13 352 -76 602 -44 123 -104 360 -150 590 -14 72 -32 153 -40 180 -39 133
-47 194 -60 447 -14 255 -24 340 -45 353 -5 3 -16 29 -24 58 -8 28 -31 76 -51
105 -19 30 -35 56 -35 58 0 17 253 381 334 482 56 68 113 139 127 158 15 19
51 60 80 92 30 32 89 105 132 162 43 58 92 119 110 136 18 18 39 40 47 49 8 9
48 51 88 92 39 41 72 76 72 78 0 3 15 19 33 38 56 58 185 209 272 322 17 21
40 50 51 64 39 47 139 195 172 252 18 31 55 82 83 113 41 44 62 58 106 71 81
24 163 106 163 163 0 10 14 38 31 62 41 56 59 111 59 177 0 45 4 58 26 80 19
19 28 42 35 89 5 34 18 86 29 114 24 60 27 135 6 143 -8 3 -19 0 -24 -6z
m-3919 -2828 c34 -11 88 -34 121 -50 59 -30 113 -38 174 -24 31 6 32 5 32 -24
0 -22 -7 -35 -25 -47 -38 -25 -246 -15 -337 16 l-68 23 0 51 c0 48 12 76 32
76 5 0 37 -9 71 -21z"/>
</g>
</svg>
