<?xml version="1.0" standalone="no"?>
<!DOCTYPE svg PUBLIC "-//W3C//DTD SVG 20010904//EN"
 "http://www.w3.org/TR/2001/REC-SVG-20010904/DTD/svg10.dtd">
<svg version="1.0" xmlns="http://www.w3.org/2000/svg"
 width="1280.000000pt" height="640.000000pt" viewBox="0 0 1280.000000 640.000000"
 preserveAspectRatio="xMidYMid meet">
<metadata>
Created by potrace 1.15, written by Peter Selinger 2001-2017
</metadata>
<g transform="translate(0.000000,640.000000) scale(0.100000,-0.100000)"
fill="#000000" stroke="none">
<path d="M1510 3200 l0 -1480 185 0 185 0 0 1480 0 1480 -185 0 -185 0 0
-1480z"/>
<path d="M1980 3200 l0 -1480 185 0 185 0 0 1480 0 1480 -185 0 -185 0 0
-1480z"/>
<path d="M10450 3200 l0 -1480 185 0 185 0 0 1480 0 1480 -185 0 -185 0 0
-1480z"/>
<path d="M10920 3200 l0 -1480 185 0 185 0 0 1480 0 1480 -185 0 -185 0 0
-1480z"/>
<path d="M1040 3200 l0 -1170 185 0 185 0 0 1170 0 1170 -185 0 -185 0 0
-1170z"/>
<path d="M11390 3200 l0 -1170 185 0 185 0 0 1170 0 1170 -185 0 -185 0 0
-1170z"/>
<path d="M570 3200 l0 -870 183 2 182 3 0 865 0 865 -182 3 -183 2 0 -870z"/>
<path d="M11865 4058 c-3 -7 -4 -398 -3 -868 l3 -855 183 -3 182 -2 0 870 0
870 -180 0 c-135 0 -182 -3 -185 -12z"/>
<path d="M0 3200 l0 -160 235 0 235 0 0 160 0 160 -235 0 -235 0 0 -160z"/>
<path d="M2450 3200 l0 -160 3945 0 3945 0 0 160 0 160 -3945 0 -3945 0 0
-160z"/>
<path d="M12330 3200 l0 -160 235 0 235 0 0 160 0 160 -235 0 -235 0 0 -160z"/>
</g>
</svg>
