<?xml version="1.0" standalone="no"?>
<!DOCTYPE svg PUBLIC "-//W3C//DTD SVG 20010904//EN"
 "http://www.w3.org/TR/2001/REC-SVG-20010904/DTD/svg10.dtd">
<svg version="1.0" xmlns="http://www.w3.org/2000/svg"
 width="1280.000000pt" height="1280.000000pt" viewBox="0 0 1280.000000 1280.000000"
 preserveAspectRatio="xMidYMid meet">
<metadata>
Created by potrace 1.15, written by Peter Selinger 2001-2017
</metadata>
<g transform="translate(0.000000,1280.000000) scale(0.100000,-0.100000)"
fill="#000000" stroke="none">
<path d="M6396 11738 c-59 -13 -191 -85 -247 -136 -46 -42 -89 -105 -89 -133
0 -7 -16 -36 -35 -65 -19 -29 -35 -59 -35 -68 0 -8 -4 -17 -8 -20 -5 -3 -7
-63 -5 -133 2 -72 -3 -181 -11 -250 -12 -105 -12 -142 0 -269 14 -152 26 -190
82 -277 32 -48 21 -81 -30 -92 -18 -4 -46 -16 -61 -27 -15 -11 -85 -44 -155
-73 -70 -29 -165 -71 -212 -93 -47 -22 -123 -52 -170 -66 -47 -15 -101 -33
-120 -40 -19 -8 -69 -27 -110 -42 -41 -16 -77 -31 -80 -34 -3 -3 -32 -18 -64
-35 -68 -34 -169 -130 -221 -207 -96 -143 -132 -190 -210 -268 -88 -90 -145
-174 -145 -216 0 -14 -18 -62 -40 -108 -22 -45 -40 -87 -40 -92 0 -6 -9 -29
-20 -52 -13 -27 -20 -61 -20 -102 0 -34 -5 -71 -12 -83 -18 -35 -13 -334 6
-372 9 -17 16 -37 16 -46 0 -14 37 -156 64 -244 29 -96 131 -265 192 -320 22
-20 179 -212 199 -244 6 -9 23 -35 38 -58 15 -24 27 -50 27 -59 0 -8 17 -36
39 -62 21 -26 51 -68 65 -94 37 -64 143 -177 210 -223 30 -21 67 -56 81 -77
31 -47 31 -69 -3 -273 -32 -185 -42 -232 -65 -300 -18 -52 -21 -88 -22 -270
-2 -115 -7 -298 -12 -405 -6 -110 -7 -256 -3 -335 12 -212 29 -456 35 -490 2
-16 9 -61 14 -98 11 -74 35 -122 87 -175 29 -30 33 -42 39 -105 3 -40 0 -115
-6 -167 -13 -107 -15 -241 -5 -315 6 -38 3 -68 -14 -125 -12 -41 -24 -84 -27
-95 -2 -11 -8 -29 -13 -40 -13 -30 -20 -70 -31 -180 -20 -205 -21 -239 -9
-293 7 -31 13 -69 15 -86 6 -76 17 -153 25 -171 5 -11 11 -38 13 -60 3 -22 10
-60 17 -85 7 -25 13 -70 15 -100 1 -30 7 -68 13 -85 42 -123 45 -143 50 -335
9 -353 9 -359 -42 -435 -49 -73 -145 -168 -206 -203 -25 -14 -90 -56 -145 -92
-55 -37 -116 -77 -136 -88 -57 -35 -124 -113 -158 -186 -35 -77 -37 -91 -15
-135 25 -51 64 -61 240 -61 140 0 223 9 264 30 9 4 39 11 68 15 29 4 54 11 58
16 3 5 12 9 19 9 8 0 39 11 69 25 30 14 58 25 63 25 4 0 30 11 57 25 27 14 57
25 66 25 9 0 20 4 25 8 10 8 25 13 155 48 62 16 207 81 241 107 54 42 53 138
-2 307 -23 69 -48 141 -56 160 -32 75 -43 143 -44 273 -1 143 -1 143 42 233
27 57 28 67 27 180 -5 326 -3 432 10 458 6 14 16 36 21 49 5 12 21 50 35 83
14 34 26 72 26 86 0 13 4 28 10 34 11 11 16 171 12 380 -4 139 -2 159 21 235
14 46 29 101 32 122 4 20 22 56 40 80 72 94 148 270 161 373 4 27 10 54 14 59
4 6 10 31 13 57 4 26 16 64 27 85 11 21 20 43 20 48 0 6 10 33 23 59 22 46 23
47 34 24 6 -13 27 -84 47 -158 20 -74 41 -149 46 -166 6 -17 10 -38 10 -47 0
-10 4 -25 9 -35 5 -9 14 -35 21 -57 22 -71 98 -223 140 -280 22 -30 64 -73 94
-95 44 -34 60 -54 90 -120 20 -44 36 -84 36 -89 0 -5 17 -45 39 -89 36 -75 54
-120 53 -133 -1 -3 4 -23 10 -45 6 -21 14 -95 18 -164 6 -110 40 -316 56 -342
3 -5 10 -83 15 -174 5 -91 14 -183 20 -205 10 -31 10 -44 -1 -64 -11 -20 -11
-38 -1 -97 7 -40 17 -86 21 -103 5 -16 11 -52 15 -80 9 -61 7 -918 -1 -960 -3
-16 -19 -57 -34 -91 -34 -72 -50 -158 -50 -272 0 -114 27 -170 98 -200 71 -31
144 -36 277 -22 109 12 125 16 224 65 107 53 155 93 167 139 9 38 -15 462 -30
529 -21 88 -43 224 -58 353 -11 94 -11 123 1 190 12 68 17 235 12 394 -2 59 8
181 16 200 4 8 13 60 19 115 7 55 18 125 24 155 29 142 38 274 28 390 -5 63
-14 124 -18 135 -5 11 -11 40 -14 65 -14 119 -35 183 -118 357 -26 55 -48 104
-48 107 0 4 -9 25 -20 49 -33 71 -64 474 -41 540 6 16 13 136 16 266 3 130 10
259 15 286 19 111 51 358 61 485 6 74 15 171 20 215 16 140 18 257 8 360 -6
55 -12 127 -14 160 -5 73 -47 280 -85 412 l-12 41 53 51 c50 48 62 55 82 52 4
-1 40 24 80 54 39 30 81 55 92 55 19 1 89 46 279 180 43 30 88 62 100 70 78
54 225 174 248 202 14 18 45 58 69 89 24 31 56 72 70 90 14 19 59 79 99 134
40 55 96 125 124 156 127 139 181 224 172 273 -3 17 -12 74 -20 126 -34 224
-64 327 -141 485 -41 83 -88 185 -106 228 -62 153 -165 279 -324 397 -52 39
-81 69 -150 159 -69 91 -108 132 -183 197 -93 79 -204 137 -326 170 -88 23
-404 165 -439 197 -22 21 -56 37 -76 37 -11 0 -23 5 -26 10 -4 6 -22 17 -42
25 -19 8 -48 26 -64 39 -25 21 -58 32 -164 52 -32 5 -43 56 -47 198 l-2 128
31 38 c54 64 73 106 73 164 0 55 -19 86 -52 86 -12 0 -13 10 -6 67 18 131 -5
296 -58 431 -36 92 -82 140 -224 230 l-105 67 -120 1 c-66 0 -137 -3 -159 -8z
m-1116 -3130 c36 -55 73 -106 83 -112 12 -8 17 -24 17 -61 0 -51 6 -90 42
-320 24 -151 37 -388 25 -460 -5 -27 -11 -72 -14 -98 -5 -48 -5 -48 -36 -41
-34 7 -55 28 -94 94 -14 25 -34 54 -44 65 -10 11 -29 45 -44 75 -14 30 -30 62
-35 70 -38 61 -55 123 -70 250 -5 41 -14 93 -20 115 -6 22 -13 49 -14 60 -3
28 -17 78 -25 90 -9 13 -28 73 -36 112 -6 29 -1 38 57 100 35 38 79 89 98 115
19 26 37 47 40 47 3 0 34 -45 70 -101z m2632 14 c43 -60 107 -132 225 -250
l134 -134 -20 -31 c-23 -36 -74 -131 -118 -222 -17 -33 -38 -98 -48 -144 -17
-76 -23 -87 -69 -135 -53 -53 -235 -221 -297 -275 -61 -51 -190 -141 -203
-141 -20 0 -40 57 -37 108 1 25 11 73 23 106 16 48 22 103 28 256 6 135 14
209 25 240 9 25 27 92 41 150 21 89 33 117 77 183 28 42 55 77 59 77 5 0 8 6
8 13 0 8 11 24 25 37 14 13 25 27 25 32 0 4 16 31 35 58 19 27 35 53 35 58 0
10 21 32 31 32 5 0 14 -8 21 -18z"/>
</g>
</svg>
